<?xml version="1.0" encoding="UTF-8" standalone="no"?>
<svg
   xmlns:dc="http://purl.org/dc/elements/1.1/"
   xmlns:cc="http://creativecommons.org/ns#"
   xmlns:rdf="http://www.w3.org/1999/02/22-rdf-syntax-ns#"
   xmlns:svg="http://www.w3.org/2000/svg"
   xmlns="http://www.w3.org/2000/svg"
   xmlns:sodipodi="http://sodipodi.sourceforge.net/DTD/sodipodi-0.dtd"
   xmlns:inkscape="http://www.inkscape.org/namespaces/inkscape"
   width="540.34253"
   height="130.2476"
   viewBox="0 0 540.34253 130.2476"
   version="1.2"
   id="svg2"
   inkscape:version="0.91 r13725"
   sodipodi:docname="mvs_sample.svg">
  <metadata
     id="metadata282">
    <rdf:RDF>
      <cc:Work
         rdf:about="">
        <dc:format>image/svg+xml</dc:format>
        <dc:type
           rdf:resource="http://purl.org/dc/dcmitype/StillImage" />
        <dc:title>tmphtd7pzjo</dc:title>
      </cc:Work>
    </rdf:RDF>
  </metadata>
  <defs
     id="defs280" />
  <sodipodi:namedview
     pagecolor="#ffffff"
     bordercolor="#666666"
     borderopacity="1"
     objecttolerance="10"
     gridtolerance="10"
     guidetolerance="10"
     inkscape:pageopacity="0"
     inkscape:pageshadow="2"
     inkscape:window-width="640"
     inkscape:window-height="480"
     id="namedview278"
     showgrid="false"
     fit-margin-top="0"
     fit-margin-left="0"
     fit-margin-right="0"
     fit-margin-bottom="0"
     inkscape:zoom="0.28032165"
     inkscape:cx="271.0515"
     inkscape:cy="-236.06501"
     inkscape:window-x="0"
     inkscape:window-y="0"
     inkscape:window-maximized="0"
     inkscape:current-layer="svg2" />
  <title
     id="title4">tmphtd7pzjo</title>
  <desc
     id="desc6">Generated by MuseScore 2.0.3.1</desc>
  <polyline
     class="StaffLines"
     points="28.3465,63.0709 566.929,63.0709"
     id="polyline8"
     style="fill:none;stroke:#000000;stroke-width:0.40000001;stroke-linejoin:bevel"
     transform="translate(-26.5865,-54.6324)" />
  <polyline
     class="StaffLines"
     points="28.3465,68.0315 566.929,68.0315"
     id="polyline10"
     style="fill:none;stroke:#000000;stroke-width:0.40000001;stroke-linejoin:bevel"
     transform="translate(-26.5865,-54.6324)" />
  <polyline
     class="StaffLines"
     points="28.3465,72.9921 566.929,72.9921"
     id="polyline12"
     style="fill:none;stroke:#000000;stroke-width:0.40000001;stroke-linejoin:bevel"
     transform="translate(-26.5865,-54.6324)" />
  <polyline
     class="StaffLines"
     points="28.3465,77.9528 566.929,77.9528"
     id="polyline14"
     style="fill:none;stroke:#000000;stroke-width:0.40000001;stroke-linejoin:bevel"
     transform="translate(-26.5865,-54.6324)" />
  <polyline
     class="StaffLines"
     points="28.3465,82.9134 566.929,82.9134"
     id="polyline16"
     style="fill:none;stroke:#000000;stroke-width:0.40000001;stroke-linejoin:bevel"
     transform="translate(-26.5865,-54.6324)" />
  <polyline
     class="StaffLines"
     points="28.3465,157.323 566.929,157.323"
     id="polyline18"
     style="fill:none;stroke:#000000;stroke-width:0.40000001;stroke-linejoin:bevel"
     transform="translate(-26.5865,-54.6324)" />
  <polyline
     class="StaffLines"
     points="28.3465,162.283 566.929,162.283"
     id="polyline20"
     style="fill:none;stroke:#000000;stroke-width:0.40000001;stroke-linejoin:bevel"
     transform="translate(-26.5865,-54.6324)" />
  <polyline
     class="StaffLines"
     points="28.3465,167.244 566.929,167.244"
     id="polyline22"
     style="fill:none;stroke:#000000;stroke-width:0.40000001;stroke-linejoin:bevel"
     transform="translate(-26.5865,-54.6324)" />
  <polyline
     class="StaffLines"
     points="28.3465,172.205 566.929,172.205"
     id="polyline24"
     style="fill:none;stroke:#000000;stroke-width:0.40000001;stroke-linejoin:bevel"
     transform="translate(-26.5865,-54.6324)" />
  <polyline
     class="StaffLines"
     points="28.3465,177.165 566.929,177.165"
     id="polyline26"
     style="fill:none;stroke:#000000;stroke-width:0.40000001;stroke-linejoin:bevel"
     transform="translate(-26.5865,-54.6324)" />
  <path
     class="Text"
     d="m 0.232,91.3516 -0.024,-0.16 c 0.608,-0.107 1.124,-0.366 1.548,-0.776 0.424,-0.411 0.7186,-0.942 0.884,-1.592 -0.3947,0.304 -0.7947,0.456 -1.2,0.456 -0.432,0 -0.78,-0.15 -1.044,-0.448 C 0.132,88.5326 0,88.1406 0,87.6556 c 0,-0.539 0.1586,-0.988 0.476,-1.348 0.3173,-0.36 0.7133,-0.54 1.188,-0.54 0.5173,0 0.9413,0.21 1.272,0.632 0.3306,0.421 0.496,0.962 0.496,1.624 0,0.213 -0.0187,0.432 -0.056,0.656 -0.0374,0.224 -0.124,0.489 -0.26,0.796 -0.136,0.306 -0.3134,0.581 -0.532,0.824 -0.2187,0.242 -0.5307,0.462 -0.936,0.66 -0.4054,0.197 -0.8774,0.328 -1.416,0.392 m 1.496,-2.416 c 0.1013,0 0.216,-0.015 0.344,-0.044 0.128,-0.03 0.2573,-0.094 0.388,-0.192 0.1306,-0.099 0.196,-0.22 0.196,-0.364 l 0,-0.312 c 0,-1.355 -0.352,-2.032 -1.056,-2.032 -0.1654,0 -0.3067,0.044 -0.424,0.132 -0.1174,0.088 -0.2067,0.204 -0.268,0.348 -0.0614,0.144 -0.1054,0.29 -0.132,0.44 -0.0267,0.149 -0.04,0.306 -0.04,0.472 0,0.474 0.0893,0.852 0.268,1.132 0.1786,0.28 0.42,0.42 0.724,0.42"
     id="path28"
     inkscape:connector-curvature="0" />
  <polyline
     class="BarLine"
     points="562.068,157.323 562.068,177.165"
     id="polyline30"
     style="fill:none;stroke:#000000;stroke-width:0.79000002;stroke-linejoin:bevel"
     transform="translate(-26.5865,-54.6324)" />
  <polyline
     class="BarLine"
     points="565.689,157.323 565.689,177.165"
     id="polyline32"
     style="fill:none;stroke:#000000;stroke-width:2.48000002;stroke-linejoin:bevel"
     transform="translate(-26.5865,-54.6324)" />
  <polyline
     class="BarLine"
     points="522.661,157.323 522.661,177.165"
     id="polyline34"
     style="fill:none;stroke:#000000;stroke-width:0.79000002;stroke-linejoin:bevel"
     transform="translate(-26.5865,-54.6324)" />
  <polyline
     class="BarLine"
     points="410.201,157.323 410.201,177.165"
     id="polyline36"
     style="fill:none;stroke:#000000;stroke-width:0.79000002;stroke-linejoin:bevel"
     transform="translate(-26.5865,-54.6324)" />
  <polyline
     class="BarLine"
     points="299.658,157.323 299.658,177.165"
     id="polyline38"
     style="fill:none;stroke:#000000;stroke-width:0.79000002;stroke-linejoin:bevel"
     transform="translate(-26.5865,-54.6324)" />
  <polyline
     class="BarLine"
     points="164.331,157.323 164.331,177.165"
     id="polyline40"
     style="fill:none;stroke:#000000;stroke-width:0.79000002;stroke-linejoin:bevel"
     transform="translate(-26.5865,-54.6324)" />
  <polyline
     class="BarLine"
     points="566.532,63.0709 566.532,82.9134"
     id="polyline42"
     style="fill:none;stroke:#000000;stroke-width:0.79000002;stroke-linejoin:bevel"
     transform="translate(-26.5865,-54.6324)" />
  <polyline
     class="BarLine"
     points="513.98,63.0709 513.98,82.9134"
     id="polyline44"
     style="fill:none;stroke:#000000;stroke-width:0.79000002;stroke-linejoin:bevel"
     transform="translate(-26.5865,-54.6324)" />
  <polyline
     class="BarLine"
     points="453.029,63.0709 453.029,82.9134"
     id="polyline46"
     style="fill:none;stroke:#000000;stroke-width:0.79000002;stroke-linejoin:bevel"
     transform="translate(-26.5865,-54.6324)" />
  <polyline
     class="BarLine"
     points="392.902,63.0709 392.902,82.9134"
     id="polyline48"
     style="fill:none;stroke:#000000;stroke-width:0.79000002;stroke-linejoin:bevel"
     transform="translate(-26.5865,-54.6324)" />
  <polyline
     class="BarLine"
     points="332.702,63.0709 332.702,82.9134"
     id="polyline50"
     style="fill:none;stroke:#000000;stroke-width:0.79000002;stroke-linejoin:bevel"
     transform="translate(-26.5865,-54.6324)" />
  <polyline
     class="BarLine"
     points="280.15,63.0709 280.15,82.9134"
     id="polyline52"
     style="fill:none;stroke:#000000;stroke-width:0.79000002;stroke-linejoin:bevel"
     transform="translate(-26.5865,-54.6324)" />
  <polyline
     class="BarLine"
     points="203.905,63.0709 203.905,82.9134"
     id="polyline54"
     style="fill:none;stroke:#000000;stroke-width:0.79000002;stroke-linejoin:bevel"
     transform="translate(-26.5865,-54.6324)" />
  <polyline
     class="BarLine"
     points="122.888,63.0709 122.888,82.9134"
     id="polyline56"
     style="fill:none;stroke:#000000;stroke-width:0.79000002;stroke-linejoin:bevel"
     transform="translate(-26.5865,-54.6324)" />
  <path
     class="Accidental"
     d="m 499.9685,104.3506 0,1.543 c 0,0.547 0.026,0.983 0.079,1.308 0.429,-0.364 0.735,-0.638 0.918,-0.82 0.208,-0.208 0.416,-0.495 0.625,-0.859 0.208,-0.365 0.312,-0.729 0.312,-1.094 0,-0.365 -0.078,-0.677 -0.234,-0.938 -0.157,-0.26 -0.365,-0.39 -0.625,-0.39 -0.313,0 -0.573,0.117 -0.782,0.351 -0.195,0.261 -0.293,0.56 -0.293,0.899 m -0.82,3.574 -0.254,-11.894 c 0.182,-0.105 0.365,-0.157 0.547,-0.157 0.182,0 0.365,0.052 0.547,0.157 l -0.156,6.894 c 0.534,-0.456 1.146,-0.684 1.836,-0.684 0.507,0 0.931,0.209 1.269,0.625 0.339,0.417 0.508,0.892 0.508,1.426 0,0.339 -0.111,0.697 -0.332,1.074 -0.208,0.352 -0.43,0.625 -0.664,0.821 -0.13,0.104 -0.462,0.364 -0.996,0.781 -0.156,0.117 -0.342,0.254 -0.557,0.41 -0.215,0.156 -0.348,0.254 -0.4,0.293 -0.091,0.052 -0.176,0.156 -0.254,0.313 -0.091,0.13 -0.195,0.241 -0.313,0.332 -0.091,0.078 -0.201,0.117 -0.332,0.117 -0.13,0 -0.234,-0.046 -0.312,-0.137 -0.091,-0.091 -0.137,-0.215 -0.137,-0.371"
     id="path58"
     inkscape:connector-curvature="0" />
  <path
     class="Accidental"
     d="m 387.5085,111.7916 0,1.543 c 0,0.547 0.026,0.983 0.078,1.308 0.43,-0.364 0.736,-0.638 0.918,-0.82 0.209,-0.208 0.417,-0.495 0.625,-0.859 0.209,-0.365 0.313,-0.73 0.313,-1.094 0,-0.365 -0.078,-0.677 -0.234,-0.938 -0.157,-0.26 -0.365,-0.39 -0.625,-0.39 -0.313,0 -0.573,0.117 -0.782,0.351 -0.195,0.261 -0.293,0.56 -0.293,0.899 m -0.82,3.574 -0.254,-11.895 c 0.182,-0.104 0.365,-0.156 0.547,-0.156 0.182,0 0.365,0.052 0.547,0.156 l -0.156,6.895 c 0.533,-0.456 1.145,-0.684 1.836,-0.684 0.507,0 0.931,0.209 1.269,0.625 0.339,0.417 0.508,0.892 0.508,1.426 0,0.339 -0.111,0.697 -0.332,1.074 -0.208,0.352 -0.43,0.625 -0.664,0.821 -0.13,0.104 -0.462,0.364 -0.996,0.781 -0.157,0.117 -0.342,0.254 -0.557,0.41 -0.215,0.156 -0.348,0.254 -0.4,0.293 -0.091,0.052 -0.176,0.156 -0.254,0.313 -0.091,0.13 -0.196,0.24 -0.313,0.332 -0.091,0.078 -0.202,0.117 -0.332,0.117 -0.13,0 -0.234,-0.046 -0.312,-0.137 -0.091,-0.091 -0.137,-0.215 -0.137,-0.371"
     id="path60"
     inkscape:connector-curvature="0" />
  <path
     class="Accidental"
     d="m 249.0675,112.5526 c 0.169,-0.091 0.338,-0.137 0.507,-0.137 0.17,0 0.339,0.046 0.508,0.137 l -0.058,3.652 2.129,-0.39 0.078,0 c 0.234,0 0.351,0.11 0.351,0.332 l 0.137,11.406 c -0.169,0.091 -0.339,0.137 -0.508,0.137 -0.169,0 -0.338,-0.046 -0.508,-0.137 l 0.059,-3.652 -2.109,0.39 -0.079,0 c -0.234,0 -0.351,-0.11 -0.351,-0.332 l -0.156,-11.406 m 2.715,9.395 0.058,-4.141 -1.836,0.352 -0.058,4.14 1.836,-0.351"
     id="path62"
     inkscape:connector-curvature="0" />
  <path
     class="Accidental"
     d="m 31.512,126.2836 c 0,0.247 -0.1237,0.371 -0.3711,0.371 -0.2474,0 -0.3711,-0.124 -0.3711,-0.371 l 0,-2.891 -1.6602,0.625 0,3.164 c 0,0.247 -0.1236,0.371 -0.371,0.371 -0.2474,0 -0.3711,-0.124 -0.3711,-0.371 l 0,-2.91 -0.625,0.234 c -0.0131,0.013 -0.0651,0.02 -0.1563,0.02 -0.1042,0 -0.1953,-0.039 -0.2734,-0.117 -0.0782,-0.079 -0.1172,-0.17 -0.1172,-0.274 l 0,-1.211 c 0,-0.195 0.0846,-0.319 0.2539,-0.371 l 0.918,-0.312 0,-3.204 -0.625,0.215 c -0.0131,0.013 -0.0651,0.02 -0.1563,0.02 -0.1042,0 -0.1953,-0.039 -0.2734,-0.117 -0.0782,-0.079 -0.1172,-0.17 -0.1172,-0.274 l 0,-1.211 c 0,-0.182 0.0846,-0.299 0.2539,-0.351 l 0.918,-0.352 0,-3.144 c 0,-0.248 0.1237,-0.372 0.3711,-0.372 0.2474,0 0.371,0.124 0.371,0.372 l 0,2.89 1.6602,-0.625 0,-3.164 c 0,-0.247 0.1237,-0.371 0.3711,-0.371 0.2474,0 0.3711,0.124 0.3711,0.371 l 0,2.91 0.6445,-0.234 c 0.013,-0.013 0.0586,-0.02 0.1367,-0.02 0.0912,0 0.1888,0.039 0.293,0.118 0.0781,0.078 0.1172,0.169 0.1172,0.273 l 0,1.211 c 0,0.182 -0.0911,0.306 -0.2734,0.371 l -0.918,0.313 0,3.203 0.6445,-0.215 c 0.013,-0.013 0.0586,-0.02 0.1367,-0.02 0.0912,0 0.1888,0.039 0.293,0.117 0.0781,0.079 0.1172,0.17 0.1172,0.274 l 0,1.211 c 0,0.169 -0.0911,0.286 -0.2734,0.351 l -0.918,0.352 0,3.145 m -0.7422,-8.125 -1.6602,0.585 0,3.204 1.6602,-0.586 0,-3.203"
     id="path64"
     inkscape:connector-curvature="0" />
  <path
     class="Accidental"
     d="m 494.6855,32.0311 c 0,0.2474 -0.123,0.3711 -0.371,0.3711 -0.247,0 -0.371,-0.1237 -0.371,-0.3711 l 0,-2.8906 -1.66,0.625 0,3.1641 c 0,0.2474 -0.124,0.3711 -0.371,0.3711 -0.248,0 -0.371,-0.1237 -0.371,-0.3711 l 0,-2.9102 -0.625,0.2344 c -0.013,0.013 -0.065,0.0195 -0.156,0.0195 -0.105,0 -0.196,-0.039 -0.274,-0.1172 -0.078,-0.0781 -0.117,-0.1692 -0.117,-0.2734 l 0,-1.2109 c 0,-0.1953 0.085,-0.319 0.254,-0.3711 l 0.918,-0.3125 0,-3.2032 -0.625,0.2149 c -0.013,0.013 -0.065,0.0195 -0.156,0.0195 -0.105,0 -0.196,-0.039 -0.274,-0.1172 -0.078,-0.0781 -0.117,-0.1692 -0.117,-0.2734 l 0,-1.2109 c 0,-0.1823 0.085,-0.2995 0.254,-0.3516 l 0.918,-0.3516 0,-3.1445 c 0,-0.2474 0.123,-0.3711 0.371,-0.3711 0.247,0 0.371,0.1237 0.371,0.3711 l 0,2.8906 1.66,-0.625 0,-3.164 c 0,-0.2474 0.124,-0.3711 0.371,-0.3711 0.248,0 0.371,0.1237 0.371,0.3711 l 0,2.9101 0.645,-0.2344 c 0.013,-0.013 0.058,-0.0195 0.137,-0.0195 0.091,0 0.188,0.0391 0.293,0.1172 0.078,0.0781 0.117,0.1693 0.117,0.2734 l 0,1.211 c 0,0.1823 -0.091,0.306 -0.274,0.3711 l -0.918,0.3125 0,3.2031 0.645,-0.2148 c 0.013,-0.0131 0.058,-0.0196 0.137,-0.0196 0.091,0 0.188,0.0391 0.293,0.1172 0.078,0.0781 0.117,0.1693 0.117,0.2734 l 0,1.211 c 0,0.1693 -0.091,0.2864 -0.274,0.3515 l -0.918,0.3516 0,3.1445 m -0.742,-8.125 -1.66,0.586 0,3.2031 1.66,-0.5859 0,-3.2032"
     id="path66"
     inkscape:connector-curvature="0" />
  <path
     class="Accidental"
     d="m 387.9615,39.4721 c 0,0.2474 -0.123,0.3711 -0.371,0.3711 -0.247,0 -0.371,-0.1237 -0.371,-0.3711 l 0,-2.8906 -1.66,0.625 0,3.164 c 0,0.2474 -0.124,0.3711 -0.371,0.3711 -0.247,0 -0.371,-0.1237 -0.371,-0.3711 l 0,-2.9101 -0.625,0.2343 c -0.013,0.0131 -0.065,0.0196 -0.156,0.0196 -0.105,0 -0.196,-0.0391 -0.274,-0.1172 -0.078,-0.0781 -0.117,-0.1693 -0.117,-0.2735 l 0,-1.2109 c 0,-0.1953 0.085,-0.319 0.254,-0.3711 l 0.918,-0.3125 0,-3.2031 -0.625,0.2148 c -0.013,0.0131 -0.065,0.0196 -0.156,0.0196 -0.105,0 -0.196,-0.0391 -0.274,-0.1172 -0.078,-0.0781 -0.117,-0.1693 -0.117,-0.2735 l 0,-1.2109 c 0,-0.1823 0.085,-0.2995 0.254,-0.3516 l 0.918,-0.3515 0,-3.1446 c 0,-0.2473 0.124,-0.371 0.371,-0.371 0.247,0 0.371,0.1237 0.371,0.371 l 0,2.8907 1.66,-0.625 0,-3.1641 c 0,-0.2474 0.124,-0.3711 0.371,-0.3711 0.248,0 0.371,0.1237 0.371,0.3711 l 0,2.9102 0.645,-0.2344 c 0.013,-0.013 0.059,-0.0195 0.137,-0.0195 0.091,0 0.188,0.039 0.293,0.1171 0.078,0.0782 0.117,0.1693 0.117,0.2735 l 0,1.2109 c 0,0.1823 -0.091,0.306 -0.274,0.3711 l -0.918,0.3125 0,3.2031 0.645,-0.2148 c 0.013,-0.013 0.059,-0.0195 0.137,-0.0195 0.091,0 0.188,0.039 0.293,0.1172 0.078,0.0781 0.117,0.1692 0.117,0.2734 l 0,1.2109 c 0,0.1693 -0.091,0.2865 -0.274,0.3516 l -0.918,0.3516 0,3.1445 m -0.742,-8.125 -1.66,0.5859 0,3.2031 1.66,-0.5859 0,-3.2031"
     id="path68"
     inkscape:connector-curvature="0" />
  <path
     class="Accidental"
     d="m 370.2105,27.4607 0,1.5429 c 0,0.5469 0.026,0.9831 0.078,1.3086 0.43,-0.3645 0.735,-0.638 0.918,-0.8203 0.208,-0.2083 0.416,-0.4948 0.625,-0.8594 0.208,-0.3645 0.312,-0.7291 0.312,-1.0937 0,-0.3646 -0.078,-0.6771 -0.234,-0.9375 -0.156,-0.2604 -0.365,-0.3906 -0.625,-0.3906 -0.313,0 -0.573,0.1172 -0.781,0.3515 -0.196,0.2605 -0.293,0.5599 -0.293,0.8985 m -0.821,3.5742 -0.254,-11.8945 c 0.183,-0.1042 0.365,-0.1563 0.547,-0.1563 0.183,0 0.365,0.0521 0.547,0.1563 l -0.156,6.8945 c 0.534,-0.4557 1.146,-0.6836 1.836,-0.6836 0.508,0 0.931,0.2083 1.269,0.625 0.339,0.4167 0.508,0.8919 0.508,1.4258 0,0.3385 -0.11,0.6966 -0.332,1.0742 -0.208,0.3516 -0.429,0.625 -0.664,0.8203 -0.13,0.1042 -0.462,0.3646 -0.996,0.7813 -0.156,0.1171 -0.342,0.2539 -0.557,0.4101 -0.214,0.1563 -0.348,0.2539 -0.4,0.293 -0.091,0.0521 -0.176,0.1562 -0.254,0.3125 -0.091,0.1302 -0.195,0.2409 -0.312,0.332 -0.092,0.0781 -0.202,0.1172 -0.332,0.1172 -0.131,0 -0.235,-0.0456 -0.313,-0.1367 -0.091,-0.0912 -0.137,-0.2149 -0.137,-0.3711"
     id="path70"
     inkscape:connector-curvature="0" />
  <path
     class="Accidental"
     d="m 335.8505,32.0311 c 0,0.2474 -0.123,0.3711 -0.371,0.3711 -0.247,0 -0.371,-0.1237 -0.371,-0.3711 l 0,-2.8906 -1.66,0.625 0,3.1641 c 0,0.2474 -0.124,0.3711 -0.371,0.3711 -0.247,0 -0.371,-0.1237 -0.371,-0.3711 l 0,-2.9102 -0.625,0.2344 c -0.013,0.013 -0.065,0.0195 -0.156,0.0195 -0.105,0 -0.196,-0.039 -0.274,-0.1172 -0.078,-0.0781 -0.117,-0.1692 -0.117,-0.2734 l 0,-1.2109 c 0,-0.1953 0.085,-0.319 0.254,-0.3711 l 0.918,-0.3125 0,-3.2032 -0.625,0.2149 c -0.013,0.013 -0.065,0.0195 -0.156,0.0195 -0.105,0 -0.196,-0.039 -0.274,-0.1172 -0.078,-0.0781 -0.117,-0.1692 -0.117,-0.2734 l 0,-1.2109 c 0,-0.1823 0.085,-0.2995 0.254,-0.3516 l 0.918,-0.3516 0,-3.1445 c 0,-0.2474 0.124,-0.3711 0.371,-0.3711 0.247,0 0.371,0.1237 0.371,0.3711 l 0,2.8906 1.66,-0.625 0,-3.164 c 0,-0.2474 0.124,-0.3711 0.371,-0.3711 0.248,0 0.371,0.1237 0.371,0.3711 l 0,2.9101 0.645,-0.2344 c 0.013,-0.013 0.058,-0.0195 0.137,-0.0195 0.091,0 0.188,0.0391 0.293,0.1172 0.078,0.0781 0.117,0.1693 0.117,0.2734 l 0,1.211 c 0,0.1823 -0.091,0.306 -0.274,0.3711 l -0.918,0.3125 0,3.2031 0.645,-0.2148 c 0.013,-0.0131 0.058,-0.0196 0.137,-0.0196 0.091,0 0.188,0.0391 0.293,0.1172 0.078,0.0781 0.117,0.1693 0.117,0.2734 l 0,1.211 c 0,0.1693 -0.091,0.2864 -0.274,0.3515 l -0.918,0.3516 0,3.1445 m -0.742,-8.125 -1.66,0.586 0,3.2031 1.66,-0.5859 0,-3.2032"
     id="path72"
     inkscape:connector-curvature="0" />
  <path
     class="Accidental"
     d="m 313.4085,29.5508 c 0,0.2474 -0.123,0.3711 -0.371,0.3711 -0.247,0 -0.371,-0.1237 -0.371,-0.3711 l 0,-2.8906 -1.66,0.625 0,3.1641 c 0,0.2474 -0.124,0.3711 -0.371,0.3711 -0.248,0 -0.371,-0.1237 -0.371,-0.3711 l 0,-2.9102 -0.625,0.2344 c -0.013,0.013 -0.065,0.0195 -0.157,0.0195 -0.104,0 -0.195,-0.0391 -0.273,-0.1172 -0.078,-0.0781 -0.117,-0.1692 -0.117,-0.2734 l 0,-1.211 c 0,-0.1953 0.084,-0.319 0.254,-0.371 l 0.918,-0.3125 0,-3.2032 -0.625,0.2149 c -0.013,0.013 -0.065,0.0195 -0.157,0.0195 -0.104,0 -0.195,-0.0391 -0.273,-0.1172 -0.078,-0.0781 -0.117,-0.1693 -0.117,-0.2734 l 0,-1.211 c 0,-0.1822 0.084,-0.2994 0.254,-0.3515 l 0.918,-0.3516 0,-3.1445 c 0,-0.2474 0.123,-0.3711 0.371,-0.3711 0.247,0 0.371,0.1237 0.371,0.3711 l 0,2.8906 1.66,-0.625 0,-3.1641 c 0,-0.2473 0.124,-0.371 0.371,-0.371 0.248,0 0.371,0.1237 0.371,0.371 l 0,2.9102 0.645,-0.2344 c 0.013,-0.013 0.058,-0.0195 0.137,-0.0195 0.091,0 0.188,0.0391 0.292,0.1172 0.079,0.0781 0.118,0.1693 0.118,0.2734 l 0,1.211 c 0,0.1823 -0.091,0.306 -0.274,0.3711 l -0.918,0.3125 0,3.2031 0.645,-0.2149 c 0.013,-0.013 0.058,-0.0195 0.137,-0.0195 0.091,0 0.188,0.0391 0.292,0.1172 0.079,0.0781 0.118,0.1693 0.118,0.2734 l 0,1.211 c 0,0.1692 -0.091,0.2864 -0.274,0.3515 l -0.918,0.3516 0,3.1445 m -0.742,-8.125 -1.66,0.586 0,3.2031 1.66,-0.586 0,-3.2031"
     id="path74"
     inkscape:connector-curvature="0" />
  <path
     class="Accidental"
     d="m 260.8565,22.1099 c 0,0.2474 -0.124,0.3711 -0.372,0.3711 -0.247,0 -0.371,-0.1237 -0.371,-0.3711 l 0,-2.8906 -1.66,0.625 0,3.164 c 0,0.2474 -0.124,0.3711 -0.371,0.3711 -0.247,0 -0.371,-0.1237 -0.371,-0.3711 l 0,-2.9101 -0.625,0.2343 c -0.013,0.0131 -0.065,0.0196 -0.156,0.0196 -0.104,0 -0.196,-0.0391 -0.274,-0.1172 -0.078,-0.0781 -0.117,-0.1693 -0.117,-0.2735 l 0,-1.2109 c 0,-0.1953 0.085,-0.319 0.254,-0.3711 l 0.918,-0.3125 0,-3.2031 -0.625,0.2148 c -0.013,0.0131 -0.065,0.0196 -0.156,0.0196 -0.104,0 -0.196,-0.0391 -0.274,-0.1172 -0.078,-0.0782 -0.117,-0.1693 -0.117,-0.2735 l 0,-1.2109 c 0,-0.1823 0.085,-0.2995 0.254,-0.3516 l 0.918,-0.3515 0,-3.1446 c 0,-0.2474 0.124,-0.3711 0.371,-0.3711 0.247,0 0.371,0.1237 0.371,0.3711 l 0,2.8907 1.66,-0.625 0,-3.1641 c 0,-0.2474 0.124,-0.3711 0.371,-0.3711 0.248,0 0.372,0.1237 0.372,0.3711 l 0,2.9102 0.644,-0.2344 c 0.013,-0.013 0.059,-0.0195 0.137,-0.0195 0.091,0 0.189,0.039 0.293,0.1171 0.078,0.0782 0.117,0.1693 0.117,0.2735 l 0,1.2109 c 0,0.1823 -0.091,0.306 -0.274,0.3711 l -0.917,0.3125 0,3.2031 0.644,-0.2148 c 0.013,-0.013 0.059,-0.0195 0.137,-0.0195 0.091,0 0.189,0.039 0.293,0.1171 0.078,0.0782 0.117,0.1693 0.117,0.2735 l 0,1.2109 c 0,0.1693 -0.091,0.2865 -0.274,0.3516 l -0.917,0.3515 0,3.1446 m -0.743,-8.125 -1.66,0.5859 0,3.2031 1.66,-0.5859 0,-3.2031"
     id="path76"
     inkscape:connector-curvature="0" />
  <path
     class="Accidental"
     d="m 233.5525,22.1099 c 0,0.2474 -0.124,0.3711 -0.371,0.3711 -0.247,0 -0.371,-0.1237 -0.371,-0.3711 l 0,-2.8906 -1.66,0.625 0,3.164 c 0,0.2474 -0.124,0.3711 -0.371,0.3711 -0.248,0 -0.372,-0.1237 -0.372,-0.3711 l 0,-2.9101 -0.625,0.2343 c -0.013,0.0131 -0.065,0.0196 -0.156,0.0196 -0.104,0 -0.195,-0.0391 -0.273,-0.1172 -0.078,-0.0781 -0.117,-0.1693 -0.117,-0.2735 l 0,-1.2109 c 0,-0.1953 0.084,-0.319 0.254,-0.3711 l 0.917,-0.3125 0,-3.2031 -0.625,0.2148 c -0.013,0.0131 -0.065,0.0196 -0.156,0.0196 -0.104,0 -0.195,-0.0391 -0.273,-0.1172 -0.078,-0.0782 -0.117,-0.1693 -0.117,-0.2735 l 0,-1.2109 c 0,-0.1823 0.084,-0.2995 0.254,-0.3516 l 0.917,-0.3515 0,-3.1446 c 0,-0.2474 0.124,-0.3711 0.372,-0.3711 0.247,0 0.371,0.1237 0.371,0.3711 l 0,2.8907 1.66,-0.625 0,-3.1641 c 0,-0.2474 0.124,-0.3711 0.371,-0.3711 0.247,0 0.371,0.1237 0.371,0.3711 l 0,2.9102 0.645,-0.2344 c 0.013,-0.013 0.058,-0.0195 0.136,-0.0195 0.091,0 0.189,0.039 0.293,0.1171 0.078,0.0782 0.117,0.1693 0.117,0.2735 l 0,1.2109 c 0,0.1823 -0.091,0.306 -0.273,0.3711 l -0.918,0.3125 0,3.2031 0.645,-0.2148 c 0.013,-0.013 0.058,-0.0195 0.136,-0.0195 0.091,0 0.189,0.039 0.293,0.1171 0.078,0.0782 0.117,0.1693 0.117,0.2735 l 0,1.2109 c 0,0.1693 -0.091,0.2865 -0.273,0.3516 l -0.918,0.3515 0,3.1446 m -0.742,-8.125 -1.66,0.5859 0,3.2031 1.66,-0.5859 0,-3.2031"
     id="path78"
     inkscape:connector-curvature="0" />
  <path
     class="Accidental"
     d="m 198.8035,29.5508 c 0,0.2474 -0.124,0.3711 -0.371,0.3711 -0.247,0 -0.371,-0.1237 -0.371,-0.3711 l 0,-2.8906 -1.66,0.625 0,3.1641 c 0,0.2474 -0.124,0.3711 -0.371,0.3711 -0.248,0 -0.372,-0.1237 -0.372,-0.3711 l 0,-2.9102 -0.625,0.2344 c -0.013,0.013 -0.065,0.0195 -0.156,0.0195 -0.104,0 -0.195,-0.0391 -0.273,-0.1172 -0.078,-0.0781 -0.117,-0.1692 -0.117,-0.2734 l 0,-1.211 c 0,-0.1953 0.084,-0.319 0.254,-0.371 l 0.917,-0.3125 0,-3.2032 -0.625,0.2149 c -0.013,0.013 -0.065,0.0195 -0.156,0.0195 -0.104,0 -0.195,-0.0391 -0.273,-0.1172 -0.078,-0.0781 -0.117,-0.1693 -0.117,-0.2734 l 0,-1.211 c 0,-0.1822 0.084,-0.2994 0.254,-0.3515 l 0.917,-0.3516 0,-3.1445 c 0,-0.2474 0.124,-0.3711 0.372,-0.3711 0.247,0 0.371,0.1237 0.371,0.3711 l 0,2.8906 1.66,-0.625 0,-3.1641 c 0,-0.2473 0.124,-0.371 0.371,-0.371 0.247,0 0.371,0.1237 0.371,0.371 l 0,2.9102 0.645,-0.2344 c 0.013,-0.013 0.058,-0.0195 0.136,-0.0195 0.091,0 0.189,0.0391 0.293,0.1172 0.078,0.0781 0.117,0.1693 0.117,0.2734 l 0,1.211 c 0,0.1823 -0.091,0.306 -0.273,0.3711 l -0.918,0.3125 0,3.2031 0.645,-0.2149 c 0.013,-0.013 0.058,-0.0195 0.136,-0.0195 0.091,0 0.189,0.0391 0.293,0.1172 0.078,0.0781 0.117,0.1693 0.117,0.2734 l 0,1.211 c 0,0.1692 -0.091,0.2864 -0.273,0.3515 l -0.918,0.3516 0,3.1445 m -0.742,-8.125 -1.66,0.586 0,3.2031 1.66,-0.586 0,-3.2031"
     id="path80"
     inkscape:connector-curvature="0" />
  <path
     class="Accidental"
     d="m 142.8565,22.1099 c 0,0.2474 -0.123,0.3711 -0.371,0.3711 -0.247,0 -0.371,-0.1237 -0.371,-0.3711 l 0,-2.8906 -1.66,0.625 0,3.164 c 0,0.2474 -0.124,0.3711 -0.371,0.3711 -0.247,0 -0.371,-0.1237 -0.371,-0.3711 l 0,-2.9101 -0.625,0.2343 c -0.013,0.0131 -0.065,0.0196 -0.156,0.0196 -0.104,0 -0.196,-0.0391 -0.274,-0.1172 -0.078,-0.0781 -0.117,-0.1693 -0.117,-0.2735 l 0,-1.2109 c 0,-0.1953 0.085,-0.319 0.254,-0.3711 l 0.918,-0.3125 0,-3.2031 -0.625,0.2148 c -0.013,0.0131 -0.065,0.0196 -0.156,0.0196 -0.104,0 -0.196,-0.0391 -0.274,-0.1172 -0.078,-0.0782 -0.117,-0.1693 -0.117,-0.2735 l 0,-1.2109 c 0,-0.1823 0.085,-0.2995 0.254,-0.3516 l 0.918,-0.3515 0,-3.1446 c 0,-0.2474 0.124,-0.3711 0.371,-0.3711 0.247,0 0.371,0.1237 0.371,0.3711 l 0,2.8907 1.66,-0.625 0,-3.1641 c 0,-0.2474 0.124,-0.3711 0.371,-0.3711 0.248,0 0.371,0.1237 0.371,0.3711 l 0,2.9102 0.645,-0.2344 c 0.013,-0.013 0.059,-0.0195 0.137,-0.0195 0.091,0 0.189,0.039 0.293,0.1171 0.078,0.0782 0.117,0.1693 0.117,0.2735 l 0,1.2109 c 0,0.1823 -0.091,0.306 -0.274,0.3711 l -0.918,0.3125 0,3.2031 0.645,-0.2148 c 0.013,-0.013 0.059,-0.0195 0.137,-0.0195 0.091,0 0.189,0.039 0.293,0.1171 0.078,0.0782 0.117,0.1693 0.117,0.2735 l 0,1.2109 c 0,0.1693 -0.091,0.2865 -0.274,0.3516 l -0.918,0.3515 0,3.1446 m -0.742,-8.125 -1.66,0.5859 0,3.2031 1.66,-0.5859 0,-3.2031"
     id="path82"
     inkscape:connector-curvature="0" />
  <path
     class="Accidental"
     d="m 114.5395,8.3794 c 0.169,-0.0911 0.339,-0.1367 0.508,-0.1367 0.169,0 0.339,0.0456 0.508,0.1367 l -0.059,3.6524 2.129,-0.3907 0.078,0 c 0.235,0 0.352,0.1107 0.352,0.3321 l 0.137,11.4062 c -0.17,0.0912 -0.339,0.1367 -0.508,0.1367 -0.17,0 -0.339,-0.0455 -0.508,-0.1367 l 0.059,-3.6523 -2.11,0.3906 -0.078,0 c -0.234,0 -0.352,-0.1107 -0.352,-0.332 l -0.156,-11.4063 m 2.715,9.3945 0.059,-4.1406 -1.836,0.3516 -0.059,4.1406 1.836,-0.3516"
     id="path84"
     inkscape:connector-curvature="0" />
  <path
     class="Accidental"
     d="m 103.5945,22.1099 c 0,0.2474 -0.124,0.3711 -0.371,0.3711 -0.248,0 -0.372,-0.1237 -0.372,-0.3711 l 0,-2.8906 -1.66,0.625 0,3.164 c 0,0.2474 -0.123,0.3711 -0.371,0.3711 -0.247,0 -0.371,-0.1237 -0.371,-0.3711 l 0,-2.9101 -0.625,0.2343 c -0.013,0.0131 -0.065,0.0196 -0.156,0.0196 -0.104,0 -0.195,-0.0391 -0.274,-0.1172 -0.078,-0.0781 -0.117,-0.1693 -0.117,-0.2735 l 0,-1.2109 c 0,-0.1953 0.085,-0.319 0.254,-0.3711 l 0.918,-0.3125 0,-3.2031 -0.625,0.2148 c -0.013,0.0131 -0.065,0.0196 -0.156,0.0196 -0.104,0 -0.195,-0.0391 -0.274,-0.1172 -0.078,-0.0782 -0.117,-0.1693 -0.117,-0.2735 l 0,-1.2109 c 0,-0.1823 0.085,-0.2995 0.254,-0.3516 l 0.918,-0.3515 0,-3.1446 c 0,-0.2474 0.124,-0.3711 0.371,-0.3711 0.248,0 0.371,0.1237 0.371,0.3711 l 0,2.8907 1.66,-0.625 0,-3.1641 c 0,-0.2474 0.124,-0.3711 0.372,-0.3711 0.247,0 0.371,0.1237 0.371,0.3711 l 0,2.9102 0.644,-0.2344 c 0.013,-0.013 0.059,-0.0195 0.137,-0.0195 0.091,0 0.189,0.039 0.293,0.1171 0.078,0.0782 0.117,0.1693 0.117,0.2735 l 0,1.2109 c 0,0.1823 -0.091,0.306 -0.273,0.3711 l -0.918,0.3125 0,3.2031 0.644,-0.2148 c 0.013,-0.013 0.059,-0.0195 0.137,-0.0195 0.091,0 0.189,0.039 0.293,0.1171 0.078,0.0782 0.117,0.1693 0.117,0.2735 l 0,1.2109 c 0,0.1693 -0.091,0.2865 -0.273,0.3516 l -0.918,0.3515 0,3.1446 m -0.743,-8.125 -1.66,0.5859 0,3.2031 1.66,-0.5859 0,-3.2031"
     id="path86"
     inkscape:connector-curvature="0" />
  <path
     class="Accidental"
     d="m 75.5885,10.0985 0,1.5429 c 0,0.5469 0.026,0.9831 0.079,1.3086 0.429,-0.3646 0.735,-0.638 0.917,-0.8203 0.209,-0.2083 0.417,-0.4948 0.625,-0.8594 0.209,-0.3645 0.313,-0.7291 0.313,-1.0937 0,-0.3646 -0.078,-0.6771 -0.234,-0.9375 -0.157,-0.2604 -0.365,-0.3906 -0.625,-0.3906 -0.313,0 -0.573,0.1172 -0.782,0.3515 -0.195,0.2604 -0.293,0.5599 -0.293,0.8985 m -0.82,3.5742 -0.254,-11.8945 c 0.182,-0.1042 0.365,-0.1563 0.547,-0.1563 0.182,0 0.365,0.0521 0.547,0.1563 l -0.156,6.8945 c 0.534,-0.4557 1.146,-0.6836 1.836,-0.6836 0.507,0 0.931,0.2083 1.269,0.625 0.339,0.4167 0.508,0.8919 0.508,1.4258 0,0.3385 -0.111,0.6966 -0.332,1.0742 -0.208,0.3516 -0.43,0.625 -0.664,0.8203 -0.13,0.1042 -0.462,0.3646 -0.996,0.7813 -0.156,0.1171 -0.342,0.2539 -0.557,0.4101 -0.215,0.1563 -0.348,0.2539 -0.4,0.293 -0.091,0.0521 -0.176,0.1562 -0.254,0.3125 -0.091,0.1302 -0.195,0.2409 -0.313,0.332 -0.091,0.0781 -0.201,0.1172 -0.332,0.1172 -0.13,0 -0.234,-0.0456 -0.312,-0.1367 -0.091,-0.0912 -0.137,-0.2149 -0.137,-0.3711"
     id="path88"
     inkscape:connector-curvature="0" />
  <path
     class="Accidental"
     d="m 62.1796,22.1099 c 0,0.2474 -0.1237,0.3711 -0.3711,0.3711 -0.2474,0 -0.3711,-0.1237 -0.3711,-0.3711 l 0,-2.8906 -1.6602,0.625 0,3.164 c 0,0.2474 -0.1237,0.3711 -0.3711,0.3711 -0.2473,0 -0.371,-0.1237 -0.371,-0.3711 l 0,-2.9101 -0.625,0.2343 c -0.0131,0.0131 -0.0651,0.0196 -0.1563,0.0196 -0.1042,0 -0.1953,-0.0391 -0.2734,-0.1172 -0.0782,-0.0781 -0.1172,-0.1693 -0.1172,-0.2735 l 0,-1.2109 c 0,-0.1953 0.0846,-0.319 0.2539,-0.3711 l 0.918,-0.3125 0,-3.2031 -0.625,0.2148 c -0.0131,0.0131 -0.0651,0.0196 -0.1563,0.0196 -0.1042,0 -0.1953,-0.0391 -0.2734,-0.1172 -0.0782,-0.0782 -0.1172,-0.1693 -0.1172,-0.2735 l 0,-1.2109 c 0,-0.1823 0.0846,-0.2995 0.2539,-0.3516 l 0.918,-0.3515 0,-3.1446 c 0,-0.2474 0.1237,-0.3711 0.371,-0.3711 0.2474,0 0.3711,0.1237 0.3711,0.3711 l 0,2.8907 1.6602,-0.625 0,-3.1641 c 0,-0.2474 0.1237,-0.3711 0.3711,-0.3711 0.2474,0 0.3711,0.1237 0.3711,0.3711 l 0,2.9102 0.6445,-0.2344 c 0.013,-0.013 0.0586,-0.0195 0.1367,-0.0195 0.0912,0 0.1888,0.039 0.293,0.1171 0.0781,0.0782 0.1172,0.1693 0.1172,0.2735 l 0,1.2109 c 0,0.1823 -0.0912,0.306 -0.2734,0.3711 l -0.918,0.3125 0,3.2031 0.6445,-0.2148 c 0.013,-0.013 0.0586,-0.0195 0.1367,-0.0195 0.0912,0 0.1888,0.039 0.293,0.1171 0.0781,0.0782 0.1172,0.1693 0.1172,0.2735 l 0,1.2109 c 0,0.1693 -0.0912,0.2865 -0.2734,0.3516 l -0.918,0.3515 0,3.1446 m -0.7422,-8.125 -1.6602,0.5859 0,3.2031 1.6602,-0.5859 0,-3.2031"
     id="path90"
     inkscape:connector-curvature="0" />
  <polyline
     class="Stem"
     points="531.451,160.735 531.451,177.165"
     id="polyline92"
     style="fill:none;stroke:#000000;stroke-width:0.63999999;stroke-linecap:round;stroke-linejoin:bevel"
     transform="translate(-26.5865,-54.6324)" />
  <polyline
     class="Stem"
     points="493.86,163.215 493.86,179.026"
     id="polyline94"
     style="fill:none;stroke:#000000;stroke-width:0.63999999;stroke-linecap:round;stroke-linejoin:bevel"
     transform="translate(-26.5865,-54.6324)" />
  <polyline
     class="Stem"
     points="465.133,165.695 465.133,180.886"
     id="polyline96"
     style="fill:none;stroke:#000000;stroke-width:0.63999999;stroke-linecap:round;stroke-linejoin:bevel"
     transform="translate(-26.5865,-54.6324)" />
  <polyline
     class="Stem"
     points="418.991,168.022 418.991,182.746"
     id="polyline98"
     style="fill:none;stroke:#000000;stroke-width:0.63999999;stroke-linecap:round;stroke-linejoin:bevel"
     transform="translate(-26.5865,-54.6324)" />
  <polyline
     class="Stem"
     points="380.9,168.793 380.9,153.602"
     id="polyline100"
     style="fill:none;stroke:#000000;stroke-width:0.63999999;stroke-linecap:round;stroke-linejoin:bevel"
     transform="translate(-26.5865,-54.6324)" />
  <polyline
     class="Stem"
     points="312.574,171.443 312.574,155.463"
     id="polyline102"
     style="fill:none;stroke:#000000;stroke-width:0.63999999;stroke-linecap:round;stroke-linejoin:bevel"
     transform="translate(-26.5865,-54.6324)" />
  <polyline
     class="Stem"
     points="286.561,173.753 286.561,161.043"
     id="polyline104"
     style="fill:none;stroke:#000000;stroke-width:0.63999999;stroke-linecap:round;stroke-linejoin:bevel"
     transform="translate(-26.5865,-54.6324)" />
  <polyline
     class="Stem"
     points="267.652,178.714 267.652,163.524"
     id="polyline106"
     style="fill:none;stroke:#000000;stroke-width:0.63999999;stroke-linecap:round;stroke-linejoin:bevel"
     transform="translate(-26.5865,-54.6324)" />
  <polyline
     class="Stem"
     points="237.397,181.194 237.397,164.764"
     id="polyline108"
     style="fill:none;stroke:#000000;stroke-width:0.63999999;stroke-linecap:round;stroke-linejoin:bevel"
     transform="translate(-26.5865,-54.6324)" />
  <polyline
     class="Stem"
     points="207.143,178.714 207.143,162.283"
     id="polyline110"
     style="fill:none;stroke:#000000;stroke-width:0.63999999;stroke-linecap:round;stroke-linejoin:bevel"
     transform="translate(-26.5865,-54.6324)" />
  <polyline
     class="Stem"
     points="176.889,178.714 176.889,162.283"
     id="polyline112"
     style="fill:none;stroke:#000000;stroke-width:0.63999999;stroke-linecap:round;stroke-linejoin:bevel"
     transform="translate(-26.5865,-54.6324)" />
  <polyline
     class="Stem"
     points="141.366,176.234 141.366,159.803"
     id="polyline114"
     style="fill:none;stroke:#000000;stroke-width:0.63999999;stroke-linecap:round;stroke-linejoin:bevel"
     transform="translate(-26.5865,-54.6324)" />
  <polyline
     class="Stem"
     points="95.5021,176.403 95.5021,159.803"
     id="polyline116"
     style="fill:none;stroke:#000000;stroke-width:0.63999999;stroke-linecap:round;stroke-linejoin:bevel"
     transform="translate(-26.5865,-54.6324)" />
  <polyline
     class="Stem"
     points="66.5464,173.753 66.5464,157.323"
     id="polyline118"
     style="fill:none;stroke:#000000;stroke-width:0.63999999;stroke-linecap:round;stroke-linejoin:bevel"
     transform="translate(-26.5865,-54.6324)" />
  <polyline
     class="Stem"
     points="553.579,82.1514 553.579,65.5512"
     id="polyline120"
     style="fill:none;stroke:#000000;stroke-width:0.63999999;stroke-linecap:round;stroke-linejoin:bevel"
     transform="translate(-26.5865,-54.6324)" />
  <polyline
     class="Stem"
     points="541.56,81.9817 541.56,65.5512"
     id="polyline122"
     style="fill:none;stroke:#000000;stroke-width:0.63999999;stroke-linecap:round;stroke-linejoin:bevel"
     transform="translate(-26.5865,-54.6324)" />
  <polyline
     class="Stem"
     points="529.72,79.5014 529.72,63.0709"
     id="polyline124"
     style="fill:none;stroke:#000000;stroke-width:0.63999999;stroke-linecap:round;stroke-linejoin:bevel"
     transform="translate(-26.5865,-54.6324)" />
  <polyline
     class="Stem"
     points="506.24,77.0211 506.24,61.2106"
     id="polyline126"
     style="fill:none;stroke:#000000;stroke-width:0.63999999;stroke-linecap:round;stroke-linejoin:bevel"
     transform="translate(-26.5865,-54.6324)" />
  <polyline
     class="Stem"
     points="492.689,74.5408 492.689,59.3504"
     id="polyline128"
     style="fill:none;stroke:#000000;stroke-width:0.63999999;stroke-linecap:round;stroke-linejoin:bevel"
     transform="translate(-26.5865,-54.6324)" />
  <polyline
     class="Stem"
     points="479.138,77.0211 479.138,61.2106"
     id="polyline130"
     style="fill:none;stroke:#000000;stroke-width:0.63999999;stroke-linecap:round;stroke-linejoin:bevel"
     transform="translate(-26.5865,-54.6324)" />
  <polyline
     class="Stem"
     points="465.588,79.5014 465.588,63.0709"
     id="polyline132"
     style="fill:none;stroke:#000000;stroke-width:0.63999999;stroke-linecap:round;stroke-linejoin:bevel"
     transform="translate(-26.5865,-54.6324)" />
  <polyline
     class="Stem"
     points="445.505,81.9817 445.505,65.5512"
     id="polyline134"
     style="fill:none;stroke:#000000;stroke-width:0.63999999;stroke-linecap:round;stroke-linejoin:bevel"
     transform="translate(-26.5865,-54.6324)" />
  <polyline
     class="Stem"
     points="424.347,87.1121 424.347,70.5118"
     id="polyline136"
     style="fill:none;stroke:#000000;stroke-width:0.63999999;stroke-linecap:round;stroke-linejoin:bevel"
     transform="translate(-26.5865,-54.6324)" />
  <polyline
     class="Stem"
     points="407.578,81.9817 407.578,65.5512"
     id="polyline138"
     style="fill:none;stroke:#000000;stroke-width:0.63999999;stroke-linecap:round;stroke-linejoin:bevel"
     transform="translate(-26.5865,-54.6324)" />
  <polyline
     class="Stem"
     points="384.8,81.9817 384.8,65.5512"
     id="polyline140"
     style="fill:none;stroke:#000000;stroke-width:0.63999999;stroke-linecap:round;stroke-linejoin:bevel"
     transform="translate(-26.5865,-54.6324)" />
  <polyline
     class="Stem"
     points="370.885,79.5014 370.885,63.0709"
     id="polyline142"
     style="fill:none;stroke:#000000;stroke-width:0.63999999;stroke-linecap:round;stroke-linejoin:bevel"
     transform="translate(-26.5865,-54.6324)" />
  <polyline
     class="Stem"
     points="348.801,77.1908 348.801,61.2106"
     id="polyline144"
     style="fill:none;stroke:#000000;stroke-width:0.63999999;stroke-linecap:round;stroke-linejoin:bevel"
     transform="translate(-26.5865,-54.6324)" />
  <polyline
     class="Stem"
     points="319.749,74.7105 319.749,59.3504"
     id="polyline146"
     style="fill:none;stroke:#000000;stroke-width:0.63999999;stroke-linecap:round;stroke-linejoin:bevel"
     transform="translate(-26.5865,-54.6324)" />
  <polyline
     class="Stem"
     points="301.844,73.9238 301.844,88.4941"
     id="polyline148"
     style="fill:none;stroke:#000000;stroke-width:0.63999999;stroke-linecap:round;stroke-linejoin:bevel"
     transform="translate(-26.5865,-54.6324)" />
  <polyline
     class="Stem"
     points="290.004,71.4435 290.004,86.6339"
     id="polyline150"
     style="fill:none;stroke:#000000;stroke-width:0.63999999;stroke-linecap:round;stroke-linejoin:bevel"
     transform="translate(-26.5865,-54.6324)" />
  <polyline
     class="Stem"
     points="262.701,71.4435 262.701,86.6339"
     id="polyline152"
     style="fill:none;stroke:#000000;stroke-width:0.63999999;stroke-linecap:round;stroke-linejoin:bevel"
     transform="translate(-26.5865,-54.6324)" />
  <polyline
     class="Stem"
     points="251.212,74.5408 251.212,59.3504"
     id="polyline154"
     style="fill:none;stroke:#000000;stroke-width:0.63999999;stroke-linecap:round;stroke-linejoin:bevel"
     transform="translate(-26.5865,-54.6324)" />
  <polyline
     class="Stem"
     points="233.838,77.0211 233.838,61.2106"
     id="polyline156"
     style="fill:none;stroke:#000000;stroke-width:0.63999999;stroke-linecap:round;stroke-linejoin:bevel"
     transform="translate(-26.5865,-54.6324)" />
  <polyline
     class="Stem"
     points="210.577,66.4829 210.577,82.9134"
     id="polyline158"
     style="fill:none;stroke:#000000;stroke-width:0.63999999;stroke-linecap:round;stroke-linejoin:bevel"
     transform="translate(-26.5865,-54.6324)" />
  <polyline
     class="Stem"
     points="187.918,68.9632 187.918,84.7736"
     id="polyline160"
     style="fill:none;stroke:#000000;stroke-width:0.63999999;stroke-linecap:round;stroke-linejoin:bevel"
     transform="translate(-26.5865,-54.6324)" />
  <polyline
     class="Stem"
     points="172.005,71.4435 172.005,86.6339"
     id="polyline162"
     style="fill:none;stroke:#000000;stroke-width:0.63999999;stroke-linecap:round;stroke-linejoin:bevel"
     transform="translate(-26.5865,-54.6324)" />
  <polyline
     class="Stem"
     points="156.092,64.0025 156.092,80.4331"
     id="polyline164"
     style="fill:none;stroke:#000000;stroke-width:0.63999999;stroke-linecap:round;stroke-linejoin:bevel"
     transform="translate(-26.5865,-54.6324)" />
  <polyline
     class="Stem"
     points="146.147,71.4435 146.147,84.1535"
     id="polyline166"
     style="fill:none;stroke:#000000;stroke-width:0.63999999;stroke-linecap:round;stroke-linejoin:bevel"
     transform="translate(-26.5865,-54.6324)" />
  <polyline
     class="Stem"
     points="132.742,71.4435 132.742,84.1535"
     id="polyline168"
     style="fill:none;stroke:#000000;stroke-width:0.63999999;stroke-linecap:round;stroke-linejoin:bevel"
     transform="translate(-26.5865,-54.6324)" />
  <polyline
     class="Stem"
     points="107.071,66.4829 107.071,82.9134"
     id="polyline170"
     style="fill:none;stroke:#000000;stroke-width:0.63999999;stroke-linecap:round;stroke-linejoin:bevel"
     transform="translate(-26.5865,-54.6324)" />
  <polyline
     class="Stem"
     points="91.3279,71.4435 91.3279,86.6339"
     id="polyline172"
     style="fill:none;stroke:#000000;stroke-width:0.63999999;stroke-linecap:round;stroke-linejoin:bevel"
     transform="translate(-26.5865,-54.6324)" />
  <polyline
     class="Stem"
     points="65.9604,73.77 65.9604,88.4941"
     id="polyline174"
     style="fill:none;stroke:#000000;stroke-width:0.63999999;stroke-linecap:round;stroke-linejoin:bevel"
     transform="translate(-26.5865,-54.6324)" />
  <polyline
     class="LedgerLine"
     points="229.701,182.126 239.208,182.126"
     id="polyline176"
     style="fill:none;stroke:#000000;stroke-width:0.79000002;stroke-linecap:square;stroke-linejoin:bevel"
     transform="translate(-26.5865,-54.6324)" />
  <polyline
     class="LedgerLine"
     points="416.292,87.874 426.157,87.874"
     id="polyline178"
     style="fill:none;stroke:#000000;stroke-width:0.79000002;stroke-linecap:square;stroke-linejoin:bevel"
     transform="translate(-26.5865,-54.6324)" />
  <path
     class="Note"
     d="m 508.9365,102.4166 c 0.625,0 1.152,0.163 1.582,0.489 0.403,0.351 0.605,0.794 0.605,1.328 0,0.898 -0.462,1.738 -1.386,2.519 -0.938,0.781 -1.941,1.172 -3.008,1.172 -0.625,0 -1.153,-0.163 -1.582,-0.488 -0.404,-0.352 -0.606,-0.794 -0.606,-1.328 0,-0.899 0.469,-1.739 1.406,-2.52 0.912,-0.781 1.908,-1.172 2.989,-1.172"
     id="path180"
     inkscape:connector-curvature="0" />
  <path
     class="Note"
     d="m 471.3455,104.8976 c 0.625,0 1.152,0.162 1.582,0.488 0.403,0.351 0.605,0.794 0.605,1.328 0,0.898 -0.462,1.738 -1.386,2.519 -0.938,0.782 -1.941,1.172 -3.008,1.172 -0.625,0 -1.153,-0.162 -1.582,-0.488 -0.404,-0.351 -0.606,-0.794 -0.606,-1.328 0,-0.898 0.469,-1.738 1.407,-2.52 0.911,-0.781 1.907,-1.171 2.988,-1.171"
     id="path182"
     inkscape:connector-curvature="0" />
  <path
     class="Note"
     d="m 442.6185,107.3776 c 0.625,0 1.152,0.163 1.582,0.488 0.404,0.352 0.605,0.794 0.605,1.328 0,0.899 -0.462,1.739 -1.386,2.52 -0.938,0.781 -1.94,1.172 -3.008,1.172 -0.625,0 -1.153,-0.163 -1.582,-0.489 -0.404,-0.351 -0.606,-0.794 -0.606,-1.328 0,-0.898 0.469,-1.738 1.407,-2.519 0.911,-0.782 1.907,-1.172 2.988,-1.172"
     id="path184"
     inkscape:connector-curvature="0" />
  <path
     class="Note"
     d="m 398.3905,111.3036 c 0,-0.222 -0.085,-0.411 -0.254,-0.567 -0.169,-0.169 -0.365,-0.254 -0.586,-0.254 -0.391,0 -1.178,0.391 -2.363,1.172 -1.224,0.794 -1.973,1.361 -2.246,1.699 -0.144,0.183 -0.215,0.371 -0.215,0.567 0,0.221 0.084,0.41 0.254,0.566 0.156,0.169 0.351,0.254 0.586,0.254 0.377,0 1.171,-0.391 2.382,-1.172 1.198,-0.781 1.94,-1.348 2.227,-1.699 0.143,-0.169 0.215,-0.358 0.215,-0.566 m -1.035,-1.446 c 1.119,0 1.679,0.482 1.679,1.446 0,0.468 -0.136,1.015 -0.41,1.64 -0.273,0.612 -0.638,1.081 -1.094,1.406 -1.002,0.677 -2.259,1.016 -3.769,1.016 -1.12,0 -1.68,-0.482 -1.68,-1.445 0,-0.43 0.137,-0.97 0.41,-1.621 0.261,-0.625 0.625,-1.101 1.094,-1.426 1.003,-0.677 2.259,-1.016 3.77,-1.016"
     id="path186"
     inkscape:connector-curvature="0" />
  <path
     class="Note"
     d="m 352.4995,112.3386 c 0.625,0 1.152,0.162 1.582,0.488 0.403,0.351 0.605,0.794 0.605,1.328 0,0.898 -0.462,1.738 -1.387,2.519 -0.937,0.782 -1.94,1.172 -3.007,1.172 -0.625,0 -1.153,-0.162 -1.582,-0.488 -0.404,-0.352 -0.606,-0.794 -0.606,-1.328 0,-0.899 0.469,-1.738 1.406,-2.52 0.912,-0.781 1.908,-1.171 2.989,-1.171"
     id="path188"
     inkscape:connector-curvature="0" />
  <path
     class="Note"
     d="m 285.7295,116.2636 c 0,-0.221 -0.085,-0.41 -0.254,-0.566 -0.169,-0.17 -0.365,-0.254 -0.586,-0.254 -0.391,0 -1.178,0.39 -2.363,1.172 -1.224,0.794 -1.973,1.36 -2.246,1.699 -0.143,0.182 -0.215,0.371 -0.215,0.566 0,0.222 0.085,0.41 0.254,0.567 0.156,0.169 0.351,0.254 0.586,0.254 0.377,0 1.172,-0.391 2.383,-1.172 1.197,-0.781 1.94,-1.348 2.226,-1.699 0.143,-0.17 0.215,-0.359 0.215,-0.567 m -1.035,-1.445 c 1.12,0 1.679,0.482 1.679,1.445 0,0.469 -0.136,1.016 -0.41,1.641 -0.273,0.612 -0.638,1.08 -1.093,1.406 -1.003,0.677 -2.26,1.016 -3.77,1.016 -1.12,0 -1.68,-0.482 -1.68,-1.446 0,-0.429 0.137,-0.97 0.411,-1.621 0.26,-0.625 0.625,-1.1 1.093,-1.426 1.003,-0.677 2.259,-1.015 3.77,-1.015"
     id="path190"
     inkscape:connector-curvature="0" />
  <path
     class="Note"
     d="m 258.1605,117.2986 c 0.625,0 1.152,0.163 1.582,0.488 0.403,0.352 0.605,0.795 0.605,1.329 0,0.898 -0.462,1.738 -1.387,2.519 -0.937,0.781 -1.94,1.172 -3.007,1.172 -0.625,0 -1.153,-0.163 -1.583,-0.488 -0.403,-0.352 -0.605,-0.795 -0.605,-1.328 0,-0.899 0.469,-1.739 1.406,-2.52 0.912,-0.781 1.908,-1.172 2.989,-1.172"
     id="path192"
     inkscape:connector-curvature="0" />
  <path
     class="Note"
     d="m 239.2515,122.2596 c 0.625,0 1.152,0.163 1.582,0.488 0.403,0.352 0.605,0.794 0.605,1.328 0,0.899 -0.462,1.738 -1.387,2.52 -0.937,0.781 -1.94,1.172 -3.007,1.172 -0.625,0 -1.153,-0.163 -1.582,-0.489 -0.404,-0.351 -0.606,-0.794 -0.606,-1.328 0,-0.898 0.469,-1.738 1.406,-2.519 0.912,-0.782 1.908,-1.172 2.989,-1.172"
     id="path194"
     inkscape:connector-curvature="0" />
  <path
     class="Note"
     d="m 208.9965,124.7396 c 0.625,0 1.153,0.163 1.582,0.488 0.404,0.352 0.606,0.795 0.606,1.328 0,0.899 -0.462,1.739 -1.387,2.52 -0.937,0.781 -1.94,1.172 -3.008,1.172 -0.625,0 -1.152,-0.163 -1.582,-0.488 -0.403,-0.352 -0.605,-0.795 -0.605,-1.329 0,-0.898 0.469,-1.738 1.406,-2.519 0.912,-0.781 1.908,-1.172 2.988,-1.172"
     id="path196"
     inkscape:connector-curvature="0" />
  <path
     class="Note"
     d="m 178.7425,122.2596 c 0.625,0 1.152,0.163 1.582,0.488 0.404,0.352 0.606,0.794 0.606,1.328 0,0.899 -0.463,1.738 -1.387,2.52 -0.938,0.781 -1.94,1.172 -3.008,1.172 -0.625,0 -1.152,-0.163 -1.582,-0.489 -0.404,-0.351 -0.605,-0.794 -0.605,-1.328 0,-0.898 0.468,-1.738 1.406,-2.519 0.911,-0.782 1.907,-1.172 2.988,-1.172"
     id="path198"
     inkscape:connector-curvature="0" />
  <path
     class="Note"
     d="m 148.4885,122.2596 c 0.625,0 1.152,0.163 1.582,0.488 0.404,0.352 0.605,0.794 0.605,1.328 0,0.899 -0.462,1.738 -1.386,2.52 -0.938,0.781 -1.94,1.172 -3.008,1.172 -0.625,0 -1.152,-0.163 -1.582,-0.489 -0.404,-0.351 -0.606,-0.794 -0.606,-1.328 0,-0.898 0.469,-1.738 1.407,-2.519 0.911,-0.782 1.907,-1.172 2.988,-1.172"
     id="path200"
     inkscape:connector-curvature="0" />
  <path
     class="Note"
     d="m 112.9655,119.7786 c 0.625,0 1.152,0.163 1.582,0.489 0.403,0.351 0.605,0.794 0.605,1.328 0,0.898 -0.462,1.738 -1.386,2.519 -0.938,0.782 -1.941,1.172 -3.008,1.172 -0.625,0 -1.153,-0.162 -1.582,-0.488 -0.404,-0.352 -0.606,-0.794 -0.606,-1.328 0,-0.899 0.469,-1.738 1.406,-2.52 0.912,-0.781 1.908,-1.172 2.989,-1.172"
     id="path202"
     inkscape:connector-curvature="0" />
  <path
     class="Note"
     d="m 68.6576,121.2246 c 0,-0.222 -0.0846,-0.41 -0.2539,-0.567 -0.1693,-0.169 -0.3646,-0.254 -0.586,-0.254 -0.3906,0 -1.1783,0.391 -2.3632,1.172 -1.224,0.795 -1.9727,1.361 -2.2461,1.7 -0.1433,0.182 -0.2149,0.371 -0.2149,0.566 0,0.221 0.0847,0.41 0.2539,0.566 0.1563,0.17 0.3516,0.254 0.586,0.254 0.3776,0 1.1718,-0.39 2.3828,-1.172 1.1979,-0.781 1.9401,-1.347 2.2265,-1.699 0.1433,-0.169 0.2149,-0.358 0.2149,-0.566 m -1.0352,-1.446 c 1.1198,0 1.6797,0.482 1.6797,1.446 0,0.469 -0.1367,1.015 -0.4101,1.64 -0.2735,0.612 -0.6381,1.081 -1.0938,1.407 -1.0026,0.677 -2.2591,1.015 -3.7695,1.015 -1.1198,0 -1.6797,-0.482 -1.6797,-1.445 0,-0.43 0.1367,-0.97 0.4102,-1.621 0.2604,-0.625 0.625,-1.1 1.0937,-1.426 1.0026,-0.677 2.2591,-1.016 3.7695,-1.016"
     id="path204"
     inkscape:connector-curvature="0" />
  <path
     class="Note"
     d="m 38.1459,117.2986 c 0.625,0 1.1523,0.163 1.582,0.488 0.4037,0.352 0.6055,0.795 0.6055,1.329 0,0.898 -0.4622,1.738 -1.3867,2.519 -0.9375,0.781 -1.9401,1.172 -3.0078,1.172 -0.625,0 -1.1524,-0.163 -1.5821,-0.488 -0.4036,-0.352 -0.6054,-0.795 -0.6054,-1.328 0,-0.899 0.4687,-1.739 1.4062,-2.52 0.9115,-0.781 1.9076,-1.172 2.9883,-1.172"
     id="path206"
     inkscape:connector-curvature="0" />
  <path
     class="Note"
     d="m 526.7345,26.9724 c 0,-0.2214 -0.085,-0.4102 -0.254,-0.5664 -0.169,-0.1693 -0.364,-0.2539 -0.586,-0.2539 -0.39,0 -1.178,0.3906 -2.363,1.1719 -1.224,0.7942 -1.973,1.3606 -2.246,1.6992 -0.143,0.1823 -0.215,0.3711 -0.215,0.5664 0,0.2213 0.085,0.4101 0.254,0.5664 0.156,0.1693 0.352,0.2539 0.586,0.2539 0.377,0 1.172,-0.3906 2.383,-1.1719 1.198,-0.7812 1.94,-1.3476 2.226,-1.6992 0.143,-0.1693 0.215,-0.3581 0.215,-0.5664 m -1.035,-1.4453 c 1.12,0 1.68,0.4818 1.68,1.4453 0,0.4687 -0.137,1.0156 -0.411,1.6406 -0.273,0.612 -0.638,1.0807 -1.093,1.4063 -1.003,0.6771 -2.259,1.0156 -3.77,1.0156 -1.12,0 -1.679,-0.4818 -1.679,-1.4453 0,-0.4297 0.136,-0.9701 0.41,-1.6211 0.26,-0.625 0.625,-1.1003 1.093,-1.4258 1.003,-0.6771 2.26,-1.0156 3.77,-1.0156"
     id="path208"
     inkscape:connector-curvature="0" />
  <path
     class="Note"
     d="m 513.1595,25.5271 c 0.625,0 1.152,0.1627 1.582,0.4883 0.404,0.3515 0.606,0.7942 0.606,1.3281 0,0.8984 -0.463,1.7383 -1.387,2.5195 -0.938,0.7813 -1.94,1.1719 -3.008,1.1719 -0.625,0 -1.152,-0.1628 -1.582,-0.4883 -0.404,-0.3516 -0.605,-0.7943 -0.605,-1.3281 0,-0.8985 0.468,-1.7383 1.406,-2.5195 0.911,-0.7813 1.907,-1.1719 2.988,-1.1719"
     id="path210"
     inkscape:connector-curvature="0" />
  <path
     class="Note"
     d="m 501.3195,23.0468 c 0.625,0 1.153,0.1627 1.582,0.4882 0.404,0.3516 0.606,0.7943 0.606,1.3282 0,0.8984 -0.463,1.7383 -1.387,2.5195 -0.937,0.7813 -1.94,1.1719 -3.008,1.1719 -0.625,0 -1.152,-0.1628 -1.582,-0.4883 -0.403,-0.3516 -0.605,-0.7943 -0.605,-1.3281 0,-0.8985 0.468,-1.7383 1.406,-2.5196 0.911,-0.7812 1.907,-1.1718 2.988,-1.1718"
     id="path212"
     inkscape:connector-curvature="0" />
  <path
     class="Note"
     d="m 477.8395,20.5664 c 0.625,0 1.153,0.1628 1.582,0.4883 0.404,0.3516 0.606,0.7943 0.606,1.3282 0,0.8984 -0.462,1.7382 -1.387,2.5195 -0.937,0.7812 -1.94,1.1719 -3.008,1.1719 -0.625,0 -1.152,-0.1628 -1.582,-0.4883 -0.403,-0.3516 -0.605,-0.7943 -0.605,-1.3281 0,-0.8985 0.469,-1.7383 1.406,-2.5196 0.911,-0.7812 1.908,-1.1719 2.988,-1.1719"
     id="path214"
     inkscape:connector-curvature="0" />
  <path
     class="Note"
     d="m 464.2885,18.0861 c 0.625,0 1.153,0.1628 1.582,0.4883 0.404,0.3516 0.606,0.7943 0.606,1.3281 0,0.8985 -0.462,1.7383 -1.387,2.5196 -0.937,0.7812 -1.94,1.1718 -3.008,1.1718 -0.625,0 -1.152,-0.1627 -1.582,-0.4882 -0.403,-0.3516 -0.605,-0.7943 -0.605,-1.3282 0,-0.8984 0.469,-1.7382 1.406,-2.5195 0.912,-0.7812 1.908,-1.1719 2.988,-1.1719"
     id="path216"
     inkscape:connector-curvature="0" />
  <path
     class="Note"
     d="m 450.7375,20.5664 c 0.625,0 1.153,0.1628 1.582,0.4883 0.404,0.3516 0.606,0.7943 0.606,1.3282 0,0.8984 -0.462,1.7382 -1.387,2.5195 -0.937,0.7812 -1.94,1.1719 -3.008,1.1719 -0.625,0 -1.152,-0.1628 -1.582,-0.4883 -0.403,-0.3516 -0.605,-0.7943 -0.605,-1.3281 0,-0.8985 0.469,-1.7383 1.406,-2.5196 0.912,-0.7812 1.908,-1.1719 2.988,-1.1719"
     id="path218"
     inkscape:connector-curvature="0" />
  <path
     class="Note"
     d="m 437.1865,23.0468 c 0.625,0 1.153,0.1627 1.583,0.4882 0.403,0.3516 0.605,0.7943 0.605,1.3282 0,0.8984 -0.462,1.7383 -1.387,2.5195 -0.937,0.7813 -1.94,1.1719 -3.008,1.1719 -0.625,0 -1.152,-0.1628 -1.582,-0.4883 -0.403,-0.3516 -0.605,-0.7943 -0.605,-1.3281 0,-0.8985 0.469,-1.7383 1.406,-2.5196 0.912,-0.7812 1.908,-1.1718 2.988,-1.1718"
     id="path220"
     inkscape:connector-curvature="0" />
  <path
     class="Note"
     d="m 417.1045,25.5271 c 0.625,0 1.152,0.1627 1.582,0.4883 0.404,0.3515 0.606,0.7942 0.606,1.3281 0,0.8984 -0.463,1.7383 -1.387,2.5195 -0.938,0.7813 -1.94,1.1719 -3.008,1.1719 -0.625,0 -1.152,-0.1628 -1.582,-0.4883 -0.404,-0.3516 -0.605,-0.7943 -0.605,-1.3281 0,-0.8985 0.468,-1.7383 1.406,-2.5195 0.911,-0.7813 1.907,-1.1719 2.988,-1.1719"
     id="path222"
     inkscape:connector-curvature="0" />
  <path
     class="Note"
     d="m 397.5015,31.933 c 0,-0.2213 -0.084,-0.4101 -0.253,-0.5664 -0.17,-0.1693 -0.365,-0.2539 -0.586,-0.2539 -0.391,0 -1.179,0.3906 -2.364,1.1719 -1.224,0.7943 -1.972,1.3607 -2.246,1.6992 -0.143,0.1823 -0.215,0.3711 -0.215,0.5664 0,0.2214 0.085,0.4102 0.254,0.5664 0.157,0.1693 0.352,0.2539 0.586,0.2539 0.378,0 1.172,-0.3906 2.383,-1.1719 1.198,-0.7812 1.94,-1.3476 2.227,-1.6992 0.143,-0.1692 0.214,-0.358 0.214,-0.5664 m -1.035,-1.4453 c 1.12,0 1.68,0.4818 1.68,1.4453 0,0.4688 -0.137,1.0156 -0.41,1.6406 -0.274,0.612 -0.638,1.0808 -1.094,1.4063 -1.002,0.6771 -2.259,1.0156 -3.769,1.0156 -1.12,0 -1.68,-0.4817 -1.68,-1.4453 0,-0.4297 0.137,-0.97 0.41,-1.6211 0.26,-0.625 0.625,-1.1002 1.094,-1.4258 1.002,-0.677 2.259,-1.0156 3.769,-1.0156"
     id="path224"
     inkscape:connector-curvature="0" />
  <path
     class="Note"
     d="m 379.1775,25.5271 c 0.625,0 1.152,0.1627 1.582,0.4883 0.404,0.3515 0.606,0.7942 0.606,1.3281 0,0.8984 -0.463,1.7383 -1.387,2.5195 -0.938,0.7813 -1.94,1.1719 -3.008,1.1719 -0.625,0 -1.152,-0.1628 -1.582,-0.4883 -0.404,-0.3516 -0.605,-0.7943 -0.605,-1.3281 0,-0.8985 0.468,-1.7383 1.406,-2.5195 0.911,-0.7813 1.907,-1.1719 2.988,-1.1719"
     id="path226"
     inkscape:connector-curvature="0" />
  <path
     class="Note"
     d="m 356.3995,25.5271 c 0.625,0 1.152,0.1627 1.582,0.4883 0.403,0.3515 0.605,0.7942 0.605,1.3281 0,0.8984 -0.462,1.7383 -1.387,2.5195 -0.937,0.7813 -1.94,1.1719 -3.007,1.1719 -0.625,0 -1.153,-0.1628 -1.582,-0.4883 -0.404,-0.3516 -0.606,-0.7943 -0.606,-1.3281 0,-0.8985 0.469,-1.7383 1.406,-2.5195 0.912,-0.7813 1.908,-1.1719 2.989,-1.1719"
     id="path228"
     inkscape:connector-curvature="0" />
  <path
     class="Note"
     d="m 342.4845,23.0468 c 0.625,0 1.153,0.1627 1.582,0.4882 0.404,0.3516 0.606,0.7943 0.606,1.3282 0,0.8984 -0.462,1.7383 -1.387,2.5195 -0.937,0.7813 -1.94,1.1719 -3.008,1.1719 -0.625,0 -1.152,-0.1628 -1.582,-0.4883 -0.403,-0.3516 -0.605,-0.7943 -0.605,-1.3281 0,-0.8985 0.468,-1.7383 1.406,-2.5196 0.911,-0.7812 1.908,-1.1718 2.988,-1.1718"
     id="path230"
     inkscape:connector-curvature="0" />
  <path
     class="Note"
     d="m 321.9565,22.0118 c 0,-0.2214 -0.084,-0.4102 -0.254,-0.5664 -0.169,-0.1693 -0.364,-0.254 -0.586,-0.254 -0.39,0 -1.178,0.3907 -2.363,1.1719 -1.224,0.7943 -1.973,1.3607 -2.246,1.6992 -0.143,0.1823 -0.215,0.3711 -0.215,0.5664 0,0.2214 0.085,0.4102 0.254,0.5665 0.156,0.1692 0.352,0.2539 0.586,0.2539 0.378,0 1.172,-0.3907 2.383,-1.1719 1.198,-0.7813 1.94,-1.3477 2.226,-1.6992 0.144,-0.1693 0.215,-0.3581 0.215,-0.5664 m -1.035,-1.4454 c 1.12,0 1.68,0.4818 1.68,1.4454 0,0.4687 -0.137,1.0156 -0.41,1.6406 -0.274,0.612 -0.638,1.0807 -1.094,1.4062 -1.003,0.6771 -2.259,1.0157 -3.77,1.0157 -1.119,0 -1.679,-0.4818 -1.679,-1.4454 0,-0.4296 0.136,-0.97 0.41,-1.621 0.26,-0.625 0.625,-1.1003 1.094,-1.4258 1.002,-0.6771 2.259,-1.0157 3.769,-1.0157"
     id="path232"
     inkscape:connector-curvature="0" />
  <path
     class="Note"
     d="m 292.9045,19.5314 c 0,-0.2213 -0.084,-0.4101 -0.254,-0.5664 -0.169,-0.1692 -0.364,-0.2539 -0.586,-0.2539 -0.39,0 -1.178,0.3907 -2.363,1.1719 -1.224,0.7943 -1.972,1.3607 -2.246,1.6992 -0.143,0.1823 -0.215,0.3711 -0.215,0.5664 0,0.2214 0.085,0.4102 0.254,0.5664 0.156,0.1693 0.352,0.2539 0.586,0.2539 0.378,0 1.172,-0.3906 2.383,-1.1718 1.198,-0.7813 1.94,-1.3477 2.226,-1.6992 0.144,-0.1693 0.215,-0.3581 0.215,-0.5665 m -1.035,-1.4453 c 1.12,0 1.68,0.4818 1.68,1.4453 0,0.4688 -0.137,1.0157 -0.41,1.6407 -0.274,0.612 -0.638,1.0807 -1.094,1.4062 -1.003,0.6771 -2.259,1.0156 -3.77,1.0156 -1.119,0 -1.679,-0.4817 -1.679,-1.4453 0,-0.4297 0.136,-0.97 0.41,-1.6211 0.26,-0.625 0.625,-1.1002 1.094,-1.4257 1.002,-0.6771 2.259,-1.0157 3.769,-1.0157"
     id="path234"
     inkscape:connector-curvature="0" />
  <path
     class="Note"
     d="m 279.3295,15.6058 c 0.625,0 1.153,0.1628 1.582,0.4883 0.404,0.3516 0.606,0.7943 0.606,1.3281 0,0.8985 -0.462,1.7383 -1.387,2.5196 -0.937,0.7812 -1.94,1.1718 -3.008,1.1718 -0.625,0 -1.152,-0.1627 -1.582,-0.4882 -0.403,-0.3516 -0.605,-0.7943 -0.605,-1.3282 0,-0.8984 0.469,-1.7383 1.406,-2.5195 0.912,-0.7813 1.908,-1.1719 2.988,-1.1719"
     id="path236"
     inkscape:connector-curvature="0" />
  <path
     class="Note"
     d="m 267.4895,13.1255 c 0.625,0 1.153,0.1628 1.582,0.4883 0.404,0.3515 0.606,0.7943 0.606,1.3281 0,0.8984 -0.462,1.7383 -1.387,2.5195 -0.937,0.7813 -1.94,1.1719 -3.008,1.1719 -0.625,0 -1.152,-0.1627 -1.582,-0.4883 -0.403,-0.3515 -0.605,-0.7942 -0.605,-1.3281 0,-0.8984 0.469,-1.7383 1.406,-2.5195 0.912,-0.7813 1.908,-1.1719 2.988,-1.1719"
     id="path238"
     inkscape:connector-curvature="0" />
  <path
     class="Note"
     d="m 240.1865,13.1255 c 0.625,0 1.152,0.1628 1.582,0.4883 0.404,0.3515 0.605,0.7943 0.605,1.3281 0,0.8984 -0.462,1.7383 -1.386,2.5195 -0.938,0.7813 -1.94,1.1719 -3.008,1.1719 -0.625,0 -1.152,-0.1627 -1.582,-0.4883 -0.404,-0.3515 -0.606,-0.7942 -0.606,-1.3281 0,-0.8984 0.469,-1.7383 1.407,-2.5195 0.911,-0.7813 1.907,-1.1719 2.988,-1.1719"
     id="path240"
     inkscape:connector-curvature="0" />
  <path
     class="Note"
     d="m 222.8115,18.0861 c 0.625,0 1.153,0.1628 1.582,0.4883 0.404,0.3516 0.606,0.7943 0.606,1.3281 0,0.8985 -0.462,1.7383 -1.387,2.5196 -0.937,0.7812 -1.94,1.1718 -3.008,1.1718 -0.625,0 -1.152,-0.1627 -1.582,-0.4882 -0.403,-0.3516 -0.605,-0.7943 -0.605,-1.3282 0,-0.8984 0.469,-1.7382 1.406,-2.5195 0.912,-0.7812 1.908,-1.1719 2.988,-1.1719"
     id="path242"
     inkscape:connector-curvature="0" />
  <path
     class="Note"
     d="m 205.4375,20.5664 c 0.625,0 1.152,0.1628 1.582,0.4883 0.404,0.3516 0.605,0.7943 0.605,1.3282 0,0.8984 -0.462,1.7382 -1.386,2.5195 -0.938,0.7812 -1.94,1.1719 -3.008,1.1719 -0.625,0 -1.152,-0.1628 -1.582,-0.4883 -0.404,-0.3516 -0.606,-0.7943 -0.606,-1.3281 0,-0.8985 0.469,-1.7383 1.407,-2.5196 0.911,-0.7812 1.907,-1.1719 2.988,-1.1719"
     id="path244"
     inkscape:connector-curvature="0" />
  <path
     class="Note"
     d="m 188.0625,8.1649 c 0.625,0 1.153,0.1627 1.582,0.4883 0.404,0.3515 0.606,0.7942 0.606,1.3281 0,0.8984 -0.462,1.7383 -1.387,2.5195 -0.937,0.7813 -1.94,1.1719 -3.008,1.1719 -0.625,0 -1.152,-0.1628 -1.582,-0.4883 -0.403,-0.3516 -0.605,-0.7943 -0.605,-1.3281 0,-0.8985 0.469,-1.7383 1.406,-2.5196 0.912,-0.7812 1.908,-1.1718 2.988,-1.1718"
     id="path246"
     inkscape:connector-curvature="0" />
  <path
     class="Note"
     d="m 165.4035,10.6452 c 0.625,0 1.153,0.1628 1.582,0.4883 0.404,0.3515 0.606,0.7942 0.606,1.3281 0,0.8984 -0.463,1.7383 -1.387,2.5195 -0.938,0.7813 -1.94,1.1719 -3.008,1.1719 -0.625,0 -1.152,-0.1628 -1.582,-0.4883 -0.404,-0.3515 -0.605,-0.7942 -0.605,-1.3281 0,-0.8984 0.468,-1.7383 1.406,-2.5195 0.911,-0.7813 1.907,-1.1719 2.988,-1.1719"
     id="path248"
     inkscape:connector-curvature="0" />
  <path
     class="Note"
     d="m 149.4905,13.1255 c 0.625,0 1.153,0.1628 1.582,0.4883 0.404,0.3515 0.606,0.7943 0.606,1.3281 0,0.8984 -0.462,1.7383 -1.387,2.5195 -0.937,0.7813 -1.94,1.1719 -3.008,1.1719 -0.625,0 -1.152,-0.1627 -1.582,-0.4883 -0.403,-0.3515 -0.605,-0.7942 -0.605,-1.3281 0,-0.8984 0.469,-1.7383 1.406,-2.5195 0.912,-0.7813 1.908,-1.1719 2.988,-1.1719"
     id="path250"
     inkscape:connector-curvature="0" />
  <path
     class="Note"
     d="m 133.5785,5.6846 c 0.625,0 1.152,0.1627 1.582,0.4882 0.403,0.3516 0.605,0.7943 0.605,1.3282 0,0.8984 -0.462,1.7382 -1.387,2.5195 -0.937,0.7812 -1.94,1.1719 -3.007,1.1719 -0.625,0 -1.153,-0.1628 -1.582,-0.4883 -0.404,-0.3516 -0.606,-0.7943 -0.606,-1.3281 0,-0.8985 0.469,-1.7383 1.406,-2.5196 0.912,-0.7812 1.908,-1.1718 2.989,-1.1718"
     id="path252"
     inkscape:connector-curvature="0" />
  <path
     class="Note"
     d="m 123.6325,13.1255 c 0.625,0 1.152,0.1628 1.582,0.4883 0.404,0.3515 0.606,0.7943 0.606,1.3281 0,0.8984 -0.463,1.7383 -1.387,2.5195 -0.938,0.7813 -1.94,1.1719 -3.008,1.1719 -0.625,0 -1.152,-0.1627 -1.582,-0.4883 -0.404,-0.3515 -0.605,-0.7942 -0.605,-1.3281 0,-0.8984 0.468,-1.7383 1.406,-2.5195 0.911,-0.7813 1.907,-1.1719 2.988,-1.1719"
     id="path254"
     inkscape:connector-curvature="0" />
  <path
     class="Note"
     d="m 110.2285,13.1255 c 0.625,0 1.152,0.1628 1.582,0.4883 0.403,0.3515 0.605,0.7943 0.605,1.3281 0,0.8984 -0.462,1.7383 -1.387,2.5195 -0.937,0.7813 -1.94,1.1719 -3.007,1.1719 -0.625,0 -1.153,-0.1627 -1.583,-0.4883 -0.403,-0.3515 -0.605,-0.7942 -0.605,-1.3281 0,-0.8984 0.469,-1.7383 1.406,-2.5195 0.912,-0.7813 1.908,-1.1719 2.989,-1.1719"
     id="path256"
     inkscape:connector-curvature="0" />
  <path
     class="Note"
     d="m 84.5565,8.1649 c 0.625,0 1.152,0.1627 1.582,0.4883 0.403,0.3515 0.605,0.7942 0.605,1.3281 0,0.8984 -0.462,1.7383 -1.386,2.5195 -0.938,0.7813 -1.941,1.1719 -3.008,1.1719 -0.625,0 -1.153,-0.1628 -1.582,-0.4883 -0.404,-0.3516 -0.606,-0.7943 -0.606,-1.3281 0,-0.8985 0.469,-1.7383 1.406,-2.5196 0.912,-0.7812 1.908,-1.1718 2.989,-1.1718"
     id="path258"
     inkscape:connector-curvature="0" />
  <path
     class="Note"
     d="m 68.8135,13.1255 c 0.625,0 1.1523,0.1628 1.582,0.4883 0.4037,0.3515 0.6055,0.7943 0.6055,1.3281 0,0.8984 -0.4622,1.7383 -1.3867,2.5195 -0.9375,0.7813 -1.9401,1.1719 -3.0078,1.1719 -0.625,0 -1.1524,-0.1627 -1.5821,-0.4883 -0.4036,-0.3515 -0.6054,-0.7942 -0.6054,-1.3281 0,-0.8984 0.4687,-1.7383 1.4062,-2.5195 0.9115,-0.7813 1.9076,-1.1719 2.9883,-1.1719"
     id="path260"
     inkscape:connector-curvature="0" />
  <path
     class="Note"
     d="m 45.3601,17.0511 c 0,-0.2213 -0.0846,-0.4101 -0.2539,-0.5664 -0.1693,-0.1692 -0.3646,-0.2539 -0.586,-0.2539 -0.3906,0 -1.1783,0.3906 -2.3632,1.1719 -1.224,0.7943 -1.9727,1.3607 -2.2461,1.6992 -0.1433,0.1823 -0.2149,0.3711 -0.2149,0.5664 0,0.2214 0.0847,0.4102 0.2539,0.5664 0.1563,0.1693 0.3516,0.2539 0.586,0.2539 0.3776,0 1.1718,-0.3906 2.3828,-1.1718 1.1979,-0.7813 1.9401,-1.3477 2.2265,-1.6993 0.1433,-0.1692 0.2149,-0.358 0.2149,-0.5664 m -1.0352,-1.4453 c 1.1198,0 1.6797,0.4818 1.6797,1.4453 0,0.4688 -0.1367,1.0157 -0.4101,1.6407 -0.2735,0.6119 -0.6381,1.0807 -1.0938,1.4062 -1.0026,0.6771 -2.2591,1.0156 -3.7695,1.0156 -1.1198,0 -1.6797,-0.4817 -1.6797,-1.4453 0,-0.4297 0.1367,-0.97 0.4101,-1.6211 0.2605,-0.625 0.625,-1.1002 1.0938,-1.4258 1.0026,-0.677 2.2591,-1.0156 3.7695,-1.0156"
     id="path262"
     inkscape:connector-curvature="0" />
  <path
     class="Clef"
     d="m 12.2785,112.4556 c 0,0 0.0391,0 0.1172,0 0.0521,-0.013 0.0977,-0.02 0.1367,-0.02 1.4583,0 2.6563,0.514 3.5938,1.543 0.9375,1.016 1.4062,2.2 1.4062,3.555 0,1.679 -0.6966,3.047 -2.0898,4.101 -0.3646,0.287 -0.8399,0.521 -1.4258,0.703 0.0651,0.847 0.0976,1.53 0.0976,2.051 0,0.104 -0.013,0.482 -0.039,1.133 -0.0521,1.211 -0.4688,2.259 -1.25,3.144 -0.7552,0.873 -1.6927,1.309 -2.8125,1.309 -1.0547,0 -1.9531,-0.371 -2.6953,-1.113 -0.7422,-0.755 -1.1133,-1.667 -1.1133,-2.735 0,-0.559 0.2148,-1.035 0.6445,-1.425 0.4427,-0.391 0.9571,-0.586 1.543,-0.586 0.5208,0 0.957,0.202 1.3086,0.605 0.3646,0.378 0.5469,0.847 0.5469,1.406 0,0.508 -0.1823,0.944 -0.5469,1.309 -0.3646,0.365 -0.8008,0.547 -1.3086,0.547 -0.2083,0 -0.4102,-0.039 -0.6055,-0.117 0.5729,0.846 1.3347,1.269 2.2852,1.269 0.8984,0 1.6341,-0.364 2.207,-1.094 0.599,-0.755 0.9245,-1.634 0.9766,-2.636 0.026,-0.625 0.039,-0.983 0.039,-1.074 0,-0.73 -0.026,-1.329 -0.0781,-1.797 -0.651,0.104 -1.2305,0.156 -1.7383,0.156 -1.8099,0 -3.3528,-0.716 -4.6289,-2.149 -1.25,-1.445 -1.875,-3.164 -1.875,-5.156 0,-0.416 0.0391,-0.84 0.1172,-1.269 0.0781,-0.352 0.1758,-0.736 0.293,-1.153 0.0651,-0.234 0.2409,-0.612 0.5273,-1.132 0.1042,-0.157 0.2214,-0.352 0.3516,-0.586 0.1302,-0.235 0.2213,-0.391 0.2734,-0.469 0.1302,-0.261 0.3841,-0.612 0.7617,-1.055 0.1042,-0.117 0.2116,-0.247 0.3223,-0.39 0.1107,-0.144 0.2051,-0.261 0.2832,-0.352 0.0781,-0.091 0.1367,-0.163 0.1758,-0.215 0.0391,-0.052 0.332,-0.397 0.8789,-1.035 0.1302,-0.13 0.2572,-0.27 0.3809,-0.42 0.1237,-0.15 0.2246,-0.267 0.3027,-0.352 0.0781,-0.084 0.1367,-0.146 0.1758,-0.185 -0.4688,-1.55 -0.7617,-2.787 -0.8789,-3.711 -0.0912,-0.742 -0.1368,-1.758 -0.1368,-3.047 0,-1.133 0.2605,-2.194 0.7813,-3.183 0.5078,-1.029 1.2174,-1.869 2.1289,-2.52 0.0651,-0.039 0.1302,-0.059 0.1953,-0.059 0.0912,0 0.1563,0.02 0.1953,0.059 0.7032,0.846 1.3086,1.947 1.8164,3.301 0.5209,1.354 0.7813,2.584 0.7813,3.691 0,1.25 -0.2995,2.422 -0.8985,3.516 -0.677,1.159 -1.5494,2.357 -2.6171,3.594 0.2734,0.859 0.638,2.207 1.0937,4.043 m 1.6602,9.082 c 0.677,-0.248 1.2044,-0.671 1.582,-1.27 0.4167,-0.573 0.625,-1.217 0.625,-1.934 0,-0.924 -0.3125,-1.744 -0.9375,-2.46 -0.638,-0.743 -1.4518,-1.159 -2.4414,-1.25 0.5599,2.747 0.9505,5.052 1.1719,6.914 m -7.5586,-4.512 c 0,1.289 0.5208,2.422 1.5625,3.398 1.0677,0.951 2.2656,1.426 3.5937,1.426 0.5469,0 1.0808,-0.039 1.6016,-0.117 -0.2083,-1.979 -0.6185,-4.349 -1.2305,-7.109 -0.7422,0.078 -1.3346,0.338 -1.7773,0.781 -0.4297,0.455 -0.6446,0.97 -0.6446,1.543 0,0.989 0.5274,1.79 1.5821,2.402 0.0911,0.091 0.1367,0.189 0.1367,0.293 0,0.104 -0.0456,0.202 -0.1367,0.293 -0.0782,0.091 -0.1758,0.137 -0.293,0.137 -0.013,0 -0.0716,-0.013 -0.1758,-0.039 -0.7422,-0.404 -1.3151,-0.925 -1.7187,-1.563 -0.3776,-0.677 -0.5664,-1.361 -0.5664,-2.051 0,-0.898 0.2799,-1.712 0.8398,-2.441 0.5859,-0.729 1.3477,-1.198 2.2852,-1.406 -0.3646,-1.459 -0.6641,-2.598 -0.8985,-3.418 -0.2083,0.234 -0.459,0.517 -0.7519,0.849 -0.293,0.332 -0.4655,0.531 -0.5176,0.596 -0.4688,0.612 -0.8268,1.087 -1.0742,1.426 -0.4427,0.612 -0.7683,1.139 -0.9766,1.582 -0.2213,0.495 -0.4167,1.035 -0.5859,1.621 -0.1693,0.56 -0.2539,1.159 -0.2539,1.797 m 6.5234,-19.863 c -0.9766,0.481 -1.7448,1.171 -2.3047,2.07 -0.5729,0.924 -0.8594,1.92 -0.8594,2.988 0,0.938 0.2344,2.201 0.7032,3.789 0.9375,-1.133 1.6406,-2.181 2.1093,-3.144 0.4948,-1.016 0.7422,-2.077 0.7422,-3.184 0,-0.833 -0.1302,-1.673 -0.3906,-2.519"
     id="path264"
     inkscape:connector-curvature="0" />
  <path
     class="Clef"
     d="m 12.2785,18.2032 c 0,0 0.0391,0 0.1172,0 0.0521,-0.0131 0.0977,-0.0196 0.1367,-0.0196 1.4583,0 2.6563,0.5144 3.5938,1.543 0.9375,1.0156 1.4062,2.2005 1.4062,3.5547 0,1.6797 -0.6966,3.0469 -2.0898,4.1016 -0.3646,0.2864 -0.8399,0.5208 -1.4258,0.7031 0.0651,0.8463 0.0976,1.5299 0.0976,2.0508 0,0.1041 -0.013,0.4817 -0.039,1.1328 -0.0521,1.2109 -0.4688,2.2591 -1.25,3.1445 -0.7552,0.8724 -1.6927,1.3086 -2.8125,1.3086 -1.0547,0 -1.9531,-0.3711 -2.6953,-1.1133 -0.7422,-0.7552 -1.1133,-1.6666 -1.1133,-2.7344 0,-0.5599 0.2148,-1.0351 0.6445,-1.4257 0.4427,-0.3907 0.9571,-0.586 1.543,-0.586 0.5208,0 0.957,0.2018 1.3086,0.6055 0.3646,0.3776 0.5469,0.8463 0.5469,1.4062 0,0.5079 -0.1823,0.9441 -0.5469,1.3086 -0.3646,0.3646 -0.8008,0.5469 -1.3086,0.5469 -0.2083,0 -0.4102,-0.0391 -0.6055,-0.1172 0.5729,0.8464 1.3347,1.2696 2.2852,1.2696 0.8984,0 1.6341,-0.3646 2.207,-1.0938 0.599,-0.7552 0.9245,-1.6341 0.9766,-2.6367 0.026,-0.625 0.039,-0.9831 0.039,-1.0742 0,-0.7292 -0.026,-1.3282 -0.0781,-1.7969 -0.651,0.1042 -1.2305,0.1562 -1.7383,0.1562 -1.8099,0 -3.3528,-0.7161 -4.6289,-2.1484 -1.25,-1.4453 -1.875,-3.1641 -1.875,-5.1562 0,-0.4167 0.0391,-0.8399 0.1172,-1.2696 C 5.1691,19.5118 5.2668,19.1276 5.384,18.711 5.4491,18.4766 5.6249,18.099 5.9113,17.5782 6.0155,17.4219 6.1327,17.2266 6.2629,16.9922 6.3931,16.7579 6.4842,16.6016 6.5363,16.5235 6.6665,16.2631 6.9204,15.9115 7.298,15.4688 7.4022,15.3516 7.5096,15.2214 7.6203,15.0782 7.731,14.9349 7.8254,14.8178 7.9035,14.7266 7.9816,14.6355 8.0402,14.5638 8.0793,14.5118 8.1184,14.4597 8.4113,14.1146 8.9582,13.4766 9.0884,13.3464 9.2154,13.2064 9.3391,13.0567 9.4628,12.9069 9.5637,12.7898 9.6418,12.7051 9.7199,12.6205 9.7785,12.5586 9.8176,12.5196 9.3488,10.9701 9.0559,9.7331 8.9387,8.8086 8.8475,8.0664 8.8019,7.0508 8.8019,5.7618 8.8019,4.6289 9.0624,3.5678 9.5832,2.5782 10.091,1.5495 10.8006,0.7097 11.7121,0.0586 11.7772,0.0196 11.8423,0 11.9074,0 c 0.0912,0 0.1563,0.0196 0.1953,0.0586 0.7032,0.8464 1.3086,1.9467 1.8164,3.3008 0.5209,1.3542 0.7813,2.5847 0.7813,3.6914 0,1.25 -0.2995,2.4219 -0.8985,3.5156 -0.677,1.1589 -1.5494,2.3568 -2.6171,3.5938 0.2734,0.8594 0.638,2.207 1.0937,4.043 m 1.6602,9.082 c 0.677,-0.2474 1.2044,-0.6706 1.582,-1.2695 0.4167,-0.5729 0.625,-1.2175 0.625,-1.9336 0,-0.9245 -0.3125,-1.7448 -0.9375,-2.461 -0.638,-0.7422 -1.4518,-1.1588 -2.4414,-1.25 0.5599,2.7474 0.9505,5.0521 1.1719,6.9141 M 6.3801,22.7735 c 0,1.289 0.5208,2.4219 1.5625,3.3984 1.0677,0.9505 2.2656,1.4258 3.5937,1.4258 0.5469,0 1.0808,-0.0391 1.6016,-0.1172 -0.2083,-1.9792 -0.6185,-4.3489 -1.2305,-7.1094 -0.7422,0.0782 -1.3346,0.3386 -1.7773,0.7813 -0.4297,0.4557 -0.6446,0.97 -0.6446,1.543 0,0.9895 0.5274,1.7903 1.5821,2.4023 0.0911,0.0911 0.1367,0.1888 0.1367,0.293 0,0.1041 -0.0456,0.2018 -0.1367,0.2929 -0.0782,0.0912 -0.1758,0.1368 -0.293,0.1368 -0.013,0 -0.0716,-0.0131 -0.1758,-0.0391 C 9.8566,25.3776 9.2837,24.8568 8.8801,24.2188 8.5025,23.5417 8.3137,22.8581 8.3137,22.168 c 0,-0.8984 0.2799,-1.7122 0.8398,-2.4414 0.5859,-0.7292 1.3477,-1.1979 2.2852,-1.4062 -0.3646,-1.4584 -0.6641,-2.5977 -0.8985,-3.418 -0.2083,0.2344 -0.459,0.5176 -0.7519,0.8496 -0.293,0.332 -0.4655,0.5306 -0.5176,0.5957 -0.4688,0.612 -0.8268,1.0872 -1.0742,1.4258 -0.4427,0.612 -0.7683,1.1393 -0.9766,1.582 -0.2213,0.4948 -0.4167,1.0352 -0.5859,1.6211 -0.1693,0.5599 -0.2539,1.1589 -0.2539,1.7969 M 12.9035,2.9102 C 11.9269,3.392 11.1587,4.0821 10.5988,4.9805 10.0259,5.905 9.7394,6.9011 9.7394,7.9688 c 0,0.9375 0.2344,2.2005 0.7032,3.7891 0.9375,-1.1329 1.6406,-2.181 2.1093,-3.1446 0.4948,-1.0156 0.7422,-2.0768 0.7422,-3.1836 0,-0.8333 -0.1302,-1.6731 -0.3906,-2.5195"
     id="path266"
     inkscape:connector-curvature="0" />
  <path
     class="TimeSig"
     d="m 26.9256,8.653 c 0.3906,0 0.7226,-0.0456 0.9961,-0.1367 0.2734,-0.0912 0.4492,-0.1367 0.5273,-0.1367 0.0912,0 0.1628,0.026 0.2149,0.0781 0.039,0.0391 0.0651,0.0846 0.0781,0.1367 0,0.0261 -0.013,0.0651 -0.0391,0.1172 l -5.6836,6.6016 3.3399,0 0,-2.6172 c 0,-0.1693 0.0455,-0.3125 0.1367,-0.4297 0.1562,-0.1302 0.2864,-0.2083 0.3906,-0.2344 0.1693,-0.0781 0.3776,-0.2604 0.625,-0.5469 0.2083,-0.2343 0.4557,-0.6445 0.7422,-1.2304 0.0391,-0.0782 0.0977,-0.1172 0.1758,-0.1172 0.1562,0 0.2474,0.0911 0.2734,0.2734 l 0,4.9024 1.4258,0 c 0.1823,0 0.2865,0.0976 0.3125,0.2929 0,0.1953 -0.1042,0.293 -0.3125,0.293 l -1.4258,0 0,0.1562 c 0,0.5209 0.1302,0.9636 0.3906,1.3282 0.2995,0.3646 0.6511,0.5468 1.0547,0.5468 0.1563,0 0.2344,0.0782 0.2344,0.2344 0,0.1563 -0.0781,0.2344 -0.2344,0.2344 -0.2734,0 -0.7161,-0.0391 -1.3281,-0.1172 -0.5599,-0.0911 -0.9961,-0.1367 -1.3086,-0.1367 -0.3255,0 -0.7617,0.0456 -1.3086,0.1367 -0.5859,0.0781 -1.0221,0.1172 -1.3086,0.1172 -0.1562,0 -0.2344,-0.0781 -0.2344,-0.2344 0,-0.1562 0.0782,-0.2344 0.2344,-0.2344 0.4037,0 0.7552,-0.1822 1.0547,-0.5468 0.2734,-0.3646 0.4102,-0.8073 0.4102,-1.3282 l 0,-0.1562 -3.3399,0 c -0.2213,0 -0.3776,-0.0521 -0.4687,-0.1563 -0.1042,-0.0781 -0.1563,-0.1822 -0.1563,-0.3125 0,-0.039 0.0977,-0.1757 0.293,-0.4101 0.2213,-0.2604 0.4557,-0.5794 0.7031,-0.957 0.2865,-0.4427 0.5599,-0.8985 0.8203,-1.3672 0.2865,-0.5339 0.5143,-1.1459 0.6836,-1.836 0.1953,-0.7031 0.293,-1.4192 0.293,-2.1484 0,-0.2083 0.0911,-0.3125 0.2734,-0.3125 0.0391,0 0.1237,0.0195 0.2539,0.0586 0.0391,0.013 0.1205,0.0325 0.2442,0.0586 0.1237,0.026 0.2246,0.0521 0.3027,0.0781 0.2344,0.0391 0.4557,0.0586 0.6641,0.0586"
     id="path268"
     inkscape:connector-curvature="0" />
  <path
     class="TimeSig"
     d="m 26.9256,18.5743 c 0.3906,0 0.7226,-0.0456 0.9961,-0.1368 0.2734,-0.0911 0.4492,-0.1367 0.5273,-0.1367 0.0912,0 0.1628,0.0261 0.2149,0.0781 0.039,0.0391 0.0651,0.0847 0.0781,0.1368 0,0.026 -0.013,0.0651 -0.0391,0.1172 l -5.6836,6.6015 3.3399,0 0,-2.6172 c 0,-0.1692 0.0455,-0.3125 0.1367,-0.4297 0.1562,-0.1302 0.2864,-0.2083 0.3906,-0.2343 0.1693,-0.0782 0.3776,-0.2604 0.625,-0.5469 0.2083,-0.2344 0.4557,-0.6445 0.7422,-1.2305 0.0391,-0.0781 0.0977,-0.1172 0.1758,-0.1172 0.1562,0 0.2474,0.0912 0.2734,0.2735 l 0,4.9023 1.4258,0 c 0.1823,0 0.2865,0.0977 0.3125,0.293 0,0.1953 -0.1042,0.293 -0.3125,0.293 l -1.4258,0 0,0.1562 c 0,0.5208 0.1302,0.9635 0.3906,1.3281 0.2995,0.3646 0.6511,0.5469 1.0547,0.5469 0.1563,0 0.2344,0.0781 0.2344,0.2344 0,0.1562 -0.0781,0.2344 -0.2344,0.2344 -0.2734,0 -0.7161,-0.0391 -1.3281,-0.1172 -0.5599,-0.0912 -0.9961,-0.1368 -1.3086,-0.1368 -0.3255,0 -0.7617,0.0456 -1.3086,0.1368 -0.5859,0.0781 -1.0221,0.1172 -1.3086,0.1172 -0.1562,0 -0.2344,-0.0782 -0.2344,-0.2344 0,-0.1563 0.0782,-0.2344 0.2344,-0.2344 0.4037,0 0.7552,-0.1823 1.0547,-0.5469 0.2734,-0.3646 0.4102,-0.8073 0.4102,-1.3281 l 0,-0.1562 -3.3399,0 c -0.2213,0 -0.3776,-0.0521 -0.4687,-0.1563 -0.1042,-0.0781 -0.1563,-0.1823 -0.1563,-0.3125 0,-0.0391 0.0977,-0.1758 0.293,-0.4102 0.2213,-0.2604 0.4557,-0.5794 0.7031,-0.957 0.2865,-0.4427 0.5599,-0.8984 0.8203,-1.3672 0.2865,-0.5338 0.5143,-1.1458 0.6836,-1.8359 0.1953,-0.7031 0.293,-1.4193 0.293,-2.1484 0,-0.2084 0.0911,-0.3125 0.2734,-0.3125 0.0391,0 0.1237,0.0195 0.2539,0.0585 0.0391,0.0131 0.1205,0.0326 0.2442,0.0586 0.1237,0.0261 0.2246,0.0521 0.3027,0.0782 0.2344,0.039 0.4557,0.0586 0.6641,0.0586"
     id="path270"
     inkscape:connector-curvature="0" />
  <path
     class="Beam"
     d="m 240.7425,107.7356 19.554,-2.565 0,2.48 -19.554,2.565 0,-2.48"
     id="path272"
     inkscape:connector-curvature="0"
     style="fill-rule:evenodd" />
  <path
     class="Beam"
     d="m 105.8335,28.281 14.049,0 0,2.4803 -14.049,0 0,-2.4803"
     id="path274"
     inkscape:connector-curvature="0"
     style="fill-rule:evenodd" />
  <path
     class="NoteDot"
     d="m 288.3785,115.8926 c -0.222,-0.221 -0.332,-0.488 -0.332,-0.801 0,-0.312 0.11,-0.579 0.332,-0.8 0.221,-0.222 0.488,-0.332 0.8,-0.332 0.313,0 0.58,0.11 0.801,0.332 0.222,0.221 0.332,0.488 0.332,0.8 0,0.313 -0.11,0.58 -0.332,0.801 -0.221,0.222 -0.488,0.332 -0.801,0.332 -0.312,0 -0.579,-0.11 -0.8,-0.332"
     id="path276"
     inkscape:connector-curvature="0" />
</svg>
