<?xml version="1.0" encoding="UTF-8" standalone="no"?>
<svg
   xmlns:dc="http://purl.org/dc/elements/1.1/"
   xmlns:cc="http://creativecommons.org/ns#"
   xmlns:rdf="http://www.w3.org/1999/02/22-rdf-syntax-ns#"
   xmlns:svg="http://www.w3.org/2000/svg"
   xmlns="http://www.w3.org/2000/svg"
   xmlns:sodipodi="http://sodipodi.sourceforge.net/DTD/sodipodi-0.dtd"
   xmlns:inkscape="http://www.inkscape.org/namespaces/inkscape"
   width="540.34253"
   height="131.7894"
   viewBox="0 0 540.34253 131.7894"
   version="1.2"
   id="svg2"
   inkscape:version="0.91 r13725"
   sodipodi:docname="rnn_sample.svg">
  <metadata
     id="metadata290">
    <rdf:RDF>
      <cc:Work
         rdf:about="">
        <dc:format>image/svg+xml</dc:format>
        <dc:type
           rdf:resource="http://purl.org/dc/dcmitype/StillImage" />
        <dc:title>good_rnn_sample_emaj</dc:title>
      </cc:Work>
    </rdf:RDF>
  </metadata>
  <defs
     id="defs288" />
  <sodipodi:namedview
     pagecolor="#ffffff"
     bordercolor="#666666"
     borderopacity="1"
     objecttolerance="10"
     gridtolerance="10"
     guidetolerance="10"
     inkscape:pageopacity="0"
     inkscape:pageshadow="2"
     inkscape:window-width="1175"
     inkscape:window-height="825"
     id="namedview286"
     showgrid="false"
     fit-margin-top="0"
     fit-margin-left="0"
     fit-margin-right="0"
     fit-margin-bottom="0"
     inkscape:zoom="1.1212866"
     inkscape:cx="310.10352"
     inkscape:cy="10.836412"
     inkscape:window-x="0"
     inkscape:window-y="0"
     inkscape:window-maximized="0"
     inkscape:current-layer="svg2" />
  <title
     id="title4">good_rnn_sample_emaj</title>
  <desc
     id="desc6">Generated by MuseScore 2.0.3.1</desc>
  <polyline
     class="StaffLines"
     points="28.3465,63.0709 566.929,63.0709"
     id="polyline8"
     style="fill:none;stroke:#000000;stroke-width:0.40000001;stroke-linejoin:bevel"
     transform="translate(-26.5865,-53.0906)" />
  <polyline
     class="StaffLines"
     points="28.3465,68.0315 566.929,68.0315"
     id="polyline10"
     style="fill:none;stroke:#000000;stroke-width:0.40000001;stroke-linejoin:bevel"
     transform="translate(-26.5865,-53.0906)" />
  <polyline
     class="StaffLines"
     points="28.3465,72.9921 566.929,72.9921"
     id="polyline12"
     style="fill:none;stroke:#000000;stroke-width:0.40000001;stroke-linejoin:bevel"
     transform="translate(-26.5865,-53.0906)" />
  <polyline
     class="StaffLines"
     points="28.3465,77.9528 566.929,77.9528"
     id="polyline14"
     style="fill:none;stroke:#000000;stroke-width:0.40000001;stroke-linejoin:bevel"
     transform="translate(-26.5865,-53.0906)" />
  <polyline
     class="StaffLines"
     points="28.3465,82.9134 566.929,82.9134"
     id="polyline16"
     style="fill:none;stroke:#000000;stroke-width:0.40000001;stroke-linejoin:bevel"
     transform="translate(-26.5865,-53.0906)" />
  <polyline
     class="StaffLines"
     points="28.3465,157.323 566.929,157.323"
     id="polyline18"
     style="fill:none;stroke:#000000;stroke-width:0.40000001;stroke-linejoin:bevel"
     transform="translate(-26.5865,-53.0906)" />
  <polyline
     class="StaffLines"
     points="28.3465,162.283 566.929,162.283"
     id="polyline20"
     style="fill:none;stroke:#000000;stroke-width:0.40000001;stroke-linejoin:bevel"
     transform="translate(-26.5865,-53.0906)" />
  <polyline
     class="StaffLines"
     points="28.3465,167.244 566.929,167.244"
     id="polyline22"
     style="fill:none;stroke:#000000;stroke-width:0.40000001;stroke-linejoin:bevel"
     transform="translate(-26.5865,-53.0906)" />
  <polyline
     class="StaffLines"
     points="28.3465,172.205 566.929,172.205"
     id="polyline24"
     style="fill:none;stroke:#000000;stroke-width:0.40000001;stroke-linejoin:bevel"
     transform="translate(-26.5865,-53.0906)" />
  <polyline
     class="StaffLines"
     points="28.3465,177.165 566.929,177.165"
     id="polyline26"
     style="fill:none;stroke:#000000;stroke-width:0.40000001;stroke-linejoin:bevel"
     transform="translate(-26.5865,-53.0906)" />
  <path
     class="Text"
     d="m 0.232,92.8934 -0.024,-0.16 c 0.608,-0.107 1.124,-0.366 1.548,-0.776 0.424,-0.411 0.7186,-0.942 0.884,-1.592 -0.3947,0.304 -0.7947,0.456 -1.2,0.456 -0.432,0 -0.78,-0.15 -1.044,-0.448 C 0.132,90.0744 0,89.6824 0,89.1974 c 0,-0.539 0.1586,-0.988 0.476,-1.348 0.3173,-0.36 0.7133,-0.54 1.188,-0.54 0.5173,0 0.9413,0.21 1.272,0.632 0.3306,0.421 0.496,0.962 0.496,1.624 0,0.213 -0.0187,0.432 -0.056,0.656 -0.0374,0.224 -0.124,0.489 -0.26,0.796 -0.136,0.306 -0.3134,0.581 -0.532,0.824 -0.2187,0.242 -0.5307,0.462 -0.936,0.66 -0.4054,0.197 -0.8774,0.328 -1.416,0.392 m 1.496,-2.416 c 0.1013,0 0.216,-0.015 0.344,-0.044 0.128,-0.03 0.2573,-0.094 0.388,-0.192 0.1306,-0.099 0.196,-0.22 0.196,-0.364 l 0,-0.312 c 0,-1.355 -0.352,-2.032 -1.056,-2.032 -0.1654,0 -0.3067,0.044 -0.424,0.132 -0.1174,0.088 -0.2067,0.204 -0.268,0.348 -0.0614,0.144 -0.1054,0.29 -0.132,0.44 -0.0267,0.149 -0.04,0.306 -0.04,0.472 0,0.474 0.0893,0.852 0.268,1.132 0.1786,0.28 0.42,0.42 0.724,0.42"
     id="path28"
     inkscape:connector-curvature="0" />
  <polyline
     class="BarLine"
     points="562.068,157.323 562.068,177.165"
     id="polyline30"
     style="fill:none;stroke:#000000;stroke-width:0.79000002;stroke-linejoin:bevel"
     transform="translate(-26.5865,-53.0906)" />
  <polyline
     class="BarLine"
     points="565.689,157.323 565.689,177.165"
     id="polyline32"
     style="fill:none;stroke:#000000;stroke-width:2.48000002;stroke-linejoin:bevel"
     transform="translate(-26.5865,-53.0906)" />
  <polyline
     class="BarLine"
     points="454.281,157.323 454.281,177.165"
     id="polyline34"
     style="fill:none;stroke:#000000;stroke-width:0.79000002;stroke-linejoin:bevel"
     transform="translate(-26.5865,-53.0906)" />
  <polyline
     class="BarLine"
     points="327.111,157.323 327.111,177.165"
     id="polyline36"
     style="fill:none;stroke:#000000;stroke-width:0.79000002;stroke-linejoin:bevel"
     transform="translate(-26.5865,-53.0906)" />
  <polyline
     class="BarLine"
     points="192.171,157.323 192.171,177.165"
     id="polyline38"
     style="fill:none;stroke:#000000;stroke-width:0.79000002;stroke-linejoin:bevel"
     transform="translate(-26.5865,-53.0906)" />
  <polyline
     class="BarLine"
     points="566.532,63.0709 566.532,82.9134"
     id="polyline40"
     style="fill:none;stroke:#000000;stroke-width:0.79000002;stroke-linejoin:bevel"
     transform="translate(-26.5865,-53.0906)" />
  <polyline
     class="BarLine"
     points="513.405,63.0709 513.405,82.9134"
     id="polyline42"
     style="fill:none;stroke:#000000;stroke-width:0.79000002;stroke-linejoin:bevel"
     transform="translate(-26.5865,-53.0906)" />
  <polyline
     class="BarLine"
     points="444.913,63.0709 444.913,82.9134"
     id="polyline44"
     style="fill:none;stroke:#000000;stroke-width:0.79000002;stroke-linejoin:bevel"
     transform="translate(-26.5865,-53.0906)" />
  <polyline
     class="BarLine"
     points="384.194,63.0709 384.194,82.9134"
     id="polyline46"
     style="fill:none;stroke:#000000;stroke-width:0.79000002;stroke-linejoin:bevel"
     transform="translate(-26.5865,-53.0906)" />
  <polyline
     class="BarLine"
     points="323.474,63.0709 323.474,82.9134"
     id="polyline48"
     style="fill:none;stroke:#000000;stroke-width:0.79000002;stroke-linejoin:bevel"
     transform="translate(-26.5865,-53.0906)" />
  <polyline
     class="BarLine"
     points="247.212,63.0709 247.212,82.9134"
     id="polyline50"
     style="fill:none;stroke:#000000;stroke-width:0.79000002;stroke-linejoin:bevel"
     transform="translate(-26.5865,-53.0906)" />
  <polyline
     class="BarLine"
     points="186.492,63.0709 186.492,82.9134"
     id="polyline52"
     style="fill:none;stroke:#000000;stroke-width:0.79000002;stroke-linejoin:bevel"
     transform="translate(-26.5865,-53.0906)" />
  <polyline
     class="BarLine"
     points="125.772,63.0709 125.772,82.9134"
     id="polyline54"
     style="fill:none;stroke:#000000;stroke-width:0.79000002;stroke-linejoin:bevel"
     transform="translate(-26.5865,-53.0906)" />
  <polyline
     class="Stem"
     points="532.356,171.273 532.356,155.463"
     id="polyline56"
     style="fill:none;stroke:#000000;stroke-width:0.63999999;stroke-linecap:round;stroke-linejoin:bevel"
     transform="translate(-26.5865,-53.0906)" />
  <polyline
     class="Stem"
     points="510.155,168.793 510.155,153.602"
     id="polyline58"
     style="fill:none;stroke:#000000;stroke-width:0.63999999;stroke-linecap:round;stroke-linejoin:bevel"
     transform="translate(-26.5865,-53.0906)" />
  <polyline
     class="Stem"
     points="460.953,168.176 460.953,182.746"
     id="polyline60"
     style="fill:none;stroke:#000000;stroke-width:0.63999999;stroke-linecap:round;stroke-linejoin:bevel"
     transform="translate(-26.5865,-53.0906)" />
  <polyline
     class="Stem"
     points="424.101,165.695 424.101,180.886"
     id="polyline62"
     style="fill:none;stroke:#000000;stroke-width:0.63999999;stroke-linecap:round;stroke-linejoin:bevel"
     transform="translate(-26.5865,-53.0906)" />
  <polyline
     class="Stem"
     points="393.995,165.695 393.995,180.886"
     id="polyline64"
     style="fill:none;stroke:#000000;stroke-width:0.63999999;stroke-linecap:round;stroke-linejoin:bevel"
     transform="translate(-26.5865,-53.0906)" />
  <polyline
     class="Stem"
     points="363.889,168.176 363.889,182.746"
     id="polyline66"
     style="fill:none;stroke:#000000;stroke-width:0.63999999;stroke-linecap:round;stroke-linejoin:bevel"
     transform="translate(-26.5865,-53.0906)" />
  <polyline
     class="Stem"
     points="339.67,168.793 339.67,153.602"
     id="polyline68"
     style="fill:none;stroke:#000000;stroke-width:0.63999999;stroke-linecap:round;stroke-linejoin:bevel"
     transform="translate(-26.5865,-53.0906)" />
  <polyline
     class="Stem"
     points="302.76,171.273 302.76,155.463"
     id="polyline70"
     style="fill:none;stroke:#000000;stroke-width:0.63999999;stroke-linecap:round;stroke-linejoin:bevel"
     transform="translate(-26.5865,-53.0906)" />
  <polyline
     class="Stem"
     points="272.596,173.753 272.596,157.323"
     id="polyline72"
     style="fill:none;stroke:#000000;stroke-width:0.63999999;stroke-linecap:round;stroke-linejoin:bevel"
     transform="translate(-26.5865,-53.0906)" />
  <polyline
     class="Stem"
     points="242.433,176.234 242.433,159.803"
     id="polyline74"
     style="fill:none;stroke:#000000;stroke-width:0.63999999;stroke-linecap:round;stroke-linejoin:bevel"
     transform="translate(-26.5865,-53.0906)" />
  <polyline
     class="Stem"
     points="223.581,178.714 223.581,166.004"
     id="polyline76"
     style="fill:none;stroke:#000000;stroke-width:0.63999999;stroke-linecap:round;stroke-linejoin:bevel"
     transform="translate(-26.5865,-53.0906)" />
  <polyline
     class="Stem"
     points="204.729,181.194 204.729,167.244"
     id="polyline78"
     style="fill:none;stroke:#000000;stroke-width:0.63999999;stroke-linecap:round;stroke-linejoin:bevel"
     transform="translate(-26.5865,-53.0906)" />
  <polyline
     class="Stem"
     points="168.918,176.234 168.918,159.803"
     id="polyline80"
     style="fill:none;stroke:#000000;stroke-width:0.63999999;stroke-linecap:round;stroke-linejoin:bevel"
     transform="translate(-26.5865,-53.0906)" />
  <polyline
     class="Stem"
     points="139.854,173.753 139.854,157.323"
     id="polyline82"
     style="fill:none;stroke:#000000;stroke-width:0.63999999;stroke-linecap:round;stroke-linejoin:bevel"
     transform="translate(-26.5865,-53.0906)" />
  <polyline
     class="Stem"
     points="110.79,171.273 110.79,155.463"
     id="polyline84"
     style="fill:none;stroke:#000000;stroke-width:0.63999999;stroke-linecap:round;stroke-linejoin:bevel"
     transform="translate(-26.5865,-53.0906)" />
  <polyline
     class="Stem"
     points="81.7259,168.793 81.7259,153.602"
     id="polyline86"
     style="fill:none;stroke:#000000;stroke-width:0.63999999;stroke-linecap:round;stroke-linejoin:bevel"
     transform="translate(-26.5865,-53.0906)" />
  <polyline
     class="Stem"
     points="559.51,74.5408 559.51,59.3504"
     id="polyline88"
     style="fill:none;stroke:#000000;stroke-width:0.63999999;stroke-linecap:round;stroke-linejoin:bevel"
     transform="translate(-26.5865,-53.0906)" />
  <polyline
     class="Stem"
     points="546.676,77.0211 546.676,61.2106"
     id="polyline90"
     style="fill:none;stroke:#000000;stroke-width:0.63999999;stroke-linecap:round;stroke-linejoin:bevel"
     transform="translate(-26.5865,-53.0906)" />
  <polyline
     class="Stem"
     points="526.321,79.6711 526.321,63.0709"
     id="polyline92"
     style="fill:none;stroke:#000000;stroke-width:0.63999999;stroke-linecap:round;stroke-linejoin:bevel"
     transform="translate(-26.5865,-53.0906)" />
  <polyline
     class="Stem"
     points="507.725,77.0211 507.725,63.0709"
     id="polyline94"
     style="fill:none;stroke:#000000;stroke-width:0.63999999;stroke-linecap:round;stroke-linejoin:bevel"
     transform="translate(-26.5865,-53.0906)" />
  <polyline
     class="Stem"
     points="499.06,74.5408 499.06,61.8307"
     id="polyline96"
     style="fill:none;stroke:#000000;stroke-width:0.63999999;stroke-linecap:round;stroke-linejoin:bevel"
     transform="translate(-26.5865,-53.0906)" />
  <polyline
     class="Stem"
     points="485.197,77.0211 485.197,61.2106"
     id="polyline98"
     style="fill:none;stroke:#000000;stroke-width:0.63999999;stroke-linecap:round;stroke-linejoin:bevel"
     transform="translate(-26.5865,-53.0906)" />
  <polyline
     class="Stem"
     points="471.335,79.5014 471.335,63.0709"
     id="polyline100"
     style="fill:none;stroke:#000000;stroke-width:0.63999999;stroke-linecap:round;stroke-linejoin:bevel"
     transform="translate(-26.5865,-53.0906)" />
  <polyline
     class="Stem"
     points="457.472,79.5014 457.472,63.0709"
     id="polyline102"
     style="fill:none;stroke:#000000;stroke-width:0.63999999;stroke-linecap:round;stroke-linejoin:bevel"
     transform="translate(-26.5865,-53.0906)" />
  <polyline
     class="Stem"
     points="437.232,79.5014 437.232,63.0709"
     id="polyline104"
     style="fill:none;stroke:#000000;stroke-width:0.63999999;stroke-linecap:round;stroke-linejoin:bevel"
     transform="translate(-26.5865,-53.0906)" />
  <polyline
     class="Stem"
     points="423.738,77.0211 423.738,61.2106"
     id="polyline106"
     style="fill:none;stroke:#000000;stroke-width:0.63999999;stroke-linecap:round;stroke-linejoin:bevel"
     transform="translate(-26.5865,-53.0906)" />
  <polyline
     class="Stem"
     points="410.245,74.5408 410.245,59.3504"
     id="polyline108"
     style="fill:none;stroke:#000000;stroke-width:0.63999999;stroke-linecap:round;stroke-linejoin:bevel"
     transform="translate(-26.5865,-53.0906)" />
  <polyline
     class="Stem"
     points="396.752,74.5408 396.752,59.3504"
     id="polyline110"
     style="fill:none;stroke:#000000;stroke-width:0.63999999;stroke-linecap:round;stroke-linejoin:bevel"
     transform="translate(-26.5865,-53.0906)" />
  <polyline
     class="Stem"
     points="376.512,77.0211 376.512,61.2106"
     id="polyline112"
     style="fill:none;stroke:#000000;stroke-width:0.63999999;stroke-linecap:round;stroke-linejoin:bevel"
     transform="translate(-26.5865,-53.0906)" />
  <polyline
     class="Stem"
     points="363.019,74.5408 363.019,59.3504"
     id="polyline114"
     style="fill:none;stroke:#000000;stroke-width:0.63999999;stroke-linecap:round;stroke-linejoin:bevel"
     transform="translate(-26.5865,-53.0906)" />
  <polyline
     class="Stem"
     points="349.525,74.5408 349.525,59.3504"
     id="polyline116"
     style="fill:none;stroke:#000000;stroke-width:0.63999999;stroke-linecap:round;stroke-linejoin:bevel"
     transform="translate(-26.5865,-53.0906)" />
  <polyline
     class="Stem"
     points="336.032,77.0211 336.032,61.2106"
     id="polyline118"
     style="fill:none;stroke:#000000;stroke-width:0.63999999;stroke-linecap:round;stroke-linejoin:bevel"
     transform="translate(-26.5865,-53.0906)" />
  <polyline
     class="Stem"
     points="317.794,79.5014 317.794,66.7913"
     id="polyline120"
     style="fill:none;stroke:#000000;stroke-width:0.63999999;stroke-linecap:round;stroke-linejoin:bevel"
     transform="translate(-26.5865,-53.0906)" />
  <polyline
     class="Stem"
     points="308.435,81.9817 308.435,68.0315"
     id="polyline122"
     style="fill:none;stroke:#000000;stroke-width:0.63999999;stroke-linecap:round;stroke-linejoin:bevel"
     transform="translate(-26.5865,-53.0906)" />
  <polyline
     class="Stem"
     points="293.461,79.5014 293.461,63.0709"
     id="polyline124"
     style="fill:none;stroke:#000000;stroke-width:0.63999999;stroke-linecap:round;stroke-linejoin:bevel"
     transform="translate(-26.5865,-53.0906)" />
  <polyline
     class="Stem"
     points="284.102,77.0211 284.102,63.0709"
     id="polyline126"
     style="fill:none;stroke:#000000;stroke-width:0.63999999;stroke-linecap:round;stroke-linejoin:bevel"
     transform="translate(-26.5865,-53.0906)" />
  <polyline
     class="Stem"
     points="274.744,74.5408 274.744,61.8307"
     id="polyline128"
     style="fill:none;stroke:#000000;stroke-width:0.63999999;stroke-linecap:round;stroke-linejoin:bevel"
     transform="translate(-26.5865,-53.0906)" />
  <polyline
     class="Stem"
     points="259.77,77.0211 259.77,61.2106"
     id="polyline130"
     style="fill:none;stroke:#000000;stroke-width:0.63999999;stroke-linecap:round;stroke-linejoin:bevel"
     transform="translate(-26.5865,-53.0906)" />
  <polyline
     class="Stem"
     points="239.53,79.5014 239.53,63.0709"
     id="polyline132"
     style="fill:none;stroke:#000000;stroke-width:0.63999999;stroke-linecap:round;stroke-linejoin:bevel"
     transform="translate(-26.5865,-53.0906)" />
  <polyline
     class="Stem"
     points="226.037,81.9817 226.037,65.5512"
     id="polyline134"
     style="fill:none;stroke:#000000;stroke-width:0.63999999;stroke-linecap:round;stroke-linejoin:bevel"
     transform="translate(-26.5865,-53.0906)" />
  <polyline
     class="Stem"
     points="212.543,79.5014 212.543,63.0709"
     id="polyline136"
     style="fill:none;stroke:#000000;stroke-width:0.63999999;stroke-linecap:round;stroke-linejoin:bevel"
     transform="translate(-26.5865,-53.0906)" />
  <polyline
     class="Stem"
     points="199.05,77.0211 199.05,61.2106"
     id="polyline138"
     style="fill:none;stroke:#000000;stroke-width:0.63999999;stroke-linecap:round;stroke-linejoin:bevel"
     transform="translate(-26.5865,-53.0906)" />
  <polyline
     class="Stem"
     points="178.81,74.5408 178.81,59.3504"
     id="polyline140"
     style="fill:none;stroke:#000000;stroke-width:0.63999999;stroke-linecap:round;stroke-linejoin:bevel"
     transform="translate(-26.5865,-53.0906)" />
  <polyline
     class="Stem"
     points="165.317,74.5408 165.317,59.3504"
     id="polyline142"
     style="fill:none;stroke:#000000;stroke-width:0.63999999;stroke-linecap:round;stroke-linejoin:bevel"
     transform="translate(-26.5865,-53.0906)" />
  <polyline
     class="Stem"
     points="151.823,79.5014 151.823,63.0709"
     id="polyline144"
     style="fill:none;stroke:#000000;stroke-width:0.63999999;stroke-linecap:round;stroke-linejoin:bevel"
     transform="translate(-26.5865,-53.0906)" />
  <polyline
     class="Stem"
     points="138.33,79.5014 138.33,63.0709"
     id="polyline146"
     style="fill:none;stroke:#000000;stroke-width:0.63999999;stroke-linecap:round;stroke-linejoin:bevel"
     transform="translate(-26.5865,-53.0906)" />
  <polyline
     class="Stem"
     points="118.235,81.9817 118.235,65.5512"
     id="polyline148"
     style="fill:none;stroke:#000000;stroke-width:0.63999999;stroke-linecap:round;stroke-linejoin:bevel"
     transform="translate(-26.5865,-53.0906)" />
  <polyline
     class="LedgerLine"
     points="197.032,182.126 206.539,182.126"
     id="polyline150"
     style="fill:none;stroke:#000000;stroke-width:0.79000002;stroke-linecap:square;stroke-linejoin:bevel"
     transform="translate(-26.5865,-53.0906)" />
  <path
     class="Note"
     d="m 503.9555,116.3604 c 0.625,0 1.153,0.163 1.582,0.488 0.404,0.352 0.606,0.794 0.606,1.328 0,0.899 -0.462,1.739 -1.387,2.52 -0.937,0.781 -1.94,1.172 -3.008,1.172 -0.625,0 -1.152,-0.163 -1.582,-0.489 -0.403,-0.351 -0.605,-0.794 -0.605,-1.328 0,-0.898 0.469,-1.738 1.406,-2.519 0.912,-0.782 1.908,-1.172 2.988,-1.172"
     id="path152"
     inkscape:connector-curvature="0" />
  <path
     class="Note"
     d="m 481.7545,113.8804 c 0.625,0 1.152,0.162 1.582,0.488 0.403,0.351 0.605,0.794 0.605,1.328 0,0.898 -0.462,1.738 -1.387,2.519 -0.937,0.782 -1.94,1.172 -3.007,1.172 -0.625,0 -1.153,-0.162 -1.582,-0.488 -0.404,-0.352 -0.606,-0.794 -0.606,-1.328 0,-0.899 0.469,-1.738 1.406,-2.52 0.912,-0.781 1.908,-1.171 2.989,-1.171"
     id="path154"
     inkscape:connector-curvature="0" />
  <path
     class="Note"
     d="m 438.4385,111.3994 c 0.625,0 1.153,0.163 1.582,0.488 0.404,0.352 0.606,0.795 0.606,1.329 0,0.898 -0.462,1.738 -1.387,2.519 -0.937,0.781 -1.94,1.172 -3.008,1.172 -0.625,0 -1.152,-0.163 -1.582,-0.488 -0.403,-0.352 -0.605,-0.795 -0.605,-1.328 0,-0.899 0.468,-1.739 1.406,-2.52 0.911,-0.781 1.908,-1.172 2.988,-1.172"
     id="path156"
     inkscape:connector-curvature="0" />
  <path
     class="Note"
     d="m 401.5865,108.9194 c 0.625,0 1.152,0.163 1.582,0.488 0.404,0.352 0.605,0.794 0.605,1.328 0,0.899 -0.462,1.739 -1.386,2.52 -0.938,0.781 -1.94,1.172 -3.008,1.172 -0.625,0 -1.152,-0.163 -1.582,-0.489 -0.404,-0.351 -0.606,-0.794 -0.606,-1.328 0,-0.898 0.469,-1.738 1.407,-2.519 0.911,-0.782 1.907,-1.172 2.988,-1.172"
     id="path158"
     inkscape:connector-curvature="0" />
  <path
     class="Note"
     d="m 371.4805,108.9194 c 0.625,0 1.153,0.163 1.582,0.488 0.404,0.352 0.606,0.794 0.606,1.328 0,0.899 -0.463,1.739 -1.387,2.52 -0.938,0.781 -1.94,1.172 -3.008,1.172 -0.625,0 -1.152,-0.163 -1.582,-0.489 -0.404,-0.351 -0.605,-0.794 -0.605,-1.328 0,-0.898 0.468,-1.738 1.406,-2.519 0.911,-0.782 1.907,-1.172 2.988,-1.172"
     id="path160"
     inkscape:connector-curvature="0" />
  <path
     class="Note"
     d="m 341.3745,111.3994 c 0.625,0 1.153,0.163 1.582,0.488 0.404,0.352 0.606,0.795 0.606,1.329 0,0.898 -0.462,1.738 -1.387,2.519 -0.937,0.781 -1.94,1.172 -3.008,1.172 -0.625,0 -1.152,-0.163 -1.582,-0.488 -0.403,-0.352 -0.605,-0.795 -0.605,-1.328 0,-0.899 0.469,-1.739 1.406,-2.52 0.912,-0.781 1.908,-1.172 2.988,-1.172"
     id="path162"
     inkscape:connector-curvature="0" />
  <path
     class="Note"
     d="m 311.2695,113.8804 c 0.625,0 1.152,0.162 1.582,0.488 0.403,0.351 0.605,0.794 0.605,1.328 0,0.898 -0.462,1.738 -1.387,2.519 -0.937,0.782 -1.94,1.172 -3.007,1.172 -0.625,0 -1.153,-0.162 -1.583,-0.488 -0.403,-0.352 -0.605,-0.794 -0.605,-1.328 0,-0.899 0.469,-1.738 1.406,-2.52 0.912,-0.781 1.908,-1.171 2.989,-1.171"
     id="path164"
     inkscape:connector-curvature="0" />
  <path
     class="Note"
     d="m 274.3595,116.3604 c 0.625,0 1.152,0.163 1.582,0.488 0.403,0.352 0.605,0.794 0.605,1.328 0,0.899 -0.462,1.739 -1.387,2.52 -0.937,0.781 -1.94,1.172 -3.007,1.172 -0.625,0 -1.153,-0.163 -1.582,-0.489 -0.404,-0.351 -0.606,-0.794 -0.606,-1.328 0,-0.898 0.469,-1.738 1.406,-2.519 0.912,-0.782 1.908,-1.172 2.989,-1.172"
     id="path166"
     inkscape:connector-curvature="0" />
  <path
     class="Note"
     d="m 244.1955,118.8404 c 0.625,0 1.153,0.163 1.582,0.488 0.404,0.352 0.606,0.795 0.606,1.329 0,0.898 -0.462,1.738 -1.387,2.519 -0.937,0.781 -1.94,1.172 -3.008,1.172 -0.625,0 -1.152,-0.163 -1.582,-0.488 -0.403,-0.352 -0.605,-0.795 -0.605,-1.328 0,-0.899 0.469,-1.739 1.406,-2.52 0.911,-0.781 1.908,-1.172 2.988,-1.172"
     id="path168"
     inkscape:connector-curvature="0" />
  <path
     class="Note"
     d="m 214.0325,121.3204 c 0.625,0 1.152,0.163 1.582,0.489 0.404,0.351 0.605,0.794 0.605,1.328 0,0.898 -0.462,1.738 -1.386,2.519 -0.938,0.782 -1.94,1.172 -3.008,1.172 -0.625,0 -1.152,-0.162 -1.582,-0.488 -0.404,-0.352 -0.606,-0.794 -0.606,-1.328 0,-0.899 0.469,-1.738 1.407,-2.52 0.911,-0.781 1.907,-1.172 2.988,-1.172"
     id="path170"
     inkscape:connector-curvature="0" />
  <path
     class="Note"
     d="m 195.1805,123.8014 c 0.625,0 1.152,0.163 1.582,0.488 0.403,0.352 0.605,0.794 0.605,1.328 0,0.899 -0.462,1.738 -1.386,2.52 -0.938,0.781 -1.941,1.172 -3.008,1.172 -0.625,0 -1.153,-0.163 -1.582,-0.489 -0.404,-0.351 -0.606,-0.794 -0.606,-1.328 0,-0.898 0.469,-1.738 1.407,-2.519 0.911,-0.782 1.907,-1.172 2.988,-1.172"
     id="path172"
     inkscape:connector-curvature="0" />
  <path
     class="Note"
     d="m 176.3285,126.2814 c 0.625,0 1.152,0.163 1.582,0.488 0.403,0.352 0.605,0.795 0.605,1.328 0,0.899 -0.462,1.739 -1.387,2.52 -0.937,0.781 -1.94,1.172 -3.007,1.172 -0.625,0 -1.153,-0.163 -1.582,-0.488 -0.404,-0.352 -0.606,-0.795 -0.606,-1.329 0,-0.898 0.469,-1.738 1.406,-2.519 0.912,-0.781 1.908,-1.172 2.989,-1.172"
     id="path174"
     inkscape:connector-curvature="0" />
  <path
     class="Note"
     d="m 140.5175,121.3204 c 0.625,0 1.153,0.163 1.582,0.489 0.404,0.351 0.606,0.794 0.606,1.328 0,0.898 -0.463,1.738 -1.387,2.519 -0.938,0.782 -1.94,1.172 -3.008,1.172 -0.625,0 -1.152,-0.162 -1.582,-0.488 -0.404,-0.352 -0.605,-0.794 -0.605,-1.328 0,-0.899 0.468,-1.738 1.406,-2.52 0.911,-0.781 1.907,-1.172 2.988,-1.172"
     id="path176"
     inkscape:connector-curvature="0" />
  <path
     class="Note"
     d="m 111.4535,118.8404 c 0.625,0 1.152,0.163 1.582,0.488 0.404,0.352 0.606,0.795 0.606,1.329 0,0.898 -0.463,1.738 -1.387,2.519 -0.938,0.781 -1.94,1.172 -3.008,1.172 -0.625,0 -1.152,-0.163 -1.582,-0.488 -0.404,-0.352 -0.605,-0.795 -0.605,-1.328 0,-0.899 0.468,-1.739 1.406,-2.52 0.911,-0.781 1.907,-1.172 2.988,-1.172"
     id="path178"
     inkscape:connector-curvature="0" />
  <path
     class="Note"
     d="m 82.3895,116.3604 c 0.625,0 1.152,0.163 1.582,0.488 0.404,0.352 0.606,0.794 0.606,1.328 0,0.899 -0.463,1.739 -1.387,2.52 -0.938,0.781 -1.94,1.172 -3.008,1.172 -0.625,0 -1.152,-0.163 -1.582,-0.489 -0.404,-0.351 -0.606,-0.794 -0.606,-1.328 0,-0.898 0.469,-1.738 1.407,-2.519 0.911,-0.782 1.907,-1.172 2.988,-1.172"
     id="path180"
     inkscape:connector-curvature="0" />
  <path
     class="Note"
     d="m 53.3254,113.8804 c 0.625,0 1.1524,0.162 1.5821,0.488 0.4036,0.351 0.6054,0.794 0.6054,1.328 0,0.898 -0.4622,1.738 -1.3867,2.519 -0.9375,0.782 -1.9401,1.172 -3.0078,1.172 -0.625,0 -1.1523,-0.162 -1.582,-0.488 -0.4037,-0.352 -0.6055,-0.794 -0.6055,-1.328 0,-0.899 0.4687,-1.738 1.4062,-2.52 0.9115,-0.781 1.9076,-1.171 2.9883,-1.171"
     id="path182"
     inkscape:connector-curvature="0" />
  <path
     class="Note"
     d="m 531.1095,19.6279 c 0.625,0 1.152,0.1628 1.582,0.4883 0.404,0.3516 0.605,0.7943 0.605,1.3281 0,0.8985 -0.462,1.7383 -1.386,2.5196 -0.938,0.7812 -1.94,1.1718 -3.008,1.1718 -0.625,0 -1.152,-0.1627 -1.582,-0.4882 -0.404,-0.3516 -0.606,-0.7943 -0.606,-1.3282 0,-0.8984 0.469,-1.7382 1.407,-2.5195 0.911,-0.7812 1.907,-1.1719 2.988,-1.1719"
     id="path184"
     inkscape:connector-curvature="0" />
  <path
     class="Note"
     d="m 518.2755,22.1082 c 0.625,0 1.152,0.1628 1.582,0.4883 0.404,0.3516 0.606,0.7943 0.606,1.3282 0,0.8984 -0.463,1.7382 -1.387,2.5195 -0.938,0.7812 -1.94,1.1719 -3.008,1.1719 -0.625,0 -1.152,-0.1628 -1.582,-0.4883 -0.404,-0.3516 -0.605,-0.7943 -0.605,-1.3281 0,-0.8985 0.468,-1.7383 1.406,-2.5196 0.911,-0.7812 1.907,-1.1719 2.988,-1.1719"
     id="path186"
     inkscape:connector-curvature="0" />
  <path
     class="Note"
     d="m 499.4765,26.0339 c 0,-0.2214 -0.085,-0.4102 -0.254,-0.5664 -0.169,-0.1693 -0.365,-0.2539 -0.586,-0.2539 -0.391,0 -1.179,0.3906 -2.363,1.1718 -1.224,0.7943 -1.973,1.3607 -2.247,1.6993 -0.143,0.1823 -0.214,0.3711 -0.214,0.5664 0,0.2213 0.084,0.4101 0.254,0.5664 0.156,0.1692 0.351,0.2539 0.585,0.2539 0.378,0 1.172,-0.3906 2.383,-1.1719 1.198,-0.7812 1.94,-1.3477 2.227,-1.6992 0.143,-0.1693 0.215,-0.3581 0.215,-0.5664 m -1.035,-1.4453 c 1.119,0 1.679,0.4817 1.679,1.4453 0,0.4687 -0.136,1.0156 -0.41,1.6406 -0.273,0.612 -0.638,1.0807 -1.094,1.4063 -1.002,0.677 -2.259,1.0156 -3.769,1.0156 -1.12,0 -1.68,-0.4818 -1.68,-1.4453 0,-0.4297 0.137,-0.9701 0.41,-1.6211 0.261,-0.625 0.625,-1.1003 1.094,-1.4258 1.003,-0.6771 2.259,-1.0156 3.77,-1.0156"
     id="path188"
     inkscape:connector-curvature="0" />
  <path
     class="Note"
     d="m 479.3245,22.1082 c 0.625,0 1.152,0.1628 1.582,0.4883 0.403,0.3516 0.605,0.7943 0.605,1.3282 0,0.8984 -0.462,1.7382 -1.387,2.5195 -0.937,0.7812 -1.94,1.1719 -3.007,1.1719 -0.625,0 -1.153,-0.1628 -1.582,-0.4883 -0.404,-0.3516 -0.606,-0.7943 -0.606,-1.3281 0,-0.8985 0.469,-1.7383 1.406,-2.5196 0.912,-0.7812 1.908,-1.1719 2.989,-1.1719"
     id="path190"
     inkscape:connector-curvature="0" />
  <path
     class="Note"
     d="m 470.6595,19.6279 c 0.625,0 1.153,0.1628 1.582,0.4883 0.404,0.3516 0.606,0.7943 0.606,1.3281 0,0.8985 -0.462,1.7383 -1.387,2.5196 -0.937,0.7812 -1.94,1.1718 -3.008,1.1718 -0.625,0 -1.152,-0.1627 -1.582,-0.4882 -0.403,-0.3516 -0.605,-0.7943 -0.605,-1.3282 0,-0.8984 0.468,-1.7382 1.406,-2.5195 0.911,-0.7812 1.908,-1.1719 2.988,-1.1719"
     id="path192"
     inkscape:connector-curvature="0" />
  <path
     class="Note"
     d="m 456.7965,22.1082 c 0.625,0 1.153,0.1628 1.582,0.4883 0.404,0.3516 0.606,0.7943 0.606,1.3282 0,0.8984 -0.462,1.7382 -1.387,2.5195 -0.937,0.7812 -1.94,1.1719 -3.008,1.1719 -0.625,0 -1.152,-0.1628 -1.582,-0.4883 -0.403,-0.3516 -0.605,-0.7943 -0.605,-1.3281 0,-0.8985 0.469,-1.7383 1.406,-2.5196 0.912,-0.7812 1.908,-1.1719 2.988,-1.1719"
     id="path194"
     inkscape:connector-curvature="0" />
  <path
     class="Note"
     d="m 442.9345,24.5886 c 0.625,0 1.152,0.1627 1.582,0.4882 0.403,0.3516 0.605,0.7943 0.605,1.3282 0,0.8984 -0.462,1.7383 -1.387,2.5195 -0.937,0.7813 -1.94,1.1719 -3.008,1.1719 -0.625,0 -1.152,-0.1628 -1.582,-0.4883 -0.403,-0.3516 -0.605,-0.7943 -0.605,-1.3281 0,-0.8985 0.469,-1.7383 1.406,-2.5196 0.912,-0.7812 1.908,-1.1718 2.989,-1.1718"
     id="path196"
     inkscape:connector-curvature="0" />
  <path
     class="Note"
     d="m 429.0715,24.5886 c 0.625,0 1.152,0.1627 1.582,0.4882 0.403,0.3516 0.605,0.7943 0.605,1.3282 0,0.8984 -0.462,1.7383 -1.387,2.5195 -0.937,0.7813 -1.94,1.1719 -3.007,1.1719 -0.625,0 -1.153,-0.1628 -1.582,-0.4883 -0.404,-0.3516 -0.606,-0.7943 -0.606,-1.3281 0,-0.8985 0.469,-1.7383 1.406,-2.5196 0.912,-0.7812 1.908,-1.1718 2.989,-1.1718"
     id="path198"
     inkscape:connector-curvature="0" />
  <path
     class="Note"
     d="m 408.8315,24.5886 c 0.625,0 1.152,0.1627 1.582,0.4882 0.404,0.3516 0.605,0.7943 0.605,1.3282 0,0.8984 -0.462,1.7383 -1.386,2.5195 -0.938,0.7813 -1.94,1.1719 -3.008,1.1719 -0.625,0 -1.153,-0.1628 -1.582,-0.4883 -0.404,-0.3516 -0.606,-0.7943 -0.606,-1.3281 0,-0.8985 0.469,-1.7383 1.407,-2.5196 0.911,-0.7812 1.907,-1.1718 2.988,-1.1718"
     id="path200"
     inkscape:connector-curvature="0" />
  <path
     class="Note"
     d="m 395.3375,22.1082 c 0.625,0 1.153,0.1628 1.583,0.4883 0.403,0.3516 0.605,0.7943 0.605,1.3282 0,0.8984 -0.462,1.7382 -1.387,2.5195 -0.937,0.7812 -1.94,1.1719 -3.008,1.1719 -0.625,0 -1.152,-0.1628 -1.582,-0.4883 -0.403,-0.3516 -0.605,-0.7943 -0.605,-1.3281 0,-0.8985 0.469,-1.7383 1.406,-2.5196 0.912,-0.7812 1.908,-1.1719 2.988,-1.1719"
     id="path202"
     inkscape:connector-curvature="0" />
  <path
     class="Note"
     d="m 381.8445,19.6279 c 0.625,0 1.152,0.1628 1.582,0.4883 0.404,0.3516 0.606,0.7943 0.606,1.3281 0,0.8985 -0.463,1.7383 -1.387,2.5196 -0.938,0.7812 -1.94,1.1718 -3.008,1.1718 -0.625,0 -1.152,-0.1627 -1.582,-0.4882 -0.404,-0.3516 -0.605,-0.7943 -0.605,-1.3282 0,-0.8984 0.468,-1.7382 1.406,-2.5195 0.911,-0.7812 1.907,-1.1719 2.988,-1.1719"
     id="path204"
     inkscape:connector-curvature="0" />
  <path
     class="Note"
     d="m 368.3515,19.6279 c 0.625,0 1.152,0.1628 1.582,0.4883 0.403,0.3516 0.605,0.7943 0.605,1.3281 0,0.8985 -0.462,1.7383 -1.386,2.5196 -0.938,0.7812 -1.941,1.1718 -3.008,1.1718 -0.625,0 -1.153,-0.1627 -1.582,-0.4882 -0.404,-0.3516 -0.606,-0.7943 -0.606,-1.3282 0,-0.8984 0.469,-1.7382 1.406,-2.5195 0.912,-0.7812 1.908,-1.1719 2.989,-1.1719"
     id="path206"
     inkscape:connector-curvature="0" />
  <path
     class="Note"
     d="m 348.1115,22.1082 c 0.625,0 1.152,0.1628 1.582,0.4883 0.404,0.3516 0.605,0.7943 0.605,1.3282 0,0.8984 -0.462,1.7382 -1.386,2.5195 -0.938,0.7812 -1.94,1.1719 -3.008,1.1719 -0.625,0 -1.152,-0.1628 -1.582,-0.4883 -0.404,-0.3516 -0.606,-0.7943 -0.606,-1.3281 0,-0.8985 0.469,-1.7383 1.407,-2.5196 0.911,-0.7812 1.907,-1.1719 2.988,-1.1719"
     id="path208"
     inkscape:connector-curvature="0" />
  <path
     class="Note"
     d="m 334.6185,19.6279 c 0.625,0 1.152,0.1628 1.582,0.4883 0.403,0.3516 0.605,0.7943 0.605,1.3281 0,0.8985 -0.462,1.7383 -1.387,2.5196 -0.937,0.7812 -1.94,1.1718 -3.007,1.1718 -0.625,0 -1.153,-0.1627 -1.582,-0.4882 -0.404,-0.3516 -0.606,-0.7943 -0.606,-1.3282 0,-0.8984 0.469,-1.7382 1.406,-2.5195 0.912,-0.7812 1.908,-1.1719 2.989,-1.1719"
     id="path210"
     inkscape:connector-curvature="0" />
  <path
     class="Note"
     d="m 321.1245,19.6279 c 0.625,0 1.153,0.1628 1.582,0.4883 0.404,0.3516 0.606,0.7943 0.606,1.3281 0,0.8985 -0.462,1.7383 -1.387,2.5196 -0.937,0.7812 -1.94,1.1718 -3.008,1.1718 -0.625,0 -1.152,-0.1627 -1.582,-0.4882 -0.403,-0.3516 -0.605,-0.7943 -0.605,-1.3282 0,-0.8984 0.468,-1.7382 1.406,-2.5195 0.911,-0.7812 1.908,-1.1719 2.988,-1.1719"
     id="path212"
     inkscape:connector-curvature="0" />
  <path
     class="Note"
     d="m 307.6315,22.1082 c 0.625,0 1.152,0.1628 1.582,0.4883 0.404,0.3516 0.605,0.7943 0.605,1.3282 0,0.8984 -0.462,1.7382 -1.386,2.5195 -0.938,0.7812 -1.94,1.1719 -3.008,1.1719 -0.625,0 -1.152,-0.1628 -1.582,-0.4883 -0.404,-0.3516 -0.606,-0.7943 -0.606,-1.3281 0,-0.8985 0.469,-1.7383 1.407,-2.5196 0.911,-0.7812 1.907,-1.1719 2.988,-1.1719"
     id="path214"
     inkscape:connector-curvature="0" />
  <path
     class="Note"
     d="m 289.3935,24.5886 c 0.625,0 1.152,0.1627 1.582,0.4882 0.404,0.3516 0.605,0.7943 0.605,1.3282 0,0.8984 -0.462,1.7383 -1.386,2.5195 -0.938,0.7813 -1.94,1.1719 -3.008,1.1719 -0.625,0 -1.153,-0.1628 -1.582,-0.4883 -0.404,-0.3516 -0.606,-0.7943 -0.606,-1.3281 0,-0.8985 0.469,-1.7383 1.407,-2.5196 0.911,-0.7812 1.907,-1.1718 2.988,-1.1718"
     id="path216"
     inkscape:connector-curvature="0" />
  <path
     class="Note"
     d="m 280.0345,27.0689 c 0.625,0 1.152,0.1627 1.582,0.4883 0.404,0.3515 0.606,0.7942 0.606,1.3281 0,0.8984 -0.463,1.7383 -1.387,2.5195 -0.938,0.7813 -1.94,1.1719 -3.008,1.1719 -0.625,0 -1.152,-0.1628 -1.582,-0.4883 -0.404,-0.3516 -0.605,-0.7943 -0.605,-1.3281 0,-0.8985 0.468,-1.7383 1.406,-2.5195 0.911,-0.7813 1.907,-1.1719 2.988,-1.1719"
     id="path218"
     inkscape:connector-curvature="0" />
  <path
     class="Note"
     d="m 265.0605,24.5886 c 0.625,0 1.153,0.1627 1.582,0.4882 0.404,0.3516 0.606,0.7943 0.606,1.3282 0,0.8984 -0.463,1.7383 -1.387,2.5195 -0.938,0.7813 -1.94,1.1719 -3.008,1.1719 -0.625,0 -1.152,-0.1628 -1.582,-0.4883 -0.404,-0.3516 -0.605,-0.7943 -0.605,-1.3281 0,-0.8985 0.468,-1.7383 1.406,-2.5196 0.911,-0.7812 1.907,-1.1718 2.988,-1.1718"
     id="path220"
     inkscape:connector-curvature="0" />
  <path
     class="Note"
     d="m 255.7015,22.1082 c 0.625,0 1.153,0.1628 1.582,0.4883 0.404,0.3516 0.606,0.7943 0.606,1.3282 0,0.8984 -0.462,1.7382 -1.387,2.5195 -0.937,0.7812 -1.94,1.1719 -3.008,1.1719 -0.625,0 -1.152,-0.1628 -1.582,-0.4883 -0.403,-0.3516 -0.605,-0.7943 -0.605,-1.3281 0,-0.8985 0.469,-1.7383 1.406,-2.5196 0.912,-0.7812 1.908,-1.1719 2.988,-1.1719"
     id="path222"
     inkscape:connector-curvature="0" />
  <path
     class="Note"
     d="m 246.3435,19.6279 c 0.625,0 1.152,0.1628 1.582,0.4883 0.403,0.3516 0.605,0.7943 0.605,1.3281 0,0.8985 -0.462,1.7383 -1.387,2.5196 -0.937,0.7812 -1.94,1.1718 -3.007,1.1718 -0.625,0 -1.153,-0.1627 -1.582,-0.4882 -0.404,-0.3516 -0.606,-0.7943 -0.606,-1.3282 0,-0.8984 0.469,-1.7382 1.406,-2.5195 0.912,-0.7812 1.908,-1.1719 2.989,-1.1719"
     id="path224"
     inkscape:connector-curvature="0" />
  <path
     class="Note"
     d="m 231.3695,22.1082 c 0.625,0 1.152,0.1628 1.582,0.4883 0.403,0.3516 0.605,0.7943 0.605,1.3282 0,0.8984 -0.462,1.7382 -1.386,2.5195 -0.938,0.7812 -1.941,1.1719 -3.008,1.1719 -0.625,0 -1.153,-0.1628 -1.582,-0.4883 -0.404,-0.3516 -0.606,-0.7943 -0.606,-1.3281 0,-0.8985 0.469,-1.7383 1.406,-2.5196 0.912,-0.7812 1.908,-1.1719 2.989,-1.1719"
     id="path226"
     inkscape:connector-curvature="0" />
  <path
     class="Note"
     d="m 211.1295,24.5886 c 0.625,0 1.152,0.1627 1.582,0.4882 0.404,0.3516 0.605,0.7943 0.605,1.3282 0,0.8984 -0.462,1.7383 -1.386,2.5195 -0.938,0.7813 -1.94,1.1719 -3.008,1.1719 -0.625,0 -1.152,-0.1628 -1.582,-0.4883 -0.404,-0.3516 -0.606,-0.7943 -0.606,-1.3281 0,-0.8985 0.469,-1.7383 1.407,-2.5196 0.911,-0.7812 1.907,-1.1718 2.988,-1.1718"
     id="path228"
     inkscape:connector-curvature="0" />
  <path
     class="Note"
     d="m 197.6365,27.0689 c 0.625,0 1.152,0.1627 1.582,0.4883 0.403,0.3515 0.605,0.7942 0.605,1.3281 0,0.8984 -0.462,1.7383 -1.387,2.5195 -0.937,0.7813 -1.94,1.1719 -3.007,1.1719 -0.625,0 -1.153,-0.1628 -1.582,-0.4883 -0.404,-0.3516 -0.606,-0.7943 -0.606,-1.3281 0,-0.8985 0.469,-1.7383 1.406,-2.5195 0.912,-0.7813 1.908,-1.1719 2.989,-1.1719"
     id="path230"
     inkscape:connector-curvature="0" />
  <path
     class="Note"
     d="m 184.1425,24.5886 c 0.625,0 1.153,0.1627 1.582,0.4882 0.404,0.3516 0.606,0.7943 0.606,1.3282 0,0.8984 -0.462,1.7383 -1.387,2.5195 -0.937,0.7813 -1.94,1.1719 -3.008,1.1719 -0.625,0 -1.152,-0.1628 -1.582,-0.4883 -0.403,-0.3516 -0.605,-0.7943 -0.605,-1.3281 0,-0.8985 0.468,-1.7383 1.406,-2.5196 0.911,-0.7812 1.908,-1.1718 2.988,-1.1718"
     id="path232"
     inkscape:connector-curvature="0" />
  <path
     class="Note"
     d="m 170.6495,22.1082 c 0.625,0 1.152,0.1628 1.582,0.4883 0.404,0.3516 0.605,0.7943 0.605,1.3282 0,0.8984 -0.462,1.7382 -1.386,2.5195 -0.938,0.7812 -1.94,1.1719 -3.008,1.1719 -0.625,0 -1.152,-0.1628 -1.582,-0.4883 -0.404,-0.3516 -0.606,-0.7943 -0.606,-1.3281 0,-0.8985 0.469,-1.7383 1.407,-2.5196 0.911,-0.7812 1.907,-1.1719 2.988,-1.1719"
     id="path234"
     inkscape:connector-curvature="0" />
  <path
     class="Note"
     d="m 150.4095,19.6279 c 0.625,0 1.152,0.1628 1.582,0.4883 0.404,0.3516 0.606,0.7943 0.606,1.3281 0,0.8985 -0.463,1.7383 -1.387,2.5196 -0.938,0.7812 -1.94,1.1718 -3.008,1.1718 -0.625,0 -1.152,-0.1627 -1.582,-0.4882 -0.404,-0.3516 -0.605,-0.7943 -0.605,-1.3282 0,-0.8984 0.468,-1.7382 1.406,-2.5195 0.911,-0.7812 1.907,-1.1719 2.988,-1.1719"
     id="path236"
     inkscape:connector-curvature="0" />
  <path
     class="Note"
     d="m 136.9165,19.6279 c 0.625,0 1.152,0.1628 1.582,0.4883 0.403,0.3516 0.605,0.7943 0.605,1.3281 0,0.8985 -0.462,1.7383 -1.386,2.5196 -0.938,0.7812 -1.941,1.1718 -3.008,1.1718 -0.625,0 -1.153,-0.1627 -1.582,-0.4882 -0.404,-0.3516 -0.606,-0.7943 -0.606,-1.3282 0,-0.8984 0.469,-1.7382 1.406,-2.5195 0.912,-0.7812 1.908,-1.1719 2.989,-1.1719"
     id="path238"
     inkscape:connector-curvature="0" />
  <path
     class="Note"
     d="m 123.4225,24.5886 c 0.625,0 1.153,0.1627 1.582,0.4882 0.404,0.3516 0.606,0.7943 0.606,1.3282 0,0.8984 -0.462,1.7383 -1.387,2.5195 -0.937,0.7813 -1.94,1.1719 -3.008,1.1719 -0.625,0 -1.152,-0.1628 -1.582,-0.4883 -0.403,-0.3516 -0.605,-0.7943 -0.605,-1.3281 0,-0.8985 0.469,-1.7383 1.406,-2.5196 0.912,-0.7812 1.908,-1.1718 2.988,-1.1718"
     id="path240"
     inkscape:connector-curvature="0" />
  <path
     class="Note"
     d="m 109.9295,24.5886 c 0.625,0 1.152,0.1627 1.582,0.4882 0.404,0.3516 0.606,0.7943 0.606,1.3282 0,0.8984 -0.463,1.7383 -1.387,2.5195 -0.938,0.7813 -1.94,1.1719 -3.008,1.1719 -0.625,0 -1.152,-0.1628 -1.582,-0.4883 -0.404,-0.3516 -0.606,-0.7943 -0.606,-1.3281 0,-0.8985 0.469,-1.7383 1.407,-2.5196 0.911,-0.7812 1.907,-1.1718 2.988,-1.1718"
     id="path242"
     inkscape:connector-curvature="0" />
  <path
     class="Note"
     d="m 89.8345,27.0689 c 0.625,0 1.153,0.1627 1.582,0.4883 0.404,0.3515 0.606,0.7942 0.606,1.3281 0,0.8984 -0.463,1.7383 -1.387,2.5195 -0.938,0.7813 -1.94,1.1719 -3.008,1.1719 -0.625,0 -1.152,-0.1628 -1.582,-0.4883 -0.404,-0.3516 -0.605,-0.7943 -0.605,-1.3281 0,-0.8985 0.468,-1.7383 1.406,-2.5195 0.911,-0.7813 1.907,-1.1719 2.988,-1.1719"
     id="path244"
     inkscape:connector-curvature="0" />
  <path
     class="Clef"
     d="m 12.2785,113.9974 c 0,0 0.0391,0 0.1172,0 0.0521,-0.013 0.0977,-0.02 0.1367,-0.02 1.4583,0 2.6563,0.514 3.5938,1.543 0.9375,1.016 1.4062,2.2 1.4062,3.555 0,1.679 -0.6966,3.047 -2.0898,4.101 -0.3646,0.287 -0.8399,0.521 -1.4258,0.703 0.0651,0.847 0.0976,1.53 0.0976,2.051 0,0.104 -0.013,0.482 -0.039,1.133 -0.0521,1.211 -0.4688,2.259 -1.25,3.144 -0.7552,0.873 -1.6927,1.309 -2.8125,1.309 -1.0547,0 -1.9531,-0.371 -2.6953,-1.113 -0.7422,-0.755 -1.1133,-1.667 -1.1133,-2.735 0,-0.559 0.2148,-1.035 0.6445,-1.425 0.4427,-0.391 0.9571,-0.586 1.543,-0.586 0.5208,0 0.957,0.202 1.3086,0.605 0.3646,0.378 0.5469,0.847 0.5469,1.406 0,0.508 -0.1823,0.944 -0.5469,1.309 -0.3646,0.365 -0.8008,0.547 -1.3086,0.547 -0.2083,0 -0.4102,-0.039 -0.6055,-0.117 0.5729,0.846 1.3347,1.269 2.2852,1.269 0.8984,0 1.6341,-0.364 2.207,-1.094 0.599,-0.755 0.9245,-1.634 0.9766,-2.636 0.026,-0.625 0.039,-0.983 0.039,-1.074 0,-0.73 -0.026,-1.329 -0.0781,-1.797 -0.651,0.104 -1.2305,0.156 -1.7383,0.156 -1.8099,0 -3.3528,-0.716 -4.6289,-2.149 -1.25,-1.445 -1.875,-3.164 -1.875,-5.156 0,-0.416 0.0391,-0.84 0.1172,-1.269 0.0781,-0.352 0.1758,-0.736 0.293,-1.153 0.0651,-0.234 0.2409,-0.612 0.5273,-1.132 0.1042,-0.157 0.2214,-0.352 0.3516,-0.586 0.1302,-0.235 0.2213,-0.391 0.2734,-0.469 0.1302,-0.261 0.3841,-0.612 0.7617,-1.055 0.1042,-0.117 0.2116,-0.247 0.3223,-0.39 0.1107,-0.144 0.2051,-0.261 0.2832,-0.352 0.0781,-0.091 0.1367,-0.163 0.1758,-0.215 0.0391,-0.052 0.332,-0.397 0.8789,-1.035 0.1302,-0.13 0.2572,-0.27 0.3809,-0.42 0.1237,-0.15 0.2246,-0.267 0.3027,-0.352 0.0781,-0.084 0.1367,-0.146 0.1758,-0.185 -0.4688,-1.55 -0.7617,-2.787 -0.8789,-3.711 -0.0912,-0.742 -0.1368,-1.758 -0.1368,-3.047 0,-1.133 0.2605,-2.194 0.7813,-3.183 0.5078,-1.029 1.2174,-1.869 2.1289,-2.52 0.0651,-0.039 0.1302,-0.059 0.1953,-0.059 0.0912,0 0.1563,0.02 0.1953,0.059 0.7032,0.846 1.3086,1.947 1.8164,3.301 0.5209,1.354 0.7813,2.584 0.7813,3.691 0,1.25 -0.2995,2.422 -0.8985,3.516 -0.677,1.159 -1.5494,2.357 -2.6171,3.594 0.2734,0.859 0.638,2.207 1.0937,4.043 m 1.6602,9.082 c 0.677,-0.248 1.2044,-0.671 1.582,-1.27 0.4167,-0.573 0.625,-1.217 0.625,-1.934 0,-0.924 -0.3125,-1.744 -0.9375,-2.46 -0.638,-0.743 -1.4518,-1.159 -2.4414,-1.25 0.5599,2.747 0.9505,5.052 1.1719,6.914 m -7.5586,-4.512 c 0,1.289 0.5208,2.422 1.5625,3.398 1.0677,0.951 2.2656,1.426 3.5937,1.426 0.5469,0 1.0808,-0.039 1.6016,-0.117 -0.2083,-1.979 -0.6185,-4.349 -1.2305,-7.109 -0.7422,0.078 -1.3346,0.338 -1.7773,0.781 -0.4297,0.455 -0.6446,0.97 -0.6446,1.543 0,0.989 0.5274,1.79 1.5821,2.402 0.0911,0.091 0.1367,0.189 0.1367,0.293 0,0.104 -0.0456,0.202 -0.1367,0.293 -0.0782,0.091 -0.1758,0.137 -0.293,0.137 -0.013,0 -0.0716,-0.013 -0.1758,-0.039 -0.7422,-0.404 -1.3151,-0.925 -1.7187,-1.563 -0.3776,-0.677 -0.5664,-1.361 -0.5664,-2.051 0,-0.898 0.2799,-1.712 0.8398,-2.441 0.5859,-0.729 1.3477,-1.198 2.2852,-1.406 -0.3646,-1.459 -0.6641,-2.598 -0.8985,-3.418 -0.2083,0.234 -0.459,0.517 -0.7519,0.849 -0.293,0.332 -0.4655,0.531 -0.5176,0.596 -0.4688,0.612 -0.8268,1.087 -1.0742,1.426 -0.4427,0.612 -0.7683,1.139 -0.9766,1.582 -0.2213,0.495 -0.4167,1.035 -0.5859,1.621 -0.1693,0.56 -0.2539,1.159 -0.2539,1.797 m 6.5234,-19.863 c -0.9766,0.481 -1.7448,1.171 -2.3047,2.07 -0.5729,0.924 -0.8594,1.92 -0.8594,2.988 0,0.938 0.2344,2.201 0.7032,3.789 0.9375,-1.133 1.6406,-2.181 2.1093,-3.144 0.4948,-1.016 0.7422,-2.077 0.7422,-3.184 0,-0.833 -0.1302,-1.673 -0.3906,-2.519"
     id="path246"
     inkscape:connector-curvature="0" />
  <path
     class="Clef"
     d="m 12.2785,19.745 c 0,0 0.0391,0 0.1172,0 0.0521,-0.0131 0.0977,-0.0196 0.1367,-0.0196 1.4583,0 2.6563,0.5144 3.5938,1.543 0.9375,1.0156 1.4062,2.2005 1.4062,3.5547 0,1.6797 -0.6966,3.0469 -2.0898,4.1016 -0.3646,0.2864 -0.8399,0.5208 -1.4258,0.7031 0.0651,0.8463 0.0976,1.5299 0.0976,2.0508 0,0.1041 -0.013,0.4817 -0.039,1.1328 -0.0521,1.2109 -0.4688,2.2591 -1.25,3.1445 -0.7552,0.8724 -1.6927,1.3086 -2.8125,1.3086 -1.0547,0 -1.9531,-0.3711 -2.6953,-1.1133 -0.7422,-0.7552 -1.1133,-1.6666 -1.1133,-2.7344 0,-0.5599 0.2148,-1.0351 0.6445,-1.4257 0.4427,-0.3907 0.9571,-0.586 1.543,-0.586 0.5208,0 0.957,0.2018 1.3086,0.6055 0.3646,0.3776 0.5469,0.8463 0.5469,1.4062 0,0.5079 -0.1823,0.9441 -0.5469,1.3086 -0.3646,0.3646 -0.8008,0.5469 -1.3086,0.5469 -0.2083,0 -0.4102,-0.0391 -0.6055,-0.1172 0.5729,0.8464 1.3347,1.2696 2.2852,1.2696 0.8984,0 1.6341,-0.3646 2.207,-1.0938 0.599,-0.7552 0.9245,-1.6341 0.9766,-2.6367 0.026,-0.625 0.039,-0.9831 0.039,-1.0742 0,-0.7292 -0.026,-1.3282 -0.0781,-1.7969 -0.651,0.1042 -1.2305,0.1562 -1.7383,0.1562 -1.8099,0 -3.3528,-0.7161 -4.6289,-2.1484 -1.25,-1.4453 -1.875,-3.1641 -1.875,-5.1562 0,-0.4167 0.0391,-0.8399 0.1172,-1.2696 C 5.1691,21.0536 5.2668,20.6694 5.384,20.2528 5.4491,20.0184 5.6249,19.6408 5.9113,19.12 6.0155,18.9637 6.1327,18.7684 6.2629,18.534 6.3931,18.2997 6.4842,18.1434 6.5363,18.0653 6.6665,17.8049 6.9204,17.4533 7.298,17.0106 7.4022,16.8934 7.5096,16.7632 7.6203,16.62 7.731,16.4767 7.8254,16.3596 7.9035,16.2684 7.9816,16.1773 8.0402,16.1056 8.0793,16.0536 8.1184,16.0015 8.4113,15.6564 8.9582,15.0184 9.0884,14.8882 9.2154,14.7482 9.3391,14.5985 9.4628,14.4487 9.5637,14.3316 9.6418,14.2469 9.7199,14.1623 9.7785,14.1004 9.8176,14.0614 9.3488,12.5119 9.0559,11.2749 8.9387,10.3504 8.8475,9.6082 8.8019,8.5926 8.8019,7.3036 c 0,-1.1329 0.2605,-2.194 0.7813,-3.1836 0.5078,-1.0287 1.2174,-1.8685 2.1289,-2.5196 0.0651,-0.039 0.1302,-0.0586 0.1953,-0.0586 0.0912,0 0.1563,0.0196 0.1953,0.0586 0.7032,0.8464 1.3086,1.9467 1.8164,3.3008 0.5209,1.3542 0.7813,2.5847 0.7813,3.6914 0,1.25 -0.2995,2.4219 -0.8985,3.5156 -0.677,1.1589 -1.5494,2.3568 -2.6171,3.5938 0.2734,0.8594 0.638,2.207 1.0937,4.043 m 1.6602,9.082 c 0.677,-0.2474 1.2044,-0.6706 1.582,-1.2695 0.4167,-0.5729 0.625,-1.2175 0.625,-1.9336 0,-0.9245 -0.3125,-1.7448 -0.9375,-2.461 -0.638,-0.7422 -1.4518,-1.1588 -2.4414,-1.25 0.5599,2.7474 0.9505,5.0521 1.1719,6.9141 M 6.3801,24.3153 c 0,1.289 0.5208,2.4219 1.5625,3.3984 1.0677,0.9505 2.2656,1.4258 3.5937,1.4258 0.5469,0 1.0808,-0.0391 1.6016,-0.1172 -0.2083,-1.9792 -0.6185,-4.3489 -1.2305,-7.1094 -0.7422,0.0782 -1.3346,0.3386 -1.7773,0.7813 -0.4297,0.4557 -0.6446,0.97 -0.6446,1.543 0,0.9895 0.5274,1.7903 1.5821,2.4023 0.0911,0.0911 0.1367,0.1888 0.1367,0.293 0,0.1041 -0.0456,0.2018 -0.1367,0.2929 -0.0782,0.0912 -0.1758,0.1368 -0.293,0.1368 -0.013,0 -0.0716,-0.0131 -0.1758,-0.0391 C 9.8566,26.9194 9.2837,26.3986 8.8801,25.7606 8.5025,25.0835 8.3137,24.3999 8.3137,23.7098 c 0,-0.8984 0.2799,-1.7122 0.8398,-2.4414 0.5859,-0.7292 1.3477,-1.1979 2.2852,-1.4062 -0.3646,-1.4584 -0.6641,-2.5977 -0.8985,-3.418 -0.2083,0.2344 -0.459,0.5176 -0.7519,0.8496 -0.293,0.332 -0.4655,0.5306 -0.5176,0.5957 -0.4688,0.612 -0.8268,1.0872 -1.0742,1.4258 -0.4427,0.612 -0.7683,1.1393 -0.9766,1.582 -0.2213,0.4948 -0.4167,1.0352 -0.5859,1.6211 -0.1693,0.5599 -0.2539,1.1589 -0.2539,1.7969 M 12.9035,4.452 c -0.9766,0.4818 -1.7448,1.1719 -2.3047,2.0703 -0.5729,0.9245 -0.8594,1.9206 -0.8594,2.9883 0,0.9375 0.2344,2.2005 0.7032,3.7891 0.9375,-1.1329 1.6406,-2.181 2.1093,-3.1446 0.4948,-1.0156 0.7422,-2.0768 0.7422,-3.1836 0,-0.8333 -0.1302,-1.6731 -0.3906,-2.5195"
     id="path248"
     inkscape:connector-curvature="0" />
  <path
     class="KeySig"
     d="m 39.1018,115.4234 c 0,0.247 -0.1237,0.371 -0.3711,0.371 -0.2474,0 -0.3711,-0.124 -0.3711,-0.371 l 0,-2.891 -1.6602,0.625 0,3.164 c 0,0.248 -0.1237,0.371 -0.3711,0.371 -0.2474,0 -0.3711,-0.123 -0.3711,-0.371 l 0,-2.91 -0.625,0.235 c -0.013,0.013 -0.0651,0.019 -0.1562,0.019 -0.1042,0 -0.1953,-0.039 -0.2735,-0.117 -0.0781,-0.078 -0.1171,-0.169 -0.1171,-0.274 l 0,-1.21 c 0,-0.196 0.0846,-0.319 0.2539,-0.372 l 0.9179,-0.312 0,-3.203 -0.625,0.215 c -0.013,0.013 -0.0651,0.019 -0.1562,0.019 -0.1042,0 -0.1953,-0.039 -0.2735,-0.117 -0.0781,-0.078 -0.1171,-0.169 -0.1171,-0.273 l 0,-1.211 c 0,-0.183 0.0846,-0.3 0.2539,-0.352 l 0.9179,-0.351 0,-3.145 c 0,-0.247 0.1237,-0.371 0.3711,-0.371 0.2474,0 0.3711,0.124 0.3711,0.371 l 0,2.891 1.6602,-0.625 0,-3.164 c 0,-0.248 0.1237,-0.372 0.3711,-0.372 0.2474,0 0.3711,0.124 0.3711,0.372 l 0,2.91 0.6445,-0.235 c 0.013,-0.013 0.0586,-0.019 0.1367,-0.019 0.0912,0 0.1888,0.039 0.293,0.117 0.0781,0.078 0.1172,0.169 0.1172,0.273 l 0,1.211 c 0,0.183 -0.0912,0.306 -0.2735,0.371 l -0.9179,0.313 0,3.203 0.6445,-0.215 c 0.013,-0.013 0.0586,-0.019 0.1367,-0.019 0.0912,0 0.1888,0.039 0.293,0.117 0.0781,0.078 0.1172,0.169 0.1172,0.273 l 0,1.211 c 0,0.17 -0.0912,0.287 -0.2735,0.352 l -0.9179,0.351 0,3.145 m -0.7422,-8.125 -1.6602,0.586 0,3.203 1.6602,-0.586 0,-3.203"
     id="path250"
     inkscape:connector-curvature="0" />
  <path
     class="KeySig"
     d="m 34.1411,107.9824 c 0,0.247 -0.1237,0.371 -0.3711,0.371 -0.2474,0 -0.3711,-0.124 -0.3711,-0.371 l 0,-2.891 -1.6601,0.625 0,3.164 c 0,0.248 -0.1237,0.372 -0.3711,0.372 -0.2474,0 -0.3711,-0.124 -0.3711,-0.372 l 0,-2.91 -0.625,0.235 c -0.013,0.013 -0.0651,0.019 -0.1563,0.019 -0.1041,0 -0.1953,-0.039 -0.2734,-0.117 -0.0781,-0.078 -0.1172,-0.169 -0.1172,-0.273 l 0,-1.211 c 0,-0.196 0.0847,-0.319 0.2539,-0.371 l 0.918,-0.313 0,-3.203 -0.625,0.215 c -0.013,0.013 -0.0651,0.019 -0.1563,0.019 -0.1041,0 -0.1953,-0.039 -0.2734,-0.117 -0.0781,-0.078 -0.1172,-0.169 -0.1172,-0.273 l 0,-1.211 c 0,-0.183 0.0847,-0.3 0.2539,-0.352 l 0.918,-0.351 0,-3.145 c 0,-0.247 0.1237,-0.371 0.3711,-0.371 0.2474,0 0.3711,0.124 0.3711,0.371 l 0,2.891 1.6601,-0.625 0,-3.164 c 0,-0.248 0.1237,-0.371 0.3711,-0.371 0.2474,0 0.3711,0.123 0.3711,0.371 l 0,2.91 0.6446,-0.235 c 0.013,-0.013 0.0586,-0.019 0.1367,-0.019 0.0911,0 0.1888,0.039 0.2929,0.117 0.0782,0.078 0.1172,0.169 0.1172,0.273 l 0,1.211 c 0,0.183 -0.0911,0.306 -0.2734,0.372 l -0.918,0.312 0,3.203 0.6446,-0.215 c 0.013,-0.013 0.0586,-0.019 0.1367,-0.019 0.0911,0 0.1888,0.039 0.2929,0.117 0.0782,0.078 0.1172,0.169 0.1172,0.273 l 0,1.211 c 0,0.17 -0.0911,0.287 -0.2734,0.352 l -0.918,0.351 0,3.145 m -0.7422,-8.125 -1.6601,0.586 0,3.203 1.6601,-0.586 0,-3.203"
     id="path252"
     inkscape:connector-curvature="0" />
  <path
     class="KeySig"
     d="m 29.1805,117.9034 c 0,0.248 -0.1237,0.371 -0.3711,0.371 -0.2474,0 -0.3711,-0.123 -0.3711,-0.371 l 0,-2.89 -1.6601,0.625 0,3.164 c 0,0.247 -0.1237,0.371 -0.3711,0.371 -0.2474,0 -0.3711,-0.124 -0.3711,-0.371 l 0,-2.91 -0.625,0.234 c -0.0131,0.013 -0.0651,0.019 -0.1563,0.019 -0.1042,0 -0.1953,-0.039 -0.2734,-0.117 -0.0781,-0.078 -0.1172,-0.169 -0.1172,-0.273 l 0,-1.211 c 0,-0.195 0.0846,-0.319 0.2539,-0.371 l 0.918,-0.313 0,-3.203 -0.625,0.215 c -0.0131,0.013 -0.0651,0.02 -0.1563,0.02 -0.1042,0 -0.1953,-0.04 -0.2734,-0.118 -0.0781,-0.078 -0.1172,-0.169 -0.1172,-0.273 l 0,-1.211 c 0,-0.182 0.0846,-0.3 0.2539,-0.352 l 0.918,-0.351 0,-3.145 c 0,-0.247 0.1237,-0.371 0.3711,-0.371 0.2474,0 0.3711,0.124 0.3711,0.371 l 0,2.891 1.6601,-0.625 0,-3.164 c 0,-0.248 0.1237,-0.371 0.3711,-0.371 0.2474,0 0.3711,0.123 0.3711,0.371 l 0,2.91 0.6445,-0.234 c 0.013,-0.013 0.0586,-0.02 0.1367,-0.02 0.0912,0 0.1888,0.039 0.293,0.117 0.0781,0.078 0.1172,0.17 0.1172,0.274 l 0,1.211 c 0,0.182 -0.0911,0.306 -0.2734,0.371 l -0.918,0.312 0,3.203 0.6445,-0.214 c 0.013,-0.013 0.0586,-0.02 0.1367,-0.02 0.0912,0 0.1888,0.039 0.293,0.117 0.0781,0.078 0.1172,0.169 0.1172,0.274 l 0,1.211 c 0,0.169 -0.0911,0.286 -0.2734,0.351 l -0.918,0.352 0,3.144 m -0.7422,-8.125 -1.6601,0.586 0,3.203 1.6601,-0.586 0,-3.203"
     id="path254"
     inkscape:connector-curvature="0" />
  <path
     class="KeySig"
     d="m 24.2199,110.4624 c 0,0.248 -0.1237,0.371 -0.3711,0.371 -0.2474,0 -0.3711,-0.123 -0.3711,-0.371 l 0,-2.89 -1.6602,0.625 0,3.164 c 0,0.247 -0.1237,0.371 -0.3711,0.371 -0.2474,0 -0.3711,-0.124 -0.3711,-0.371 l 0,-2.91 -0.625,0.234 c -0.013,0.013 -0.0651,0.019 -0.1562,0.019 -0.1042,0 -0.1953,-0.039 -0.2735,-0.117 -0.0781,-0.078 -0.1171,-0.169 -0.1171,-0.273 l 0,-1.211 c 0,-0.195 0.0846,-0.319 0.2539,-0.371 l 0.9179,-0.313 0,-3.203 -0.625,0.215 c -0.013,0.013 -0.0651,0.02 -0.1562,0.02 -0.1042,0 -0.1953,-0.039 -0.2735,-0.118 -0.0781,-0.078 -0.1171,-0.169 -0.1171,-0.273 l 0,-1.211 c 0,-0.182 0.0846,-0.299 0.2539,-0.352 l 0.9179,-0.351 0,-3.145 c 0,-0.247 0.1237,-0.371 0.3711,-0.371 0.2474,0 0.3711,0.124 0.3711,0.371 l 0,2.891 1.6602,-0.625 0,-3.164 c 0,-0.247 0.1237,-0.371 0.3711,-0.371 0.2474,0 0.3711,0.124 0.3711,0.371 l 0,2.91 0.6445,-0.234 c 0.013,-0.013 0.0586,-0.02 0.1367,-0.02 0.0912,0 0.1888,0.039 0.293,0.117 0.0781,0.078 0.1172,0.17 0.1172,0.274 l 0,1.211 c 0,0.182 -0.0912,0.306 -0.2735,0.371 l -0.9179,0.312 0,3.203 0.6445,-0.214 c 0.013,-0.013 0.0586,-0.02 0.1367,-0.02 0.0912,0 0.1888,0.039 0.293,0.117 0.0781,0.078 0.1172,0.17 0.1172,0.274 l 0,1.211 c 0,0.169 -0.0912,0.286 -0.2735,0.351 l -0.9179,0.352 0,3.144 m -0.7422,-8.125 -1.6602,0.586 0,3.203 1.6602,-0.586 0,-3.203"
     id="path256"
     inkscape:connector-curvature="0" />
  <path
     class="KeySig"
     d="m 39.1018,21.1714 c 0,0.2474 -0.1237,0.3711 -0.3711,0.3711 -0.2474,0 -0.3711,-0.1237 -0.3711,-0.3711 l 0,-2.8907 -1.6602,0.625 0,3.1641 c 0,0.2474 -0.1237,0.3711 -0.3711,0.3711 -0.2474,0 -0.3711,-0.1237 -0.3711,-0.3711 l 0,-2.9102 -0.625,0.2344 c -0.013,0.013 -0.0651,0.0196 -0.1562,0.0196 -0.1042,0 -0.1953,-0.0391 -0.2735,-0.1172 -0.0781,-0.0782 -0.1171,-0.1693 -0.1171,-0.2735 l 0,-1.2109 c 0,-0.1953 0.0846,-0.319 0.2539,-0.3711 l 0.9179,-0.3125 0,-3.2031 -0.625,0.2148 c -0.013,0.013 -0.0651,0.0195 -0.1562,0.0195 -0.1042,0 -0.1953,-0.039 -0.2735,-0.1171 -0.0781,-0.0782 -0.1171,-0.1693 -0.1171,-0.2735 l 0,-1.2109 c 0,-0.1823 0.0846,-0.2995 0.2539,-0.3516 l 0.9179,-0.3515 0,-3.1446 c 0,-0.2474 0.1237,-0.3711 0.3711,-0.3711 0.2474,0 0.3711,0.1237 0.3711,0.3711 l 0,2.8907 1.6602,-0.625 0,-3.1641 c 0,-0.2474 0.1237,-0.3711 0.3711,-0.3711 0.2474,0 0.3711,0.1237 0.3711,0.3711 l 0,2.9101 0.6445,-0.2343 c 0.013,-0.013 0.0586,-0.0196 0.1367,-0.0196 0.0912,0 0.1888,0.0391 0.293,0.1172 0.0781,0.0782 0.1172,0.1693 0.1172,0.2735 l 0,1.2109 c 0,0.1823 -0.0912,0.306 -0.2735,0.3711 l -0.9179,0.3125 0,3.2031 0.6445,-0.2148 c 0.013,-0.013 0.0586,-0.0196 0.1367,-0.0196 0.0912,0 0.1888,0.0391 0.293,0.1172 0.0781,0.0782 0.1172,0.1693 0.1172,0.2735 l 0,1.2109 c 0,0.1693 -0.0912,0.2865 -0.2735,0.3516 l -0.9179,0.3515 0,3.1446 m -0.7422,-8.125 -1.6602,0.5859 0,3.2031 1.6602,-0.5859 0,-3.2031"
     id="path258"
     inkscape:connector-curvature="0" />
  <path
     class="KeySig"
     d="m 34.1411,13.7304 c 0,0.2474 -0.1237,0.3711 -0.3711,0.3711 -0.2474,0 -0.3711,-0.1237 -0.3711,-0.3711 l 0,-2.8906 -1.6601,0.625 0,3.1641 c 0,0.2474 -0.1237,0.3711 -0.3711,0.3711 -0.2474,0 -0.3711,-0.1237 -0.3711,-0.3711 l 0,-2.9102 -0.625,0.2344 c -0.013,0.013 -0.0651,0.0195 -0.1563,0.0195 -0.1041,0 -0.1953,-0.0391 -0.2734,-0.1172 -0.0781,-0.0781 -0.1172,-0.1693 -0.1172,-0.2734 l 0,-1.211 c 0,-0.1953 0.0847,-0.319 0.2539,-0.371 l 0.918,-0.3125 0,-3.2032 -0.625,0.2149 c -0.013,0.013 -0.0651,0.0195 -0.1563,0.0195 -0.1041,0 -0.1953,-0.0391 -0.2734,-0.1172 C 29.8638,6.5234 29.8247,6.4322 29.8247,6.3281 l 0,-1.211 c 0,-0.1823 0.0847,-0.2994 0.2539,-0.3515 l 0.918,-0.3516 0,-3.1445 c 0,-0.2474 0.1237,-0.3711 0.3711,-0.3711 0.2474,0 0.3711,0.1237 0.3711,0.3711 l 0,2.8906 1.6601,-0.625 0,-3.1641 C 33.3989,0.1236 33.5226,0 33.77,0 c 0.2474,0 0.3711,0.1236 0.3711,0.371 l 0,2.9102 0.6446,-0.2344 c 0.013,-0.013 0.0586,-0.0195 0.1367,-0.0195 0.0911,0 0.1888,0.0391 0.2929,0.1172 0.0782,0.0781 0.1172,0.1693 0.1172,0.2734 l 0,1.211 c 0,0.1822 -0.0911,0.3059 -0.2734,0.3711 l -0.918,0.3125 0,3.2031 0.6446,-0.2149 c 0.013,-0.013 0.0586,-0.0195 0.1367,-0.0195 0.0911,0 0.1888,0.0391 0.2929,0.1172 0.0782,0.0781 0.1172,0.1693 0.1172,0.2734 l 0,1.211 c 0,0.1692 -0.0911,0.2864 -0.2734,0.3515 l -0.918,0.3516 0,3.1445 m -0.7422,-8.125 -1.6601,0.586 0,3.2031 1.6601,-0.586 0,-3.2031"
     id="path260"
     inkscape:connector-curvature="0" />
  <path
     class="KeySig"
     d="m 29.1805,23.6517 c 0,0.2474 -0.1237,0.3711 -0.3711,0.3711 -0.2474,0 -0.3711,-0.1237 -0.3711,-0.3711 l 0,-2.8906 -1.6601,0.625 0,3.164 c 0,0.2474 -0.1237,0.3711 -0.3711,0.3711 -0.2474,0 -0.3711,-0.1237 -0.3711,-0.3711 l 0,-2.9101 -0.625,0.2343 c -0.0131,0.0131 -0.0651,0.0196 -0.1563,0.0196 -0.1042,0 -0.1953,-0.0391 -0.2734,-0.1172 -0.0781,-0.0781 -0.1172,-0.1693 -0.1172,-0.2735 l 0,-1.2109 c 0,-0.1953 0.0846,-0.319 0.2539,-0.3711 l 0.918,-0.3125 0,-3.2031 -0.625,0.2148 c -0.0131,0.0131 -0.0651,0.0196 -0.1563,0.0196 -0.1042,0 -0.1953,-0.0391 -0.2734,-0.1172 -0.0781,-0.0782 -0.1172,-0.1693 -0.1172,-0.2735 l 0,-1.2109 c 0,-0.1823 0.0846,-0.2995 0.2539,-0.3516 l 0.918,-0.3515 0,-3.1446 c 0,-0.2474 0.1237,-0.3711 0.3711,-0.3711 0.2474,0 0.3711,0.1237 0.3711,0.3711 l 0,2.8907 1.6601,-0.625 0,-3.1641 c 0,-0.2474 0.1237,-0.3711 0.3711,-0.3711 0.2474,0 0.3711,0.1237 0.3711,0.3711 l 0,2.9102 0.6445,-0.2344 c 0.013,-0.013 0.0586,-0.0195 0.1367,-0.0195 0.0912,0 0.1888,0.039 0.293,0.1171 0.0781,0.0782 0.1172,0.1693 0.1172,0.2735 l 0,1.2109 c 0,0.1823 -0.0911,0.306 -0.2734,0.3711 l -0.918,0.3125 0,3.2031 0.6445,-0.2148 c 0.013,-0.013 0.0586,-0.0195 0.1367,-0.0195 0.0912,0 0.1888,0.039 0.293,0.1171 0.0781,0.0782 0.1172,0.1693 0.1172,0.2735 l 0,1.2109 c 0,0.1693 -0.0911,0.2865 -0.2734,0.3516 l -0.918,0.3515 0,3.1446 m -0.7422,-8.125 -1.6601,0.5859 0,3.2031 1.6601,-0.5859 0,-3.2031"
     id="path262"
     inkscape:connector-curvature="0" />
  <path
     class="KeySig"
     d="m 24.2199,16.2107 c 0,0.2474 -0.1237,0.3711 -0.3711,0.3711 -0.2474,0 -0.3711,-0.1237 -0.3711,-0.3711 l 0,-2.8906 -1.6602,0.625 0,3.1641 c 0,0.2474 -0.1237,0.3711 -0.3711,0.3711 -0.2474,0 -0.3711,-0.1237 -0.3711,-0.3711 l 0,-2.9102 -0.625,0.2344 c -0.013,0.013 -0.0651,0.0195 -0.1562,0.0195 -0.1042,0 -0.1953,-0.039 -0.2735,-0.1172 -0.0781,-0.0781 -0.1171,-0.1692 -0.1171,-0.2734 l 0,-1.2109 c 0,-0.1954 0.0846,-0.3191 0.2539,-0.3711 l 0.9179,-0.3125 0,-3.2032 -0.625,0.2149 C 20.4373,9.1925 20.3852,9.199 20.2941,9.199 20.1899,9.199 20.0988,9.16 20.0206,9.0818 19.9425,9.0037 19.9035,8.9126 19.9035,8.8084 l 0,-1.2109 c 0,-0.1823 0.0846,-0.2995 0.2539,-0.3516 l 0.9179,-0.3516 0,-3.1445 c 0,-0.2474 0.1237,-0.3711 0.3711,-0.3711 0.2474,0 0.3711,0.1237 0.3711,0.3711 l 0,2.8906 1.6602,-0.625 0,-3.164 c 0,-0.2474 0.1237,-0.3711 0.3711,-0.3711 0.2474,0 0.3711,0.1237 0.3711,0.3711 l 0,2.9101 0.6445,-0.2344 c 0.013,-0.013 0.0586,-0.0195 0.1367,-0.0195 0.0912,0 0.1888,0.0391 0.293,0.1172 0.0781,0.0781 0.1172,0.1693 0.1172,0.2734 l 0,1.211 c 0,0.1823 -0.0912,0.306 -0.2735,0.3711 l -0.9179,0.3125 0,3.2031 0.6445,-0.2149 c 0.013,-0.013 0.0586,-0.0195 0.1367,-0.0195 0.0912,0 0.1888,0.0391 0.293,0.1172 0.0781,0.0781 0.1172,0.1693 0.1172,0.2734 l 0,1.211 c 0,0.1692 -0.0912,0.2864 -0.2735,0.3515 l -0.9179,0.3516 0,3.1445 m -0.7422,-8.125 -1.6602,0.586 0,3.2031 1.6602,-0.5859 0,-3.2032"
     id="path264"
     inkscape:connector-curvature="0" />
  <path
     class="TimeSig"
     d="m 47.2719,10.1948 c 0.3906,0 0.7227,-0.0456 0.9961,-0.1367 0.2734,-0.0912 0.4492,-0.1367 0.5273,-0.1367 0.0912,0 0.1628,0.026 0.2149,0.0781 0.039,0.0391 0.0651,0.0846 0.0781,0.1367 0,0.0261 -0.013,0.0651 -0.0391,0.1172 l -5.6835,6.6016 3.3398,0 0,-2.6172 c 0,-0.1693 0.0456,-0.3125 0.1367,-0.4297 0.1563,-0.1302 0.2865,-0.2083 0.3906,-0.2344 0.1693,-0.0781 0.3776,-0.2604 0.625,-0.5469 0.2084,-0.2343 0.4558,-0.6445 0.7422,-1.2304 0.0391,-0.0782 0.0977,-0.1172 0.1758,-0.1172 0.1563,0 0.2474,0.0911 0.2734,0.2734 l 0,4.9024 1.4258,0 c 0.1823,0 0.2865,0.0976 0.3125,0.2929 0,0.1953 -0.1041,0.293 -0.3125,0.293 l -1.4258,0 0,0.1562 c 0,0.5209 0.1303,0.9636 0.3907,1.3282 0.2995,0.3646 0.651,0.5468 1.0547,0.5468 0.1562,0 0.2343,0.0782 0.2343,0.2344 0,0.1563 -0.0781,0.2344 -0.2343,0.2344 -0.2735,0 -0.7162,-0.0391 -1.3282,-0.1172 -0.5599,-0.0911 -0.9961,-0.1367 -1.3086,-0.1367 -0.3255,0 -0.7617,0.0456 -1.3086,0.1367 -0.5859,0.0781 -1.0221,0.1172 -1.3085,0.1172 -0.1563,0 -0.2344,-0.0781 -0.2344,-0.2344 0,-0.1562 0.0781,-0.2344 0.2344,-0.2344 0.4036,0 0.7552,-0.1822 1.0546,-0.5468 0.2735,-0.3646 0.4102,-0.8073 0.4102,-1.3282 l 0,-0.1562 -3.3398,0 c -0.2214,0 -0.3777,-0.0521 -0.4688,-0.1563 -0.1042,-0.0781 -0.1562,-0.1822 -0.1562,-0.3125 0,-0.039 0.0976,-0.1757 0.2929,-0.4101 0.2214,-0.2604 0.4558,-0.5794 0.7031,-0.957 0.2865,-0.4427 0.5599,-0.8985 0.8204,-1.3672 0.2864,-0.5339 0.5143,-1.1459 0.6836,-1.836 0.1953,-0.7031 0.2929,-1.4192 0.2929,-2.1484 0,-0.2083 0.0912,-0.3125 0.2735,-0.3125 0.039,0 0.1237,0.0195 0.2539,0.0586 0.039,0.013 0.1204,0.0325 0.2441,0.0586 0.1237,0.026 0.2246,0.0521 0.3027,0.0781 0.2344,0.0391 0.4558,0.0586 0.6641,0.0586"
     id="path266"
     inkscape:connector-curvature="0" />
  <path
     class="TimeSig"
     d="m 47.2719,20.1161 c 0.3906,0 0.7227,-0.0456 0.9961,-0.1368 0.2734,-0.0911 0.4492,-0.1367 0.5273,-0.1367 0.0912,0 0.1628,0.0261 0.2149,0.0781 0.039,0.0391 0.0651,0.0847 0.0781,0.1368 0,0.026 -0.013,0.0651 -0.0391,0.1172 l -5.6835,6.6015 3.3398,0 0,-2.6172 c 0,-0.1692 0.0456,-0.3125 0.1367,-0.4297 0.1563,-0.1302 0.2865,-0.2083 0.3906,-0.2343 0.1693,-0.0782 0.3776,-0.2604 0.625,-0.5469 0.2084,-0.2344 0.4558,-0.6445 0.7422,-1.2305 0.0391,-0.0781 0.0977,-0.1172 0.1758,-0.1172 0.1563,0 0.2474,0.0912 0.2734,0.2735 l 0,4.9023 1.4258,0 c 0.1823,0 0.2865,0.0977 0.3125,0.293 0,0.1953 -0.1041,0.293 -0.3125,0.293 l -1.4258,0 0,0.1562 c 0,0.5208 0.1303,0.9635 0.3907,1.3281 0.2995,0.3646 0.651,0.5469 1.0547,0.5469 0.1562,0 0.2343,0.0781 0.2343,0.2344 0,0.1562 -0.0781,0.2344 -0.2343,0.2344 -0.2735,0 -0.7162,-0.0391 -1.3282,-0.1172 -0.5599,-0.0912 -0.9961,-0.1368 -1.3086,-0.1368 -0.3255,0 -0.7617,0.0456 -1.3086,0.1368 -0.5859,0.0781 -1.0221,0.1172 -1.3085,0.1172 -0.1563,0 -0.2344,-0.0782 -0.2344,-0.2344 0,-0.1563 0.0781,-0.2344 0.2344,-0.2344 0.4036,0 0.7552,-0.1823 1.0546,-0.5469 0.2735,-0.3646 0.4102,-0.8073 0.4102,-1.3281 l 0,-0.1562 -3.3398,0 c -0.2214,0 -0.3777,-0.0521 -0.4688,-0.1563 -0.1042,-0.0781 -0.1562,-0.1823 -0.1562,-0.3125 0,-0.0391 0.0976,-0.1758 0.2929,-0.4102 0.2214,-0.2604 0.4558,-0.5794 0.7031,-0.957 0.2865,-0.4427 0.5599,-0.8984 0.8204,-1.3672 0.2864,-0.5338 0.5143,-1.1458 0.6836,-1.8359 0.1953,-0.7031 0.2929,-1.4193 0.2929,-2.1484 0,-0.2084 0.0912,-0.3125 0.2735,-0.3125 0.039,0 0.1237,0.0195 0.2539,0.0585 0.039,0.0131 0.1204,0.0326 0.2441,0.0586 0.1237,0.0261 0.2246,0.0521 0.3027,0.0782 0.2344,0.039 0.4558,0.0586 0.6641,0.0586"
     id="path268"
     inkscape:connector-curvature="0" />
  <path
     class="Rest"
     d="m 66.7025,19.9015 -7.1094,0 c -0.1302,0 -0.1953,-0.0651 -0.1953,-0.1953 l 0,-2.7344 c 0,-0.1302 0.0651,-0.1953 0.1953,-0.1953 l 7.1094,0 c 0.1302,0 0.1953,0.0651 0.1953,0.1953 l 0,2.7344 c 0,0.1302 -0.0651,0.1953 -0.1953,0.1953"
     id="path270"
     inkscape:connector-curvature="0" />
  <path
     class="Rest"
     d="m 68.907,18.222 c -0.2213,-0.2214 -0.332,-0.4883 -0.332,-0.8008 0,-0.3125 0.1107,-0.5794 0.332,-0.8008 0.2214,-0.2213 0.4883,-0.332 0.8008,-0.332 0.3125,0 0.5794,0.1107 0.8008,0.332 0.2213,0.2214 0.332,0.4883 0.332,0.8008 0,0.3125 -0.1107,0.5794 -0.332,0.8008 -0.2214,0.2213 -0.4883,0.332 -0.8008,0.332 -0.3125,0 -0.5794,-0.1107 -0.8008,-0.332"
     id="path272"
     inkscape:connector-curvature="0" />
  <path
     class="Beam"
     d="m 177.8195,112.9554 19.497,-1.282 0,2.48 -19.497,1.283 0,-2.481"
     id="path274"
     inkscape:connector-curvature="0"
     style="fill-rule:evenodd" />
  <path
     class="Beam"
     d="m 472.1515,7.4076 9.309,1.3325 0,2.4803 -9.309,-1.3324 0,-2.4804"
     id="path276"
     inkscape:connector-curvature="0"
     style="fill-rule:evenodd" />
  <path
     class="Beam"
     d="m 281.5265,13.7862 10.003,-1.3256 0,2.4803 -10.003,1.3256 0,-2.4803"
     id="path278"
     inkscape:connector-curvature="0"
     style="fill-rule:evenodd" />
  <path
     class="Beam"
     d="m 247.8345,7.4145 10.004,1.3256 0,2.4803 -10.004,-1.3256 0,-2.4803"
     id="path280"
     inkscape:connector-curvature="0"
     style="fill-rule:evenodd" />
  <path
     class="Hook"
     d="m 483.2455,105.5114 0,-5 0.625,0 c 0,0.743 0.143,1.485 0.43,2.227 0.312,0.807 0.657,1.51 1.035,2.109 0.273,0.43 0.684,1.088 1.23,1.973 0.417,0.677 0.769,1.387 1.055,2.129 0.287,0.742 0.43,1.484 0.43,2.226 0,1.355 -0.28,2.735 -0.84,4.141 -0.091,0.156 -0.215,0.234 -0.371,0.234 -0.13,0 -0.248,-0.052 -0.352,-0.156 -0.078,-0.078 -0.117,-0.176 -0.117,-0.293 l 0,-0.097 c 0.56,-1.29 0.84,-2.566 0.84,-3.829 0,-0.651 -0.195,-1.354 -0.586,-2.109 -0.391,-0.768 -0.788,-1.38 -1.191,-1.836 -0.456,-0.534 -0.977,-1.107 -1.563,-1.719 l -0.625,0"
     id="path282"
     inkscape:connector-curvature="0" />
  <path
     class="NoteDot"
     d="m 442.6435,112.4744 c -0.221,-0.222 -0.332,-0.489 -0.332,-0.801 0,-0.313 0.111,-0.58 0.332,-0.801 0.221,-0.221 0.488,-0.332 0.801,-0.332 0.312,0 0.579,0.111 0.801,0.332 0.221,0.221 0.332,0.488 0.332,0.801 0,0.312 -0.111,0.579 -0.332,0.801 -0.222,0.221 -0.489,0.332 -0.801,0.332 -0.313,0 -0.58,-0.111 -0.801,-0.332"
     id="path284"
     inkscape:connector-curvature="0" />
</svg>
