<?xml version="1.0" encoding="UTF-8" standalone="no"?>
<svg width="595.275px" height="841.89px" viewBox="0 0 595.275 841.89"
 xmlns="http://www.w3.org/2000/svg" xmlns:xlink="http://www.w3.org/1999/xlink" version="1.2" baseProfile="tiny">
<title>almost_tonal</title>
<desc>Generated by MuseScore 2.0.3.1</desc>
<polyline class="StaffLines" fill="none" stroke="#000000" stroke-width="0.40" stroke-linejoin="bevel" points="28.3465,63.0709 566.929,63.0709"/>
<polyline class="StaffLines" fill="none" stroke="#000000" stroke-width="0.40" stroke-linejoin="bevel" points="28.3465,68.0315 566.929,68.0315"/>
<polyline class="StaffLines" fill="none" stroke="#000000" stroke-width="0.40" stroke-linejoin="bevel" points="28.3465,72.9921 566.929,72.9921"/>
<polyline class="StaffLines" fill="none" stroke="#000000" stroke-width="0.40" stroke-linejoin="bevel" points="28.3465,77.9527 566.929,77.9527"/>
<polyline class="StaffLines" fill="none" stroke="#000000" stroke-width="0.40" stroke-linejoin="bevel" points="28.3465,82.9134 566.929,82.9134"/>
<polyline class="StaffLines" fill="none" stroke="#000000" stroke-width="0.40" stroke-linejoin="bevel" points="28.3465,157.323 566.929,157.323"/>
<polyline class="StaffLines" fill="none" stroke="#000000" stroke-width="0.40" stroke-linejoin="bevel" points="28.3465,162.283 566.929,162.283"/>
<polyline class="StaffLines" fill="none" stroke="#000000" stroke-width="0.40" stroke-linejoin="bevel" points="28.3465,167.244 566.929,167.244"/>
<polyline class="StaffLines" fill="none" stroke="#000000" stroke-width="0.40" stroke-linejoin="bevel" points="28.3465,172.205 566.929,172.205"/>
<polyline class="StaffLines" fill="none" stroke="#000000" stroke-width="0.40" stroke-linejoin="bevel" points="28.3465,177.165 566.929,177.165"/>
<path class="Text" d="M26.8185,145.984 L26.7945,145.824 C27.4025,145.717 27.9184,145.458 28.3424,145.048 C28.7664,144.637 29.0611,144.106 29.2264,143.456 C28.8318,143.76 28.4318,143.912 28.0265,143.912 C27.5945,143.912 27.2464,143.762 26.9825,143.464 C26.7185,143.165 26.5864,142.773 26.5864,142.288 C26.5864,141.749 26.7451,141.3 27.0625,140.94 C27.3798,140.58 27.7758,140.4 28.2505,140.4 C28.7678,140.4 29.1918,140.61 29.5224,141.032 C29.8531,141.453 30.0185,141.994 30.0185,142.656 C30.0185,142.869 29.9998,143.088 29.9625,143.312 C29.9251,143.536 29.8385,143.801 29.7024,144.108 C29.5664,144.414 29.3891,144.689 29.1705,144.932 C28.9518,145.174 28.6398,145.394 28.2345,145.592 C27.8291,145.789 27.3571,145.92 26.8185,145.984 M28.3145,143.568 C28.4158,143.568 28.5305,143.553 28.6585,143.524 C28.7865,143.494 28.9158,143.43 29.0465,143.332 C29.1771,143.233 29.2425,143.112 29.2425,142.968 L29.2425,142.656 C29.2425,141.301 28.8905,140.624 28.1865,140.624 C28.0211,140.624 27.8798,140.668 27.7625,140.756 C27.6451,140.844 27.5558,140.96 27.4945,141.104 C27.4331,141.248 27.3891,141.394 27.3625,141.544 C27.3358,141.693 27.3224,141.85 27.3224,142.016 C27.3224,142.49 27.4118,142.868 27.5905,143.148 C27.7691,143.428 28.0105,143.568 28.3145,143.568"/>
<path class="SlurSegment" stroke="#000000" stroke-width="0.35" stroke-linecap="round" stroke-linejoin="round" fill-rule="evenodd" d="M507.984,176.088 C513.703,180.038 530.859,180.038 536.578,176.088 C530.859,180.831 513.703,180.831 507.984,176.088"/>
<path class="SlurSegment" stroke="#000000" stroke-width="0.35" stroke-linecap="round" stroke-linejoin="round" fill-rule="evenodd" d="M396.4,176.488 C401.417,179.905 416.47,179.905 421.488,176.488 C416.47,180.698 401.417,180.698 396.4,176.488"/>
<path class="SlurSegment" stroke="#000000" stroke-width="0.35" stroke-linecap="round" stroke-linejoin="round" fill-rule="evenodd" d="M236.79,175.925 C245.782,181.977 272.758,181.977 281.75,175.925 C272.758,182.771 245.782,182.771 236.79,175.925"/>
<path class="SlurSegment" stroke="#000000" stroke-width="0.35" stroke-linecap="round" stroke-linejoin="round" fill-rule="evenodd" d="M142.341,180.886 C146.857,183.921 160.405,183.921 164.921,180.886 C160.405,184.715 146.857,184.715 142.341,180.886"/>
<polyline class="BarLine" stroke="#000000" stroke-width="0.79" stroke-linejoin="bevel" points="562.067,157.323 562.067,177.165"/>
<polyline class="BarLine" stroke="#000000" stroke-width="2.48" stroke-linejoin="bevel" points="565.688,157.323 565.688,177.165"/>
<polyline class="BarLine" stroke="#000000" stroke-width="0.79" stroke-linejoin="bevel" points="527.943,157.323 527.943,177.165"/>
<polyline class="BarLine" stroke="#000000" stroke-width="0.79" stroke-linejoin="bevel" points="412.852,157.323 412.852,177.165"/>
<polyline class="BarLine" stroke="#000000" stroke-width="0.79" stroke-linejoin="bevel" points="273.115,157.323 273.115,177.165"/>
<polyline class="BarLine" stroke="#000000" stroke-width="0.79" stroke-linejoin="bevel" points="156.285,157.323 156.285,177.165"/>
<polyline class="BarLine" stroke="#000000" stroke-width="0.79" stroke-linejoin="bevel" points="566.532,63.0709 566.532,82.9134"/>
<polyline class="BarLine" stroke="#000000" stroke-width="0.79" stroke-linejoin="bevel" points="499.092,63.0709 499.092,82.9134"/>
<polyline class="BarLine" stroke="#000000" stroke-width="0.79" stroke-linejoin="bevel" points="451.608,63.0709 451.608,82.9134"/>
<polyline class="BarLine" stroke="#000000" stroke-width="0.79" stroke-linejoin="bevel" points="400.102,63.0709 400.102,82.9134"/>
<polyline class="BarLine" stroke="#000000" stroke-width="0.79" stroke-linejoin="bevel" points="328.138,63.0709 328.138,82.9134"/>
<polyline class="BarLine" stroke="#000000" stroke-width="0.79" stroke-linejoin="bevel" points="255.224,63.0709 255.224,82.9134"/>
<polyline class="BarLine" stroke="#000000" stroke-width="0.79" stroke-linejoin="bevel" points="196.54,63.0709 196.54,82.9134"/>
<polyline class="BarLine" stroke="#000000" stroke-width="0.79" stroke-linejoin="bevel" points="137.855,63.0709 137.855,82.9134"/>
<path class="Accidental" d="M501.5,178.435 C501.5,178.683 501.376,178.806 501.129,178.806 C500.881,178.806 500.758,178.683 500.758,178.435 L500.758,175.545 L499.097,176.17 L499.097,179.334 C499.097,179.581 498.974,179.705 498.726,179.705 C498.479,179.705 498.355,179.581 498.355,179.334 L498.355,176.423 L497.73,176.658 C497.717,176.671 497.665,176.677 497.574,176.677 C497.47,176.677 497.379,176.638 497.301,176.56 C497.222,176.482 497.183,176.391 497.183,176.287 L497.183,175.076 C497.183,174.88 497.268,174.757 497.437,174.705 L498.355,174.392 L498.355,171.189 L497.73,171.404 C497.717,171.417 497.665,171.423 497.574,171.423 C497.47,171.423 497.379,171.384 497.301,171.306 C497.222,171.228 497.183,171.137 497.183,171.033 L497.183,169.822 C497.183,169.64 497.268,169.522 497.437,169.47 L498.355,169.119 L498.355,165.974 C498.355,165.727 498.479,165.603 498.726,165.603 C498.974,165.603 499.097,165.727 499.097,165.974 L499.097,168.865 L500.758,168.24 L500.758,165.076 C500.758,164.828 500.881,164.705 501.129,164.705 C501.376,164.705 501.5,164.828 501.5,165.076 L501.5,167.986 L502.144,167.752 C502.157,167.739 502.203,167.732 502.281,167.732 C502.372,167.732 502.47,167.771 502.574,167.849 C502.652,167.927 502.691,168.019 502.691,168.123 L502.691,169.334 C502.691,169.516 502.6,169.64 502.418,169.705 L501.5,170.017 L501.5,173.22 L502.144,173.005 C502.157,172.992 502.203,172.986 502.281,172.986 C502.372,172.986 502.47,173.025 502.574,173.103 C502.652,173.181 502.691,173.272 502.691,173.377 L502.691,174.588 C502.691,174.757 502.6,174.874 502.418,174.939 L501.5,175.291 L501.5,178.435 M500.758,170.31 L499.097,170.896 L499.097,174.099 L500.758,173.513 L500.758,170.31 "/>
<path class="Accidental" d="M369.614,180.916 C369.614,181.163 369.49,181.287 369.243,181.287 C368.996,181.287 368.872,181.163 368.872,180.916 L368.872,178.025 L367.212,178.65 L367.212,181.814 C367.212,182.061 367.088,182.185 366.841,182.185 C366.593,182.185 366.47,182.061 366.47,181.814 L366.47,178.904 L365.845,179.138 C365.832,179.151 365.779,179.158 365.688,179.158 C365.584,179.158 365.493,179.119 365.415,179.041 C365.337,178.962 365.298,178.871 365.298,178.767 L365.298,177.556 C365.298,177.361 365.382,177.237 365.552,177.185 L366.47,176.873 L366.47,173.669 L365.845,173.884 C365.832,173.897 365.779,173.904 365.688,173.904 C365.584,173.904 365.493,173.865 365.415,173.787 C365.337,173.708 365.298,173.617 365.298,173.513 L365.298,172.302 C365.298,172.12 365.382,172.003 365.552,171.951 L366.47,171.599 L366.47,168.455 C366.47,168.207 366.593,168.083 366.841,168.083 C367.088,168.083 367.212,168.207 367.212,168.455 L367.212,171.345 L368.872,170.72 L368.872,167.556 C368.872,167.309 368.996,167.185 369.243,167.185 C369.49,167.185 369.614,167.309 369.614,167.556 L369.614,170.466 L370.259,170.232 C370.272,170.219 370.317,170.212 370.395,170.212 C370.487,170.212 370.584,170.251 370.688,170.33 C370.766,170.408 370.806,170.499 370.806,170.603 L370.806,171.814 C370.806,171.996 370.714,172.12 370.532,172.185 L369.614,172.498 L369.614,175.701 L370.259,175.486 C370.272,175.473 370.317,175.466 370.395,175.466 C370.487,175.466 370.584,175.505 370.688,175.583 C370.766,175.662 370.806,175.753 370.806,175.857 L370.806,177.068 C370.806,177.237 370.714,177.354 370.532,177.419 L369.614,177.771 L369.614,180.916 M368.872,172.791 L367.212,173.376 L367.212,176.58 L368.872,175.994 L368.872,172.791 "/>
<path class="Accidental" d="M330.008,178.435 C330.008,178.683 329.884,178.806 329.636,178.806 C329.389,178.806 329.265,178.683 329.265,178.435 L329.265,175.545 L327.605,176.17 L327.605,179.334 C327.605,179.581 327.481,179.705 327.234,179.705 C326.987,179.705 326.863,179.581 326.863,179.334 L326.863,176.423 L326.238,176.658 C326.225,176.671 326.173,176.677 326.082,176.677 C325.978,176.677 325.886,176.638 325.808,176.56 C325.73,176.482 325.691,176.391 325.691,176.287 L325.691,175.076 C325.691,174.88 325.776,174.757 325.945,174.705 L326.863,174.392 L326.863,171.189 L326.238,171.404 C326.225,171.417 326.173,171.423 326.082,171.423 C325.978,171.423 325.886,171.384 325.808,171.306 C325.73,171.228 325.691,171.137 325.691,171.033 L325.691,169.822 C325.691,169.64 325.776,169.522 325.945,169.47 L326.863,169.119 L326.863,165.974 C326.863,165.727 326.987,165.603 327.234,165.603 C327.481,165.603 327.605,165.727 327.605,165.974 L327.605,168.865 L329.265,168.24 L329.265,165.076 C329.265,164.828 329.389,164.705 329.636,164.705 C329.884,164.705 330.008,164.828 330.008,165.076 L330.008,167.986 L330.652,167.752 C330.665,167.739 330.711,167.732 330.789,167.732 C330.88,167.732 330.978,167.771 331.082,167.849 C331.16,167.927 331.199,168.019 331.199,168.123 L331.199,169.334 C331.199,169.516 331.108,169.64 330.926,169.705 L330.008,170.017 L330.008,173.22 L330.652,173.005 C330.665,172.992 330.711,172.986 330.789,172.986 C330.88,172.986 330.978,173.025 331.082,173.103 C331.16,173.181 331.199,173.272 331.199,173.377 L331.199,174.588 C331.199,174.757 331.108,174.874 330.926,174.939 L330.008,175.291 L330.008,178.435 M329.265,170.31 L327.605,170.896 L327.605,174.099 L329.265,173.513 L329.265,170.31 "/>
<path class="Accidental" d="M295.193,166.424 L295.193,167.967 C295.193,168.514 295.219,168.95 295.271,169.275 C295.7,168.911 296.006,168.637 296.189,168.455 C296.397,168.247 296.605,167.96 296.814,167.596 C297.022,167.231 297.126,166.866 297.126,166.502 C297.126,166.137 297.048,165.825 296.892,165.564 C296.736,165.304 296.527,165.174 296.267,165.174 C295.954,165.174 295.694,165.291 295.486,165.525 C295.29,165.786 295.193,166.085 295.193,166.424 M294.372,169.998 L294.118,158.103 C294.301,157.999 294.483,157.947 294.665,157.947 C294.848,157.947 295.03,157.999 295.212,158.103 L295.056,164.998 C295.59,164.542 296.202,164.314 296.892,164.314 C297.4,164.314 297.823,164.523 298.161,164.939 C298.5,165.356 298.669,165.831 298.669,166.365 C298.669,166.704 298.559,167.062 298.337,167.439 C298.129,167.791 297.907,168.064 297.673,168.26 C297.543,168.364 297.211,168.624 296.677,169.041 C296.521,169.158 296.335,169.295 296.12,169.451 C295.906,169.607 295.772,169.705 295.72,169.744 C295.629,169.796 295.544,169.9 295.466,170.057 C295.375,170.187 295.271,170.297 295.154,170.389 C295.062,170.467 294.952,170.506 294.822,170.506 C294.691,170.506 294.587,170.46 294.509,170.369 C294.418,170.278 294.372,170.154 294.372,169.998"/>
<path class="Accidental" d="M230.305,178.435 C230.305,178.683 230.182,178.806 229.934,178.806 C229.687,178.806 229.563,178.683 229.563,178.435 L229.563,175.545 L227.903,176.17 L227.903,179.334 C227.903,179.581 227.779,179.705 227.532,179.705 C227.284,179.705 227.161,179.581 227.161,179.334 L227.161,176.423 L226.536,176.658 C226.523,176.671 226.471,176.677 226.38,176.677 C226.275,176.677 226.184,176.638 226.106,176.56 C226.028,176.482 225.989,176.391 225.989,176.287 L225.989,175.076 C225.989,174.88 226.074,174.757 226.243,174.705 L227.161,174.392 L227.161,171.189 L226.536,171.404 C226.523,171.417 226.471,171.423 226.38,171.423 C226.275,171.423 226.184,171.384 226.106,171.306 C226.028,171.228 225.989,171.137 225.989,171.033 L225.989,169.822 C225.989,169.64 226.074,169.522 226.243,169.47 L227.161,169.119 L227.161,165.974 C227.161,165.727 227.284,165.603 227.532,165.603 C227.779,165.603 227.903,165.727 227.903,165.974 L227.903,168.865 L229.563,168.24 L229.563,165.076 C229.563,164.828 229.687,164.705 229.934,164.705 C230.182,164.705 230.305,164.828 230.305,165.076 L230.305,167.986 L230.95,167.752 C230.963,167.739 231.008,167.732 231.087,167.732 C231.178,167.732 231.275,167.771 231.38,167.849 C231.458,167.927 231.497,168.019 231.497,168.123 L231.497,169.334 C231.497,169.516 231.406,169.64 231.223,169.705 L230.305,170.017 L230.305,173.22 L230.95,173.005 C230.963,172.992 231.008,172.986 231.087,172.986 C231.178,172.986 231.275,173.025 231.38,173.103 C231.458,173.181 231.497,173.272 231.497,173.377 L231.497,174.588 C231.497,174.757 231.406,174.874 231.223,174.939 L230.305,175.291 L230.305,178.435 M229.563,170.31 L227.903,170.896 L227.903,174.099 L229.563,173.513 L229.563,170.31 "/>
<path class="Accidental" d="M200.569,180.916 C200.569,181.163 200.445,181.287 200.198,181.287 C199.95,181.287 199.827,181.163 199.827,180.916 L199.827,178.025 L198.166,178.65 L198.166,181.814 C198.166,182.061 198.043,182.185 197.795,182.185 C197.548,182.185 197.424,182.061 197.424,181.814 L197.424,178.904 L196.799,179.138 C196.786,179.151 196.734,179.158 196.643,179.158 C196.539,179.158 196.448,179.119 196.37,179.041 C196.291,178.962 196.252,178.871 196.252,178.767 L196.252,177.556 C196.252,177.361 196.337,177.237 196.506,177.185 L197.424,176.873 L197.424,173.669 L196.799,173.884 C196.786,173.897 196.734,173.904 196.643,173.904 C196.539,173.904 196.448,173.865 196.37,173.787 C196.291,173.708 196.252,173.617 196.252,173.513 L196.252,172.302 C196.252,172.12 196.337,172.003 196.506,171.951 L197.424,171.599 L197.424,168.455 C197.424,168.207 197.548,168.083 197.795,168.083 C198.043,168.083 198.166,168.207 198.166,168.455 L198.166,171.345 L199.827,170.72 L199.827,167.556 C199.827,167.309 199.95,167.185 200.198,167.185 C200.445,167.185 200.569,167.309 200.569,167.556 L200.569,170.466 L201.213,170.232 C201.226,170.219 201.272,170.212 201.35,170.212 C201.441,170.212 201.539,170.251 201.643,170.33 C201.721,170.408 201.76,170.499 201.76,170.603 L201.76,171.814 C201.76,171.996 201.669,172.12 201.487,172.185 L200.569,172.498 L200.569,175.701 L201.213,175.486 C201.226,175.473 201.272,175.466 201.35,175.466 C201.441,175.466 201.539,175.505 201.643,175.583 C201.721,175.662 201.76,175.753 201.76,175.857 L201.76,177.068 C201.76,177.237 201.669,177.354 201.487,177.419 L200.569,177.771 L200.569,180.916 M199.827,172.791 L198.166,173.376 L198.166,176.58 L199.827,175.994 L199.827,172.791 "/>
<path class="Accidental" d="M96.5333,180.916 C96.5333,181.163 96.4096,181.287 96.1622,181.287 C95.9148,181.287 95.7911,181.163 95.7911,180.916 L95.7911,178.025 L94.1309,178.65 L94.1309,181.814 C94.1309,182.061 94.0072,182.185 93.7598,182.185 C93.5124,182.185 93.3887,182.061 93.3887,181.814 L93.3887,178.904 L92.7637,179.138 C92.7507,179.151 92.6986,179.158 92.6075,179.158 C92.5033,179.158 92.4122,179.119 92.334,179.041 C92.2559,178.962 92.2168,178.871 92.2168,178.767 L92.2168,177.556 C92.2168,177.361 92.3015,177.237 92.4708,177.185 L93.3887,176.873 L93.3887,173.669 L92.7637,173.884 C92.7507,173.897 92.6986,173.904 92.6075,173.904 C92.5033,173.904 92.4122,173.865 92.334,173.787 C92.2559,173.708 92.2168,173.617 92.2168,173.513 L92.2168,172.302 C92.2168,172.12 92.3015,172.003 92.4708,171.951 L93.3887,171.599 L93.3887,168.455 C93.3887,168.207 93.5124,168.083 93.7598,168.083 C94.0072,168.083 94.1309,168.207 94.1309,168.455 L94.1309,171.345 L95.7911,170.72 L95.7911,167.556 C95.7911,167.309 95.9148,167.185 96.1622,167.185 C96.4096,167.185 96.5333,167.309 96.5333,167.556 L96.5333,170.466 L97.1778,170.232 C97.1908,170.219 97.2364,170.212 97.3145,170.212 C97.4057,170.212 97.5033,170.251 97.6075,170.33 C97.6856,170.408 97.7247,170.499 97.7247,170.603 L97.7247,171.814 C97.7247,171.996 97.6335,172.12 97.4512,172.185 L96.5333,172.498 L96.5333,175.701 L97.1778,175.486 C97.1908,175.473 97.2364,175.466 97.3145,175.466 C97.4057,175.466 97.5033,175.505 97.6075,175.583 C97.6856,175.662 97.7247,175.753 97.7247,175.857 L97.7247,177.068 C97.7247,177.237 97.6335,177.354 97.4512,177.419 L96.5333,177.771 L96.5333,180.916 M95.7911,172.791 L94.1309,173.376 L94.1309,176.58 L95.7911,175.994 L95.7911,172.791 "/>
<path class="Accidental" d="M458.901,84.1832 C458.901,84.4306 458.777,84.5543 458.529,84.5543 C458.282,84.5543 458.158,84.4306 458.158,84.1832 L458.158,81.2926 L456.498,81.9176 L456.498,85.0817 C456.498,85.3291 456.375,85.4527 456.127,85.4527 C455.88,85.4527 455.756,85.3291 455.756,85.0817 L455.756,82.1715 L455.131,82.4059 C455.118,82.4189 455.066,82.4254 454.975,82.4254 C454.871,82.4254 454.779,82.3863 454.701,82.3082 C454.623,82.2301 454.584,82.1389 454.584,82.0348 L454.584,80.8238 C454.584,80.6285 454.669,80.5048 454.838,80.4527 L455.756,80.1402 L455.756,76.9371 L455.131,77.152 C455.118,77.165 455.066,77.1715 454.975,77.1715 C454.871,77.1715 454.779,77.1324 454.701,77.0543 C454.623,76.9762 454.584,76.885 454.584,76.7809 L454.584,75.5699 C454.584,75.3876 454.669,75.2705 454.838,75.2184 L455.756,74.8668 L455.756,71.7223 C455.756,71.4749 455.88,71.3512 456.127,71.3512 C456.375,71.3512 456.498,71.4749 456.498,71.7223 L456.498,74.6129 L458.158,73.9879 L458.158,70.8238 C458.158,70.5764 458.282,70.4527 458.529,70.4527 C458.777,70.4527 458.901,70.5764 458.901,70.8238 L458.901,73.734 L459.545,73.4996 C459.558,73.4866 459.604,73.4801 459.682,73.4801 C459.773,73.4801 459.871,73.5192 459.975,73.5973 C460.053,73.6754 460.092,73.7666 460.092,73.8707 L460.092,75.0817 C460.092,75.2639 460.001,75.3876 459.819,75.4527 L458.901,75.7652 L458.901,78.9684 L459.545,78.7535 C459.558,78.7405 459.604,78.734 459.682,78.734 C459.773,78.734 459.871,78.7731 459.975,78.8512 C460.053,78.9293 460.092,79.0205 460.092,79.1246 L460.092,80.3356 C460.092,80.5048 460.001,80.622 459.819,80.6871 L458.901,81.0387 L458.901,84.1832 M458.158,76.0582 L456.498,76.6442 L456.498,79.8473 L458.158,79.2613 L458.158,76.0582 "/>
<path class="Accidental" d="M428.094,86.6635 C428.094,86.9109 427.97,87.0346 427.723,87.0346 C427.475,87.0346 427.352,86.9109 427.352,86.6635 L427.352,83.7729 L425.692,84.3979 L425.692,87.562 C425.692,87.8094 425.568,87.9331 425.32,87.9331 C425.073,87.9331 424.949,87.8094 424.949,87.562 L424.949,84.6518 L424.324,84.8862 C424.311,84.8992 424.259,84.9057 424.168,84.9057 C424.064,84.9057 423.973,84.8667 423.895,84.7885 C423.817,84.7104 423.777,84.6193 423.777,84.5151 L423.777,83.3042 C423.777,83.1088 423.862,82.9851 424.031,82.9331 L424.949,82.6206 L424.949,79.4174 L424.324,79.6323 C424.311,79.6453 424.259,79.6518 424.168,79.6518 C424.064,79.6518 423.973,79.6128 423.895,79.5346 C423.817,79.4565 423.777,79.3654 423.777,79.2612 L423.777,78.0503 C423.777,77.868 423.862,77.7508 424.031,77.6987 L424.949,77.3471 L424.949,74.2026 C424.949,73.9552 425.073,73.8315 425.32,73.8315 C425.568,73.8315 425.692,73.9552 425.692,74.2026 L425.692,77.0932 L427.352,76.4682 L427.352,73.3042 C427.352,73.0568 427.475,72.9331 427.723,72.9331 C427.97,72.9331 428.094,73.0568 428.094,73.3042 L428.094,76.2143 L428.738,75.9799 C428.751,75.9669 428.797,75.9604 428.875,75.9604 C428.966,75.9604 429.064,75.9995 429.168,76.0776 C429.246,76.1557 429.285,76.2469 429.285,76.351 L429.285,77.562 C429.285,77.7443 429.194,77.868 429.012,77.9331 L428.094,78.2456 L428.094,81.4487 L428.738,81.2338 C428.751,81.2208 428.797,81.2143 428.875,81.2143 C428.966,81.2143 429.064,81.2534 429.168,81.3315 C429.246,81.4096 429.285,81.5008 429.285,81.6049 L429.285,82.8159 C429.285,82.9851 429.194,83.1023 429.012,83.1674 L428.094,83.519 L428.094,86.6635 M427.352,78.5385 L425.692,79.1245 L425.692,82.3276 L427.352,81.7417 L427.352,78.5385 "/>
<path class="Accidental" d="M407.395,84.1832 C407.395,84.4306 407.272,84.5543 407.024,84.5543 C406.777,84.5543 406.653,84.4306 406.653,84.1832 L406.653,81.2926 L404.993,81.9176 L404.993,85.0817 C404.993,85.3291 404.869,85.4527 404.622,85.4527 C404.374,85.4527 404.251,85.3291 404.251,85.0817 L404.251,82.1715 L403.626,82.4059 C403.613,82.4189 403.561,82.4254 403.469,82.4254 C403.365,82.4254 403.274,82.3863 403.196,82.3082 C403.118,82.2301 403.079,82.1389 403.079,82.0348 L403.079,80.8238 C403.079,80.6285 403.163,80.5048 403.333,80.4527 L404.251,80.1402 L404.251,76.9371 L403.626,77.152 C403.613,77.165 403.561,77.1715 403.469,77.1715 C403.365,77.1715 403.274,77.1324 403.196,77.0543 C403.118,76.9762 403.079,76.885 403.079,76.7809 L403.079,75.5699 C403.079,75.3876 403.163,75.2705 403.333,75.2184 L404.251,74.8668 L404.251,71.7223 C404.251,71.4749 404.374,71.3512 404.622,71.3512 C404.869,71.3512 404.993,71.4749 404.993,71.7223 L404.993,74.6129 L406.653,73.9879 L406.653,70.8238 C406.653,70.5764 406.777,70.4527 407.024,70.4527 C407.272,70.4527 407.395,70.5764 407.395,70.8238 L407.395,73.734 L408.04,73.4996 C408.053,73.4866 408.098,73.4801 408.176,73.4801 C408.268,73.4801 408.365,73.5192 408.469,73.5973 C408.548,73.6754 408.587,73.7666 408.587,73.8707 L408.587,75.0817 C408.587,75.2639 408.495,75.3876 408.313,75.4527 L407.395,75.7652 L407.395,78.9684 L408.04,78.7535 C408.053,78.7405 408.098,78.734 408.176,78.734 C408.268,78.734 408.365,78.7731 408.469,78.8512 C408.548,78.9293 408.587,79.0205 408.587,79.1246 L408.587,80.3356 C408.587,80.5048 408.495,80.622 408.313,80.6871 L407.395,81.0387 L407.395,84.1832 M406.653,76.0582 L404.993,76.6442 L404.993,79.8473 L406.653,79.2613 L406.653,76.0582 "/>
<path class="Accidental" d="M365.441,84.1832 C365.441,84.4306 365.318,84.5543 365.07,84.5543 C364.823,84.5543 364.699,84.4306 364.699,84.1832 L364.699,81.2926 L363.039,81.9176 L363.039,85.0817 C363.039,85.3291 362.915,85.4527 362.668,85.4527 C362.421,85.4527 362.297,85.3291 362.297,85.0817 L362.297,82.1715 L361.672,82.4059 C361.659,82.4189 361.607,82.4254 361.516,82.4254 C361.412,82.4254 361.32,82.3863 361.242,82.3082 C361.164,82.2301 361.125,82.1389 361.125,82.0348 L361.125,80.8238 C361.125,80.6285 361.21,80.5048 361.379,80.4527 L362.297,80.1402 L362.297,76.9371 L361.672,77.152 C361.659,77.165 361.607,77.1715 361.516,77.1715 C361.412,77.1715 361.32,77.1324 361.242,77.0543 C361.164,76.9762 361.125,76.885 361.125,76.7809 L361.125,75.5699 C361.125,75.3876 361.21,75.2705 361.379,75.2184 L362.297,74.8668 L362.297,71.7223 C362.297,71.4749 362.421,71.3512 362.668,71.3512 C362.915,71.3512 363.039,71.4749 363.039,71.7223 L363.039,74.6129 L364.699,73.9879 L364.699,70.8238 C364.699,70.5764 364.823,70.4527 365.07,70.4527 C365.318,70.4527 365.441,70.5764 365.441,70.8238 L365.441,73.734 L366.086,73.4996 C366.099,73.4866 366.145,73.4801 366.223,73.4801 C366.314,73.4801 366.412,73.5192 366.516,73.5973 C366.594,73.6754 366.633,73.7666 366.633,73.8707 L366.633,75.0817 C366.633,75.2639 366.542,75.3876 366.359,75.4527 L365.441,75.7652 L365.441,78.9684 L366.086,78.7535 C366.099,78.7405 366.145,78.734 366.223,78.734 C366.314,78.734 366.412,78.7731 366.516,78.8512 C366.594,78.9293 366.633,79.0205 366.633,79.1246 L366.633,80.3356 C366.633,80.5048 366.542,80.622 366.359,80.6871 L365.441,81.0387 L365.441,84.1832 M364.699,76.0582 L363.039,76.6442 L363.039,79.8473 L364.699,79.2613 L364.699,76.0582 "/>
<path class="Accidental" d="M349.429,86.6635 C349.429,86.9109 349.305,87.0346 349.058,87.0346 C348.811,87.0346 348.687,86.9109 348.687,86.6635 L348.687,83.7729 L347.027,84.3979 L347.027,87.562 C347.027,87.8094 346.903,87.9331 346.656,87.9331 C346.408,87.9331 346.285,87.8094 346.285,87.562 L346.285,84.6518 L345.66,84.8862 C345.647,84.8992 345.594,84.9057 345.503,84.9057 C345.399,84.9057 345.308,84.8667 345.23,84.7885 C345.152,84.7104 345.113,84.6193 345.113,84.5151 L345.113,83.3042 C345.113,83.1088 345.197,82.9851 345.367,82.9331 L346.285,82.6206 L346.285,79.4174 L345.66,79.6323 C345.647,79.6453 345.594,79.6518 345.503,79.6518 C345.399,79.6518 345.308,79.6128 345.23,79.5346 C345.152,79.4565 345.113,79.3654 345.113,79.2612 L345.113,78.0503 C345.113,77.868 345.197,77.7508 345.367,77.6987 L346.285,77.3471 L346.285,74.2026 C346.285,73.9552 346.408,73.8315 346.656,73.8315 C346.903,73.8315 347.027,73.9552 347.027,74.2026 L347.027,77.0932 L348.687,76.4682 L348.687,73.3042 C348.687,73.0568 348.811,72.9331 349.058,72.9331 C349.305,72.9331 349.429,73.0568 349.429,73.3042 L349.429,76.2143 L350.074,75.9799 C350.087,75.9669 350.132,75.9604 350.21,75.9604 C350.301,75.9604 350.399,75.9995 350.503,76.0776 C350.581,76.1557 350.62,76.2469 350.62,76.351 L350.62,77.562 C350.62,77.7443 350.529,77.868 350.347,77.9331 L349.429,78.2456 L349.429,81.4487 L350.074,81.2338 C350.087,81.2208 350.132,81.2143 350.21,81.2143 C350.301,81.2143 350.399,81.2534 350.503,81.3315 C350.581,81.4096 350.62,81.5008 350.62,81.6049 L350.62,82.8159 C350.62,82.9851 350.529,83.1023 350.347,83.1674 L349.429,83.519 L349.429,86.6635 M348.687,78.5385 L347.027,79.1245 L347.027,82.3276 L348.687,81.7417 L348.687,78.5385 "/>
<path class="Accidental" d="M330.958,75.4134 C331.127,75.3222 331.296,75.2767 331.466,75.2767 C331.635,75.2767 331.804,75.3222 331.973,75.4134 L331.915,79.0657 L334.044,78.6751 L334.122,78.6751 C334.356,78.6751 334.473,78.7858 334.473,79.0071 L334.61,90.4134 C334.441,90.5045 334.272,90.5501 334.102,90.5501 C333.933,90.5501 333.764,90.5045 333.594,90.4134 L333.653,86.761 L331.544,87.1517 L331.466,87.1517 C331.231,87.1517 331.114,87.041 331.114,86.8196 L330.958,75.4134 M333.673,84.8079 L333.731,80.6673 L331.895,81.0188 L331.837,85.1595 L333.673,84.8079 "/>
<path class="Accidental" d="M307.422,82.0931 L307.422,83.636 C307.422,84.1829 307.448,84.6191 307.5,84.9446 C307.93,84.58 308.236,84.3066 308.418,84.1243 C308.626,83.916 308.835,83.6295 309.043,83.2649 C309.251,82.9004 309.355,82.5358 309.355,82.1712 C309.355,81.8066 309.277,81.4941 309.121,81.2337 C308.965,80.9733 308.756,80.8431 308.496,80.8431 C308.184,80.8431 307.923,80.9603 307.715,81.1946 C307.519,81.455 307.422,81.7545 307.422,82.0931 M306.601,85.6673 L306.348,73.7728 C306.53,73.6686 306.712,73.6165 306.894,73.6165 C307.077,73.6165 307.259,73.6686 307.441,73.7728 L307.285,80.6673 C307.819,80.2116 308.431,79.9837 309.121,79.9837 C309.629,79.9837 310.052,80.192 310.391,80.6087 C310.729,81.0254 310.898,81.5006 310.898,82.0345 C310.898,82.373 310.788,82.7311 310.566,83.1087 C310.358,83.4603 310.137,83.7337 309.902,83.929 C309.772,84.0332 309.44,84.2936 308.906,84.7103 C308.75,84.8274 308.564,84.9642 308.35,85.1204 C308.135,85.2767 308.001,85.3743 307.949,85.4134 C307.858,85.4655 307.773,85.5696 307.695,85.7259 C307.604,85.8561 307.5,85.9668 307.383,86.0579 C307.292,86.136 307.181,86.1751 307.051,86.1751 C306.921,86.1751 306.816,86.1295 306.738,86.0384 C306.647,85.9472 306.601,85.8235 306.601,85.6673"/>
<path class="Accidental" d="M278.263,86.6635 C278.263,86.9109 278.139,87.0346 277.892,87.0346 C277.645,87.0346 277.521,86.9109 277.521,86.6635 L277.521,83.7729 L275.861,84.3979 L275.861,87.562 C275.861,87.8094 275.737,87.9331 275.49,87.9331 C275.242,87.9331 275.118,87.8094 275.118,87.562 L275.118,84.6518 L274.493,84.8862 C274.48,84.8992 274.428,84.9057 274.337,84.9057 C274.233,84.9057 274.142,84.8667 274.064,84.7885 C273.986,84.7104 273.947,84.6193 273.947,84.5151 L273.947,83.3042 C273.947,83.1088 274.031,82.9851 274.2,82.9331 L275.118,82.6206 L275.118,79.4174 L274.493,79.6323 C274.48,79.6453 274.428,79.6518 274.337,79.6518 C274.233,79.6518 274.142,79.6128 274.064,79.5346 C273.986,79.4565 273.947,79.3654 273.947,79.2612 L273.947,78.0503 C273.947,77.868 274.031,77.7508 274.2,77.6987 L275.118,77.3471 L275.118,74.2026 C275.118,73.9552 275.242,73.8315 275.49,73.8315 C275.737,73.8315 275.861,73.9552 275.861,74.2026 L275.861,77.0932 L277.521,76.4682 L277.521,73.3042 C277.521,73.0568 277.645,72.9331 277.892,72.9331 C278.139,72.9331 278.263,73.0568 278.263,73.3042 L278.263,76.2143 L278.908,75.9799 C278.921,75.9669 278.966,75.9604 279.044,75.9604 C279.135,75.9604 279.233,75.9995 279.337,76.0776 C279.415,76.1557 279.454,76.2469 279.454,76.351 L279.454,77.562 C279.454,77.7443 279.363,77.868 279.181,77.9331 L278.263,78.2456 L278.263,81.4487 L278.908,81.2338 C278.921,81.2208 278.966,81.2143 279.044,81.2143 C279.135,81.2143 279.233,81.2534 279.337,81.3315 C279.415,81.4096 279.454,81.5008 279.454,81.6049 L279.454,82.8159 C279.454,82.9851 279.363,83.1023 279.181,83.1674 L278.263,83.519 L278.263,86.6635 M277.521,78.5385 L275.861,79.1245 L275.861,82.3276 L277.521,81.7417 L277.521,78.5385 "/>
<path class="Accidental" d="M262.517,84.1832 C262.517,84.4306 262.393,84.5543 262.146,84.5543 C261.898,84.5543 261.775,84.4306 261.775,84.1832 L261.775,81.2926 L260.115,81.9176 L260.115,85.0817 C260.115,85.3291 259.991,85.4527 259.743,85.4527 C259.496,85.4527 259.372,85.3291 259.372,85.0817 L259.372,82.1715 L258.747,82.4059 C258.734,82.4189 258.682,82.4254 258.591,82.4254 C258.487,82.4254 258.396,82.3863 258.318,82.3082 C258.24,82.2301 258.2,82.1389 258.2,82.0348 L258.2,80.8238 C258.2,80.6285 258.285,80.5048 258.454,80.4527 L259.372,80.1402 L259.372,76.9371 L258.747,77.152 C258.734,77.165 258.682,77.1715 258.591,77.1715 C258.487,77.1715 258.396,77.1324 258.318,77.0543 C258.24,76.9762 258.2,76.885 258.2,76.7809 L258.2,75.5699 C258.2,75.3876 258.285,75.2705 258.454,75.2184 L259.372,74.8668 L259.372,71.7223 C259.372,71.4749 259.496,71.3512 259.743,71.3512 C259.991,71.3512 260.115,71.4749 260.115,71.7223 L260.115,74.6129 L261.775,73.9879 L261.775,70.8238 C261.775,70.5764 261.898,70.4527 262.146,70.4527 C262.393,70.4527 262.517,70.5764 262.517,70.8238 L262.517,73.734 L263.161,73.4996 C263.174,73.4866 263.22,73.4801 263.298,73.4801 C263.389,73.4801 263.487,73.5192 263.591,73.5973 C263.669,73.6754 263.708,73.7666 263.708,73.8707 L263.708,75.0817 C263.708,75.2639 263.617,75.3876 263.435,75.4527 L262.517,75.7652 L262.517,78.9684 L263.161,78.7535 C263.174,78.7405 263.22,78.734 263.298,78.734 C263.389,78.734 263.487,78.7731 263.591,78.8512 C263.669,78.9293 263.708,79.0205 263.708,79.1246 L263.708,80.3356 C263.708,80.5048 263.617,80.622 263.435,80.6871 L262.517,81.0387 L262.517,84.1832 M261.775,76.0582 L260.115,76.6442 L260.115,79.8473 L261.775,79.2613 L261.775,76.0582 "/>
<path class="Accidental" d="M203.833,84.1832 C203.833,84.4306 203.709,84.5543 203.461,84.5543 C203.214,84.5543 203.09,84.4306 203.09,84.1832 L203.09,81.2926 L201.43,81.9176 L201.43,85.0817 C201.43,85.3291 201.307,85.4527 201.059,85.4527 C200.812,85.4527 200.688,85.3291 200.688,85.0817 L200.688,82.1715 L200.063,82.4059 C200.05,82.4189 199.998,82.4254 199.907,82.4254 C199.803,82.4254 199.711,82.3863 199.633,82.3082 C199.555,82.2301 199.516,82.1389 199.516,82.0348 L199.516,80.8238 C199.516,80.6285 199.601,80.5048 199.77,80.4527 L200.688,80.1402 L200.688,76.9371 L200.063,77.152 C200.05,77.165 199.998,77.1715 199.907,77.1715 C199.803,77.1715 199.711,77.1324 199.633,77.0543 C199.555,76.9762 199.516,76.885 199.516,76.7809 L199.516,75.5699 C199.516,75.3876 199.601,75.2705 199.77,75.2184 L200.688,74.8668 L200.688,71.7223 C200.688,71.4749 200.812,71.3512 201.059,71.3512 C201.307,71.3512 201.43,71.4749 201.43,71.7223 L201.43,74.6129 L203.09,73.9879 L203.09,70.8238 C203.09,70.5764 203.214,70.4527 203.461,70.4527 C203.709,70.4527 203.833,70.5764 203.833,70.8238 L203.833,73.734 L204.477,73.4996 C204.49,73.4866 204.536,73.4801 204.614,73.4801 C204.705,73.4801 204.803,73.5192 204.907,73.5973 C204.985,73.6754 205.024,73.7666 205.024,73.8707 L205.024,75.0817 C205.024,75.2639 204.933,75.3876 204.751,75.4527 L203.833,75.7652 L203.833,78.9684 L204.477,78.7535 C204.49,78.7405 204.536,78.734 204.614,78.734 C204.705,78.734 204.803,78.7731 204.907,78.8512 C204.985,78.9293 205.024,79.0205 205.024,79.1246 L205.024,80.3356 C205.024,80.5048 204.933,80.622 204.751,80.6871 L203.833,81.0387 L203.833,84.1832 M203.09,76.0582 L201.43,76.6442 L201.43,79.8473 L203.09,79.2613 L203.09,76.0582 "/>
<path class="Accidental" d="M145.148,86.6635 C145.148,86.9109 145.025,87.0346 144.777,87.0346 C144.53,87.0346 144.406,86.9109 144.406,86.6635 L144.406,83.7729 L142.746,84.3979 L142.746,87.562 C142.746,87.8094 142.622,87.9331 142.375,87.9331 C142.127,87.9331 142.004,87.8094 142.004,87.562 L142.004,84.6518 L141.379,84.8862 C141.366,84.8992 141.314,84.9057 141.222,84.9057 C141.118,84.9057 141.027,84.8667 140.949,84.7885 C140.871,84.7104 140.832,84.6193 140.832,84.5151 L140.832,83.3042 C140.832,83.1088 140.917,82.9851 141.086,82.9331 L142.004,82.6206 L142.004,79.4174 L141.379,79.6323 C141.366,79.6453 141.314,79.6518 141.222,79.6518 C141.118,79.6518 141.027,79.6128 140.949,79.5346 C140.871,79.4565 140.832,79.3654 140.832,79.2612 L140.832,78.0503 C140.832,77.868 140.917,77.7508 141.086,77.6987 L142.004,77.3471 L142.004,74.2026 C142.004,73.9552 142.127,73.8315 142.375,73.8315 C142.622,73.8315 142.746,73.9552 142.746,74.2026 L142.746,77.0932 L144.406,76.4682 L144.406,73.3042 C144.406,73.0568 144.53,72.9331 144.777,72.9331 C145.025,72.9331 145.148,73.0568 145.148,73.3042 L145.148,76.2143 L145.793,75.9799 C145.806,75.9669 145.851,75.9604 145.93,75.9604 C146.021,75.9604 146.118,75.9995 146.222,76.0776 C146.301,76.1557 146.34,76.2469 146.34,76.351 L146.34,77.562 C146.34,77.7443 146.249,77.868 146.066,77.9331 L145.148,78.2456 L145.148,81.4487 L145.793,81.2338 C145.806,81.2208 145.851,81.2143 145.93,81.2143 C146.021,81.2143 146.118,81.2534 146.222,81.3315 C146.301,81.4096 146.34,81.5008 146.34,81.6049 L146.34,82.8159 C146.34,82.9851 146.249,83.1023 146.066,83.1674 L145.148,83.519 L145.148,86.6635 M144.406,78.5385 L142.746,79.1245 L142.746,82.3276 L144.406,81.7417 L144.406,78.5385 "/>
<path class="Accidental" d="M119.66,84.1832 C119.66,84.4306 119.536,84.5543 119.289,84.5543 C119.041,84.5543 118.918,84.4306 118.918,84.1832 L118.918,81.2926 L117.258,81.9176 L117.258,85.0817 C117.258,85.3291 117.134,85.4527 116.887,85.4527 C116.639,85.4527 116.515,85.3291 116.515,85.0817 L116.515,82.1715 L115.89,82.4059 C115.877,82.4189 115.825,82.4254 115.734,82.4254 C115.63,82.4254 115.539,82.3863 115.461,82.3082 C115.383,82.2301 115.344,82.1389 115.344,82.0348 L115.344,80.8238 C115.344,80.6285 115.428,80.5048 115.597,80.4527 L116.515,80.1402 L116.515,76.9371 L115.89,77.152 C115.877,77.165 115.825,77.1715 115.734,77.1715 C115.63,77.1715 115.539,77.1324 115.461,77.0543 C115.383,76.9762 115.344,76.885 115.344,76.7809 L115.344,75.5699 C115.344,75.3876 115.428,75.2705 115.597,75.2184 L116.515,74.8668 L116.515,71.7223 C116.515,71.4749 116.639,71.3512 116.887,71.3512 C117.134,71.3512 117.258,71.4749 117.258,71.7223 L117.258,74.6129 L118.918,73.9879 L118.918,70.8238 C118.918,70.5764 119.041,70.4527 119.289,70.4527 C119.536,70.4527 119.66,70.5764 119.66,70.8238 L119.66,73.734 L120.305,73.4996 C120.318,73.4866 120.363,73.4801 120.441,73.4801 C120.532,73.4801 120.63,73.5192 120.734,73.5973 C120.812,73.6754 120.851,73.7666 120.851,73.8707 L120.851,75.0817 C120.851,75.2639 120.76,75.3876 120.578,75.4527 L119.66,75.7652 L119.66,78.9684 L120.305,78.7535 C120.318,78.7405 120.363,78.734 120.441,78.734 C120.532,78.734 120.63,78.7731 120.734,78.8512 C120.812,78.9293 120.851,79.0205 120.851,79.1246 L120.851,80.3356 C120.851,80.5048 120.76,80.622 120.578,80.6871 L119.66,81.0387 L119.66,84.1832 M118.918,76.0582 L117.258,76.6442 L117.258,79.8473 L118.918,79.2613 L118.918,76.0582 "/>
<path class="Accidental" d="M78.9579,76.7423 C78.9579,76.9897 78.8342,77.1134 78.5868,77.1134 C78.3394,77.1134 78.2157,76.9897 78.2157,76.7423 L78.2157,73.8516 L76.5555,74.4766 L76.5555,77.6407 C76.5555,77.8881 76.4319,78.0118 76.1845,78.0118 C75.9371,78.0118 75.8134,77.8881 75.8134,77.6407 L75.8134,74.7306 L75.1884,74.9649 C75.1753,74.978 75.1233,74.9845 75.0321,74.9845 C74.9279,74.9845 74.8368,74.9454 74.7587,74.8673 C74.6805,74.7891 74.6415,74.698 74.6415,74.5938 L74.6415,73.3829 C74.6415,73.1876 74.7261,73.0639 74.8954,73.0118 L75.8134,72.6993 L75.8134,69.4962 L75.1884,69.711 C75.1753,69.724 75.1233,69.7306 75.0321,69.7306 C74.9279,69.7306 74.8368,69.6915 74.7587,69.6134 C74.6805,69.5352 74.6415,69.4441 74.6415,69.3399 L74.6415,68.129 C74.6415,67.9467 74.7261,67.8295 74.8954,67.7774 L75.8134,67.4259 L75.8134,64.2813 C75.8134,64.0339 75.9371,63.9102 76.1845,63.9102 C76.4319,63.9102 76.5555,64.0339 76.5555,64.2813 L76.5555,67.172 L78.2157,66.547 L78.2157,63.3829 C78.2157,63.1355 78.3394,63.0118 78.5868,63.0118 C78.8342,63.0118 78.9579,63.1355 78.9579,63.3829 L78.9579,66.2931 L79.6024,66.0587 C79.6154,66.0457 79.661,66.0391 79.7391,66.0391 C79.8303,66.0391 79.9279,66.0782 80.0321,66.1563 C80.1102,66.2345 80.1493,66.3256 80.1493,66.4298 L80.1493,67.6407 C80.1493,67.823 80.0582,67.9467 79.8759,68.0118 L78.9579,68.3243 L78.9579,71.5274 L79.6024,71.3126 C79.6154,71.2996 79.661,71.2931 79.7391,71.2931 C79.8303,71.2931 79.9279,71.3321 80.0321,71.4102 C80.1102,71.4884 80.1493,71.5795 80.1493,71.6837 L80.1493,72.8946 C80.1493,73.0639 80.0582,73.1811 79.8759,73.2462 L78.9579,73.5977 L78.9579,76.7423 M78.2157,68.6173 L76.5555,69.2032 L76.5555,72.4063 L78.2157,71.8204 L78.2157,68.6173 "/>
<polyline class="Stem" stroke="#000000" stroke-width="0.64" stroke-linecap="round" stroke-linejoin="bevel" points="540.501,171.273 540.501,155.463"/>
<polyline class="Stem" stroke="#000000" stroke-width="0.64" stroke-linecap="round" stroke-linejoin="bevel" points="509.948,171.273 509.948,155.463"/>
<polyline class="Stem" stroke="#000000" stroke-width="0.64" stroke-linecap="round" stroke-linejoin="bevel" points="449.396,168.962 449.396,153.602"/>
<polyline class="Stem" stroke="#000000" stroke-width="0.64" stroke-linecap="round" stroke-linejoin="bevel" points="425.41,171.273 425.41,155.463"/>
<polyline class="Stem" stroke="#000000" stroke-width="0.64" stroke-linecap="round" stroke-linejoin="bevel" points="398.363,171.273 398.363,157.323"/>
<polyline class="Stem" stroke="#000000" stroke-width="0.64" stroke-linecap="round" stroke-linejoin="bevel" points="378.062,173.753 378.062,158.563"/>
<polyline class="Stem" stroke="#000000" stroke-width="0.64" stroke-linecap="round" stroke-linejoin="bevel" points="338.455,171.273 338.455,155.463"/>
<polyline class="Stem" stroke="#000000" stroke-width="0.64" stroke-linecap="round" stroke-linejoin="bevel" points="300.088,168.176 300.088,182.746"/>
<polyline class="Stem" stroke="#000000" stroke-width="0.64" stroke-linecap="round" stroke-linejoin="bevel" points="285.673,171.273 285.673,155.463"/>
<polyline class="Stem" stroke="#000000" stroke-width="0.64" stroke-linecap="round" stroke-linejoin="bevel" points="238.753,171.273 238.753,155.463"/>
<polyline class="Stem" stroke="#000000" stroke-width="0.64" stroke-linecap="round" stroke-linejoin="bevel" points="209.017,173.753 209.017,157.323"/>
<polyline class="Stem" stroke="#000000" stroke-width="0.64" stroke-linecap="round" stroke-linejoin="bevel" points="168.843,176.234 168.843,159.803"/>
<polyline class="Stem" stroke="#000000" stroke-width="0.64" stroke-linecap="round" stroke-linejoin="bevel" points="144.304,176.234 144.304,159.803"/>
<polyline class="Stem" stroke="#000000" stroke-width="0.64" stroke-linecap="round" stroke-linejoin="bevel" points="105.339,173.923 105.339,157.323"/>
<polyline class="Stem" stroke="#000000" stroke-width="0.64" stroke-linecap="round" stroke-linejoin="bevel" points="76.6919,168.793 76.6919,153.602"/>
<polyline class="Stem" stroke="#000000" stroke-width="0.64" stroke-linecap="round" stroke-linejoin="bevel" points="53.0132,168.176 53.0132,184.606"/>
<polyline class="Stem" stroke="#000000" stroke-width="0.64" stroke-linecap="round" stroke-linejoin="bevel" points="554.966,73.9238 554.966,87.874"/>
<polyline class="Stem" stroke="#000000" stroke-width="0.64" stroke-linecap="round" stroke-linejoin="bevel" points="546.483,68.9632 546.483,82.9134"/>
<polyline class="Stem" stroke="#000000" stroke-width="0.64" stroke-linecap="round" stroke-linejoin="bevel" points="532.91,71.4435 532.91,86.6339"/>
<polyline class="Stem" stroke="#000000" stroke-width="0.64" stroke-linecap="round" stroke-linejoin="bevel" points="519.337,73.9238 519.337,88.4941"/>
<polyline class="Stem" stroke="#000000" stroke-width="0.64" stroke-linecap="round" stroke-linejoin="bevel" points="511.65,74.5408 511.65,59.3504"/>
<polyline class="Stem" stroke="#000000" stroke-width="0.64" stroke-linecap="round" stroke-linejoin="bevel" points="492.238,74.5408 492.238,59.3504"/>
<polyline class="Stem" stroke="#000000" stroke-width="0.64" stroke-linecap="round" stroke-linejoin="bevel" points="467.707,77.1908 467.707,61.2106"/>
<polyline class="Stem" stroke="#000000" stroke-width="0.64" stroke-linecap="round" stroke-linejoin="bevel" points="436.9,79.6711 436.9,63.0709"/>
<polyline class="Stem" stroke="#000000" stroke-width="0.64" stroke-linecap="round" stroke-linejoin="bevel" points="416.201,77.1908 416.201,61.2106"/>
<polyline class="Stem" stroke="#000000" stroke-width="0.64" stroke-linecap="round" stroke-linejoin="bevel" points="389.902,74.5408 389.902,59.3504"/>
<polyline class="Stem" stroke="#000000" stroke-width="0.64" stroke-linecap="round" stroke-linejoin="bevel" points="373.889,77.0211 373.889,61.2106"/>
<polyline class="Stem" stroke="#000000" stroke-width="0.64" stroke-linecap="round" stroke-linejoin="bevel" points="357.877,79.5014 357.877,63.0709"/>
<polyline class="Stem" stroke="#000000" stroke-width="0.64" stroke-linecap="round" stroke-linejoin="bevel" points="341.865,81.9817 341.865,65.5512"/>
<polyline class="Stem" stroke="#000000" stroke-width="0.64" stroke-linecap="round" stroke-linejoin="bevel" points="318.203,81.9817 318.203,65.5512"/>
<polyline class="Stem" stroke="#000000" stroke-width="0.64" stroke-linecap="round" stroke-linejoin="bevel" points="302.457,81.9817 302.457,65.5512"/>
<polyline class="Stem" stroke="#000000" stroke-width="0.64" stroke-linecap="round" stroke-linejoin="bevel" points="286.711,79.5014 286.711,63.0709"/>
<polyline class="Stem" stroke="#000000" stroke-width="0.64" stroke-linecap="round" stroke-linejoin="bevel" points="270.965,77.0211 270.965,61.2106"/>
<polyline class="Stem" stroke="#000000" stroke-width="0.64" stroke-linecap="round" stroke-linejoin="bevel" points="248.847,77.0211 248.847,61.2106"/>
<polyline class="Stem" stroke="#000000" stroke-width="0.64" stroke-linecap="round" stroke-linejoin="bevel" points="236.658,74.5408 236.658,59.3504"/>
<polyline class="Stem" stroke="#000000" stroke-width="0.64" stroke-linecap="round" stroke-linejoin="bevel" points="224.469,74.5408 224.469,59.3504"/>
<polyline class="Stem" stroke="#000000" stroke-width="0.64" stroke-linecap="round" stroke-linejoin="bevel" points="212.28,77.0211 212.28,61.2106"/>
<polyline class="Stem" stroke="#000000" stroke-width="0.64" stroke-linecap="round" stroke-linejoin="bevel" points="190.163,79.5014 190.163,63.0709"/>
<polyline class="Stem" stroke="#000000" stroke-width="0.64" stroke-linecap="round" stroke-linejoin="bevel" points="172.088,73.9238 172.088,88.4941"/>
<polyline class="Stem" stroke="#000000" stroke-width="0.64" stroke-linecap="round" stroke-linejoin="bevel" points="165.785,81.9817 165.785,65.5512"/>
<polyline class="Stem" stroke="#000000" stroke-width="0.64" stroke-linecap="round" stroke-linejoin="bevel" points="153.596,79.5014 153.596,63.0709"/>
<polyline class="Stem" stroke="#000000" stroke-width="0.64" stroke-linecap="round" stroke-linejoin="bevel" points="128.108,77.0211 128.108,61.2106"/>
<polyline class="Stem" stroke="#000000" stroke-width="0.64" stroke-linecap="round" stroke-linejoin="bevel" points="112.69,74.5408 112.69,59.3504"/>
<polyline class="Stem" stroke="#000000" stroke-width="0.64" stroke-linecap="round" stroke-linejoin="bevel" points="102.965,72.0604 102.965,58.1102"/>
<polyline class="Stem" stroke="#000000" stroke-width="0.64" stroke-linecap="round" stroke-linejoin="bevel" points="81.5197,71.4435 81.5197,86.6339"/>
<polyline class="Stem" stroke="#000000" stroke-width="0.64" stroke-linecap="round" stroke-linejoin="bevel" points="65.9604,68.9632 65.9604,84.7736"/>
<path class="Note" d="M538.687,169.451 C539.312,169.451 539.839,169.614 540.269,169.939 C540.673,170.291 540.874,170.733 540.874,171.267 C540.874,172.166 540.412,173.005 539.488,173.787 C538.55,174.568 537.548,174.959 536.48,174.959 C535.855,174.959 535.327,174.796 534.898,174.47 C534.494,174.119 534.292,173.676 534.292,173.142 C534.292,172.244 534.761,171.404 535.699,170.623 C536.61,169.841 537.606,169.451 538.687,169.451"/>
<path class="Note" d="M508.134,169.451 C508.759,169.451 509.286,169.614 509.716,169.939 C510.119,170.291 510.321,170.733 510.321,171.267 C510.321,172.166 509.859,173.005 508.934,173.787 C507.997,174.568 506.994,174.959 505.927,174.959 C505.302,174.959 504.774,174.796 504.345,174.47 C503.941,174.119 503.739,173.676 503.739,173.142 C503.739,172.244 504.208,171.404 505.145,170.623 C506.057,169.841 507.053,169.451 508.134,169.451"/>
<path class="Note" d="M449.138,168.416 C449.138,168.194 449.053,168.006 448.884,167.849 C448.715,167.68 448.52,167.595 448.298,167.595 C447.908,167.595 447.12,167.986 445.935,168.767 C444.711,169.562 443.962,170.128 443.689,170.467 C443.546,170.649 443.474,170.838 443.474,171.033 C443.474,171.254 443.559,171.443 443.728,171.599 C443.884,171.769 444.079,171.853 444.314,171.853 C444.691,171.853 445.486,171.463 446.697,170.681 C447.895,169.9 448.637,169.334 448.923,168.982 C449.066,168.813 449.138,168.624 449.138,168.416 M448.103,166.97 C449.223,166.97 449.783,167.452 449.783,168.416 C449.783,168.885 449.646,169.431 449.372,170.056 C449.099,170.668 448.734,171.137 448.279,171.463 C447.276,172.14 446.02,172.478 444.509,172.478 C443.389,172.478 442.829,171.997 442.829,171.033 C442.829,170.603 442.966,170.063 443.24,169.412 C443.5,168.787 443.865,168.312 444.333,167.986 C445.336,167.309 446.593,166.97 448.103,166.97"/>
<path class="Note" d="M423.596,169.451 C424.221,169.451 424.749,169.614 425.178,169.939 C425.582,170.291 425.784,170.733 425.784,171.267 C425.784,172.166 425.322,173.005 424.397,173.787 C423.46,174.568 422.457,174.959 421.389,174.959 C420.764,174.959 420.237,174.796 419.807,174.47 C419.404,174.119 419.202,173.676 419.202,173.142 C419.202,172.244 419.671,171.404 420.608,170.623 C421.519,169.841 422.516,169.451 423.596,169.451"/>
<path class="Note" d="M396.549,169.451 C397.174,169.451 397.701,169.614 398.131,169.939 C398.535,170.291 398.736,170.733 398.736,171.267 C398.736,172.166 398.274,173.005 397.35,173.787 C396.412,174.568 395.41,174.959 394.342,174.959 C393.717,174.959 393.19,174.796 392.76,174.47 C392.356,174.119 392.154,173.676 392.154,173.142 C392.154,172.244 392.623,171.404 393.561,170.623 C394.472,169.841 395.468,169.451 396.549,169.451"/>
<path class="Note" d="M376.248,171.931 C376.873,171.931 377.4,172.094 377.83,172.419 C378.234,172.771 378.436,173.214 378.436,173.748 C378.436,174.646 377.973,175.486 377.049,176.267 C376.111,177.048 375.109,177.439 374.041,177.439 C373.416,177.439 372.889,177.276 372.459,176.951 C372.055,176.599 371.854,176.156 371.854,175.623 C371.854,174.724 372.322,173.884 373.26,173.103 C374.171,172.322 375.167,171.931 376.248,171.931"/>
<path class="Note" d="M336.641,169.451 C337.266,169.451 337.794,169.614 338.223,169.939 C338.627,170.291 338.829,170.733 338.829,171.267 C338.829,172.166 338.367,173.005 337.442,173.787 C336.505,174.568 335.502,174.959 334.434,174.959 C333.809,174.959 333.282,174.796 332.852,174.47 C332.449,174.119 332.247,173.676 332.247,173.142 C332.247,172.244 332.716,171.404 333.653,170.623 C334.565,169.841 335.561,169.451 336.641,169.451"/>
<path class="Note" d="M304.16,164.49 C304.785,164.49 305.312,164.653 305.742,164.978 C306.146,165.33 306.348,165.773 306.348,166.307 C306.348,167.205 305.885,168.045 304.961,168.826 C304.023,169.607 303.021,169.998 301.953,169.998 C301.328,169.998 300.801,169.835 300.371,169.51 C299.967,169.158 299.765,168.715 299.765,168.182 C299.765,167.283 300.234,166.443 301.172,165.662 C302.083,164.881 303.079,164.49 304.16,164.49"/>
<path class="Note" d="M283.859,169.451 C284.484,169.451 285.011,169.614 285.441,169.939 C285.845,170.291 286.047,170.733 286.047,171.267 C286.047,172.166 285.584,173.005 284.66,173.787 C283.722,174.568 282.72,174.959 281.652,174.959 C281.027,174.959 280.5,174.796 280.07,174.47 C279.666,174.119 279.465,173.676 279.465,173.142 C279.465,172.244 279.933,171.404 280.871,170.623 C281.782,169.841 282.778,169.451 283.859,169.451"/>
<path class="Note" d="M236.939,169.451 C237.564,169.451 238.092,169.614 238.521,169.939 C238.925,170.291 239.127,170.733 239.127,171.267 C239.127,172.166 238.664,173.005 237.74,173.787 C236.803,174.568 235.8,174.959 234.732,174.959 C234.107,174.959 233.58,174.796 233.15,174.47 C232.747,174.119 232.545,173.676 232.545,173.142 C232.545,172.244 233.013,171.404 233.951,170.623 C234.862,169.841 235.858,169.451 236.939,169.451"/>
<path class="Note" d="M207.203,171.931 C207.828,171.931 208.355,172.094 208.785,172.419 C209.188,172.771 209.39,173.214 209.39,173.748 C209.39,174.646 208.928,175.486 208.003,176.267 C207.066,177.048 206.063,177.439 204.996,177.439 C204.371,177.439 203.843,177.276 203.414,176.951 C203.01,176.599 202.808,176.156 202.808,175.623 C202.808,174.724 203.277,173.884 204.214,173.103 C205.126,172.322 206.122,171.931 207.203,171.931"/>
<path class="Note" d="M167.029,174.411 C167.654,174.411 168.182,174.574 168.611,174.9 C169.015,175.251 169.217,175.694 169.217,176.228 C169.217,177.126 168.754,177.966 167.83,178.747 C166.892,179.529 165.89,179.919 164.822,179.919 C164.197,179.919 163.67,179.756 163.24,179.431 C162.836,179.079 162.635,178.637 162.635,178.103 C162.635,177.204 163.103,176.365 164.041,175.583 C164.952,174.802 165.948,174.411 167.029,174.411"/>
<path class="Note" d="M142.49,174.411 C143.115,174.411 143.642,174.574 144.072,174.9 C144.476,175.251 144.678,175.694 144.678,176.228 C144.678,177.126 144.215,177.966 143.291,178.747 C142.353,179.529 141.351,179.919 140.283,179.919 C139.658,179.919 139.131,179.756 138.701,179.431 C138.297,179.079 138.096,178.637 138.096,178.103 C138.096,177.204 138.564,176.365 139.502,175.583 C140.413,174.802 141.409,174.411 142.49,174.411"/>
<path class="Note" d="M105.081,173.376 C105.081,173.155 104.997,172.966 104.827,172.81 C104.658,172.641 104.463,172.556 104.241,172.556 C103.851,172.556 103.063,172.947 101.878,173.728 C100.654,174.522 99.9054,175.089 99.632,175.427 C99.4888,175.61 99.4172,175.798 99.4172,175.994 C99.4172,176.215 99.5018,176.404 99.6711,176.56 C99.8273,176.729 100.023,176.814 100.257,176.814 C100.635,176.814 101.429,176.423 102.64,175.642 C103.838,174.861 104.58,174.294 104.866,173.943 C105.01,173.774 105.081,173.585 105.081,173.376 M104.046,171.931 C105.166,171.931 105.726,172.413 105.726,173.376 C105.726,173.845 105.589,174.392 105.316,175.017 C105.042,175.629 104.678,176.098 104.222,176.423 C103.219,177.1 101.963,177.439 100.452,177.439 C99.3325,177.439 98.7726,176.957 98.7726,175.994 C98.7726,175.564 98.9094,175.024 99.1828,174.373 C99.4432,173.748 99.8078,173.272 100.277,172.947 C101.279,172.27 102.536,171.931 104.046,171.931"/>
<path class="Note" d="M74.8779,166.97 C75.5029,166.97 76.0303,167.133 76.46,167.459 C76.8636,167.81 77.0654,168.253 77.0654,168.787 C77.0654,169.685 76.6032,170.525 75.6787,171.306 C74.7412,172.088 73.7386,172.478 72.6709,172.478 C72.0459,172.478 71.5186,172.316 71.0889,171.99 C70.6852,171.638 70.4834,171.196 70.4834,170.662 C70.4834,169.763 70.9522,168.924 71.8897,168.142 C72.8011,167.361 73.7972,166.97 74.8779,166.97"/>
<path class="Note" d="M57.0853,164.49 C57.7103,164.49 58.2376,164.653 58.6673,164.978 C59.0709,165.33 59.2728,165.773 59.2728,166.307 C59.2728,167.205 58.8105,168.045 57.8861,168.826 C56.9486,169.607 55.9459,169.998 54.8782,169.998 C54.2532,169.998 53.7259,169.835 53.2962,169.51 C52.8926,169.158 52.6907,168.715 52.6907,168.182 C52.6907,167.283 53.1595,166.443 54.097,165.662 C55.0084,164.881 56.0045,164.49 57.0853,164.49"/>
<path class="Note" d="M559.038,70.2382 C559.663,70.2382 560.19,70.401 560.62,70.7265 C561.023,71.0781 561.225,71.5208 561.225,72.0546 C561.225,72.9531 560.763,73.7929 559.839,74.5742 C558.901,75.3554 557.898,75.746 556.831,75.746 C556.206,75.746 555.678,75.5833 555.249,75.2577 C554.845,74.9062 554.643,74.4635 554.643,73.9296 C554.643,73.0312 555.112,72.1913 556.049,71.4101 C556.961,70.6288 557.957,70.2382 559.038,70.2382"/>
<path class="Note" d="M550.555,65.2776 C551.18,65.2776 551.707,65.4403 552.137,65.7659 C552.54,66.1174 552.742,66.5601 552.742,67.094 C552.742,67.9924 552.28,68.8323 551.355,69.6135 C550.418,70.3948 549.415,70.7854 548.348,70.7854 C547.723,70.7854 547.195,70.6226 546.766,70.2971 C546.362,69.9456 546.16,69.5028 546.16,68.969 C546.16,68.0706 546.629,67.2307 547.566,66.4495 C548.478,65.6682 549.474,65.2776 550.555,65.2776"/>
<path class="Note" d="M536.982,67.7579 C537.607,67.7579 538.134,67.9207 538.564,68.2462 C538.967,68.5977 539.169,69.0405 539.169,69.5743 C539.169,70.4727 538.707,71.3126 537.783,72.0938 C536.845,72.8751 535.842,73.2657 534.775,73.2657 C534.15,73.2657 533.622,73.103 533.193,72.7774 C532.789,72.4259 532.587,71.9832 532.587,71.4493 C532.587,70.5509 533.056,69.711 533.994,68.9298 C534.905,68.1485 535.901,67.7579 536.982,67.7579"/>
<path class="Note" d="M523.409,70.2382 C524.034,70.2382 524.561,70.401 524.991,70.7265 C525.395,71.0781 525.596,71.5208 525.596,72.0546 C525.596,72.9531 525.134,73.7929 524.21,74.5742 C523.272,75.3554 522.27,75.746 521.202,75.746 C520.577,75.746 520.05,75.5833 519.62,75.2577 C519.216,74.9062 519.014,74.4635 519.014,73.9296 C519.014,73.0312 519.483,72.1913 520.421,71.4101 C521.332,70.6288 522.328,70.2382 523.409,70.2382"/>
<path class="Note" d="M509.836,72.7185 C510.461,72.7185 510.988,72.8813 511.418,73.2068 C511.822,73.5584 512.024,74.0011 512.024,74.5349 C512.024,75.4334 511.561,76.2732 510.637,77.0545 C509.699,77.8357 508.697,78.2263 507.629,78.2263 C507.004,78.2263 506.477,78.0636 506.047,77.7381 C505.643,77.3865 505.442,76.9438 505.442,76.4099 C505.442,75.5115 505.91,74.6717 506.848,73.8904 C507.759,73.1092 508.755,72.7185 509.836,72.7185"/>
<path class="Note" d="M490.424,72.7185 C491.049,72.7185 491.576,72.8813 492.006,73.2068 C492.41,73.5584 492.611,74.0011 492.611,74.5349 C492.611,75.4334 492.149,76.2732 491.225,77.0545 C490.287,77.8357 489.285,78.2263 488.217,78.2263 C487.592,78.2263 487.065,78.0636 486.635,77.7381 C486.231,77.3865 486.029,76.9438 486.029,76.4099 C486.029,75.5115 486.498,74.6717 487.436,73.8904 C488.347,73.1092 489.343,72.7185 490.424,72.7185"/>
<path class="Note" d="M467.449,76.6442 C467.449,76.4228 467.364,76.234 467.195,76.0777 C467.025,75.9085 466.83,75.8238 466.609,75.8238 C466.218,75.8238 465.43,76.2145 464.245,76.9957 C463.021,77.79 462.273,78.3564 461.999,78.6949 C461.856,78.8772 461.784,79.066 461.784,79.2613 C461.784,79.4827 461.869,79.6715 462.038,79.8277 C462.195,79.997 462.39,80.0817 462.624,80.0817 C463.002,80.0817 463.796,79.691 465.007,78.9098 C466.205,78.1285 466.947,77.5621 467.234,77.2106 C467.377,77.0413 467.449,76.8525 467.449,76.6442 M466.413,75.1988 C467.533,75.1988 468.093,75.6806 468.093,76.6442 C468.093,77.1129 467.956,77.6598 467.683,78.2848 C467.409,78.8968 467.045,79.3655 466.589,79.691 C465.587,80.3681 464.33,80.7067 462.82,80.7067 C461.7,80.7067 461.14,80.2249 461.14,79.2613 C461.14,78.8317 461.277,78.2913 461.55,77.6402 C461.811,77.0152 462.175,76.54 462.644,76.2145 C463.646,75.5374 464.903,75.1988 466.413,75.1988"/>
<path class="Note" d="M436.642,79.1245 C436.642,78.9031 436.557,78.7143 436.388,78.5581 C436.219,78.3888 436.023,78.3042 435.802,78.3042 C435.411,78.3042 434.624,78.6948 433.439,79.476 C432.215,80.2703 431.466,80.8367 431.193,81.1753 C431.049,81.3575 430.978,81.5463 430.978,81.7417 C430.978,81.963 431.062,82.1518 431.232,82.3081 C431.388,82.4773 431.583,82.562 431.818,82.562 C432.195,82.562 432.989,82.1713 434.2,81.3901 C435.398,80.6088 436.141,80.0424 436.427,79.6909 C436.57,79.5216 436.642,79.3328 436.642,79.1245 M435.607,77.6792 C436.726,77.6792 437.286,78.1609 437.286,79.1245 C437.286,79.5932 437.15,80.1401 436.876,80.7651 C436.603,81.3771 436.238,81.8458 435.782,82.1713 C434.78,82.8484 433.523,83.187 432.013,83.187 C430.893,83.187 430.333,82.7052 430.333,81.7417 C430.333,81.312 430.47,80.7716 430.743,80.1206 C431.004,79.4956 431.368,79.0203 431.837,78.6948 C432.84,78.0177 434.096,77.6792 435.607,77.6792"/>
<path class="Note" d="M415.943,76.6442 C415.943,76.4228 415.859,76.234 415.689,76.0777 C415.52,75.9085 415.325,75.8238 415.103,75.8238 C414.713,75.8238 413.925,76.2145 412.74,76.9957 C411.516,77.79 410.767,78.3564 410.494,78.6949 C410.351,78.8772 410.279,79.066 410.279,79.2613 C410.279,79.4827 410.364,79.6715 410.533,79.8277 C410.689,79.997 410.885,80.0817 411.119,80.0817 C411.497,80.0817 412.291,79.691 413.502,78.9098 C414.7,78.1285 415.442,77.5621 415.728,77.2106 C415.872,77.0413 415.943,76.8525 415.943,76.6442 M414.908,75.1988 C416.028,75.1988 416.588,75.6806 416.588,76.6442 C416.588,77.1129 416.451,77.6598 416.178,78.2848 C415.904,78.8968 415.54,79.3655 415.084,79.691 C414.081,80.3681 412.825,80.7067 411.314,80.7067 C410.195,80.7067 409.635,80.2249 409.635,79.2613 C409.635,78.8317 409.771,78.2913 410.045,77.6402 C410.305,77.0152 410.67,76.54 411.139,76.2145 C412.141,75.5374 413.398,75.1988 414.908,75.1988"/>
<path class="Note" d="M388.088,72.7185 C388.713,72.7185 389.24,72.8813 389.67,73.2068 C390.073,73.5584 390.275,74.0011 390.275,74.5349 C390.275,75.4334 389.813,76.2732 388.889,77.0545 C387.951,77.8357 386.948,78.2263 385.881,78.2263 C385.256,78.2263 384.728,78.0636 384.299,77.7381 C383.895,77.3865 383.693,76.9438 383.693,76.4099 C383.693,75.5115 384.162,74.6717 385.099,73.8904 C386.011,73.1092 387.007,72.7185 388.088,72.7185"/>
<path class="Note" d="M372.075,75.1988 C372.7,75.1988 373.228,75.3616 373.657,75.6871 C374.061,76.0387 374.263,76.4814 374.263,77.0152 C374.263,77.9137 373.801,78.7535 372.876,79.5348 C371.939,80.316 370.936,80.7067 369.868,80.7067 C369.243,80.7067 368.716,80.5439 368.286,80.2184 C367.883,79.8668 367.681,79.4241 367.681,78.8902 C367.681,77.9918 368.15,77.152 369.087,76.3707 C369.999,75.5895 370.995,75.1988 372.075,75.1988"/>
<path class="Note" d="M356.063,77.6792 C356.688,77.6792 357.215,77.8419 357.645,78.1674 C358.049,78.519 358.25,78.9617 358.25,79.4956 C358.25,80.394 357.788,81.2338 356.864,82.0151 C355.926,82.7963 354.924,83.187 353.856,83.187 C353.231,83.187 352.704,83.0242 352.274,82.6987 C351.87,82.3471 351.668,81.9044 351.668,81.3706 C351.668,80.4721 352.137,79.6323 353.075,78.851 C353.986,78.0698 354.982,77.6792 356.063,77.6792"/>
<path class="Note" d="M340.051,80.1595 C340.676,80.1595 341.203,80.3222 341.633,80.6478 C342.036,80.9993 342.238,81.442 342.238,81.9759 C342.238,82.8743 341.776,83.7142 340.851,84.4954 C339.914,85.2767 338.911,85.6673 337.844,85.6673 C337.219,85.6673 336.691,85.5045 336.262,85.179 C335.858,84.8274 335.656,84.3847 335.656,83.8509 C335.656,82.9524 336.125,82.1126 337.062,81.3313 C337.974,80.5501 338.97,80.1595 340.051,80.1595"/>
<path class="Note" d="M316.389,80.1595 C317.014,80.1595 317.542,80.3222 317.971,80.6478 C318.375,80.9993 318.577,81.442 318.577,81.9759 C318.577,82.8743 318.114,83.7142 317.19,84.4954 C316.252,85.2767 315.25,85.6673 314.182,85.6673 C313.557,85.6673 313.03,85.5045 312.6,85.179 C312.196,84.8274 311.995,84.3847 311.995,83.8509 C311.995,82.9524 312.463,82.1126 313.401,81.3313 C314.312,80.5501 315.308,80.1595 316.389,80.1595"/>
<path class="Note" d="M300.643,80.1595 C301.268,80.1595 301.795,80.3222 302.225,80.6478 C302.629,80.9993 302.831,81.442 302.831,81.9759 C302.831,82.8743 302.368,83.7142 301.444,84.4954 C300.506,85.2767 299.504,85.6673 298.436,85.6673 C297.811,85.6673 297.284,85.5045 296.854,85.179 C296.45,84.8274 296.249,84.3847 296.249,83.8509 C296.249,82.9524 296.717,82.1126 297.655,81.3313 C298.566,80.5501 299.562,80.1595 300.643,80.1595"/>
<path class="Note" d="M284.897,77.6792 C285.522,77.6792 286.049,77.8419 286.479,78.1674 C286.883,78.519 287.084,78.9617 287.084,79.4956 C287.084,80.394 286.622,81.2338 285.698,82.0151 C284.76,82.7963 283.758,83.187 282.69,83.187 C282.065,83.187 281.538,83.0242 281.108,82.6987 C280.704,82.3471 280.502,81.9044 280.502,81.3706 C280.502,80.4721 280.971,79.6323 281.909,78.851 C282.82,78.0698 283.816,77.6792 284.897,77.6792"/>
<path class="Note" d="M269.151,75.1988 C269.776,75.1988 270.303,75.3616 270.733,75.6871 C271.136,76.0387 271.338,76.4814 271.338,77.0152 C271.338,77.9137 270.876,78.7535 269.952,79.5348 C269.014,80.316 268.011,80.7067 266.944,80.7067 C266.319,80.7067 265.791,80.5439 265.362,80.2184 C264.958,79.8668 264.756,79.4241 264.756,78.8902 C264.756,77.9918 265.225,77.152 266.162,76.3707 C267.074,75.5895 268.07,75.1988 269.151,75.1988"/>
<path class="Note" d="M247.033,75.1988 C247.658,75.1988 248.185,75.3616 248.615,75.6871 C249.019,76.0387 249.22,76.4814 249.22,77.0152 C249.22,77.9137 248.758,78.7535 247.834,79.5348 C246.896,80.316 245.894,80.7067 244.826,80.7067 C244.201,80.7067 243.674,80.5439 243.244,80.2184 C242.84,79.8668 242.638,79.4241 242.638,78.8902 C242.638,77.9918 243.107,77.152 244.045,76.3707 C244.956,75.5895 245.952,75.1988 247.033,75.1988"/>
<path class="Note" d="M234.844,72.7185 C235.469,72.7185 235.996,72.8813 236.426,73.2068 C236.83,73.5584 237.032,74.0011 237.032,74.5349 C237.032,75.4334 236.569,76.2732 235.645,77.0545 C234.707,77.8357 233.705,78.2263 232.637,78.2263 C232.012,78.2263 231.485,78.0636 231.055,77.7381 C230.651,77.3865 230.45,76.9438 230.45,76.4099 C230.45,75.5115 230.918,74.6717 231.856,73.8904 C232.767,73.1092 233.763,72.7185 234.844,72.7185"/>
<path class="Note" d="M222.655,72.7185 C223.28,72.7185 223.808,72.8813 224.237,73.2068 C224.641,73.5584 224.843,74.0011 224.843,74.5349 C224.843,75.4334 224.381,76.2732 223.456,77.0545 C222.519,77.8357 221.516,78.2263 220.448,78.2263 C219.823,78.2263 219.296,78.0636 218.866,77.7381 C218.463,77.3865 218.261,76.9438 218.261,76.4099 C218.261,75.5115 218.73,74.6717 219.667,73.8904 C220.578,73.1092 221.575,72.7185 222.655,72.7185"/>
<path class="Note" d="M210.466,75.1988 C211.091,75.1988 211.619,75.3616 212.049,75.6871 C212.452,76.0387 212.654,76.4814 212.654,77.0152 C212.654,77.9137 212.192,78.7535 211.267,79.5348 C210.33,80.316 209.327,80.7067 208.259,80.7067 C207.634,80.7067 207.107,80.5439 206.677,80.2184 C206.274,79.8668 206.072,79.4241 206.072,78.8902 C206.072,77.9918 206.541,77.152 207.478,76.3707 C208.39,75.5895 209.386,75.1988 210.466,75.1988"/>
<path class="Note" d="M188.349,77.6792 C188.974,77.6792 189.501,77.8419 189.931,78.1674 C190.334,78.519 190.536,78.9617 190.536,79.4956 C190.536,80.394 190.074,81.2338 189.149,82.0151 C188.212,82.7963 187.209,83.187 186.142,83.187 C185.517,83.187 184.989,83.0242 184.56,82.6987 C184.156,82.3471 183.954,81.9044 183.954,81.3706 C183.954,80.4721 184.423,79.6323 185.36,78.851 C186.272,78.0698 187.268,77.6792 188.349,77.6792"/>
<path class="Note" d="M176.16,70.2382 C176.785,70.2382 177.312,70.401 177.742,70.7265 C178.146,71.0781 178.347,71.5208 178.347,72.0546 C178.347,72.9531 177.885,73.7929 176.961,74.5742 C176.023,75.3554 175.021,75.746 173.953,75.746 C173.328,75.746 172.8,75.5833 172.371,75.2577 C171.967,74.9062 171.765,74.4635 171.765,73.9296 C171.765,73.0312 172.234,72.1913 173.172,71.4101 C174.083,70.6288 175.079,70.2382 176.16,70.2382"/>
<path class="Note" d="M163.971,80.1595 C164.596,80.1595 165.123,80.3222 165.553,80.6478 C165.957,80.9993 166.159,81.442 166.159,81.9759 C166.159,82.8743 165.696,83.7142 164.772,84.4954 C163.834,85.2767 162.832,85.6673 161.764,85.6673 C161.139,85.6673 160.612,85.5045 160.182,85.179 C159.778,84.8274 159.576,84.3847 159.576,83.8509 C159.576,82.9524 160.045,82.1126 160.983,81.3313 C161.894,80.5501 162.89,80.1595 163.971,80.1595"/>
<path class="Note" d="M151.782,77.6792 C152.407,77.6792 152.935,77.8419 153.364,78.1674 C153.768,78.519 153.97,78.9617 153.97,79.4956 C153.97,80.394 153.507,81.2338 152.583,82.0151 C151.645,82.7963 150.643,83.187 149.575,83.187 C148.95,83.187 148.423,83.0242 147.993,82.6987 C147.589,82.3471 147.388,81.9044 147.388,81.3706 C147.388,80.4721 147.856,79.6323 148.794,78.851 C149.705,78.0698 150.701,77.6792 151.782,77.6792"/>
<path class="Note" d="M126.294,75.1988 C126.919,75.1988 127.446,75.3616 127.876,75.6871 C128.28,76.0387 128.481,76.4814 128.481,77.0152 C128.481,77.9137 128.019,78.7535 127.095,79.5348 C126.157,80.316 125.155,80.7067 124.087,80.7067 C123.462,80.7067 122.935,80.5439 122.505,80.2184 C122.101,79.8668 121.899,79.4241 121.899,78.8902 C121.899,77.9918 122.368,77.152 123.306,76.3707 C124.217,75.5895 125.213,75.1988 126.294,75.1988"/>
<path class="Note" d="M110.876,72.7185 C111.501,72.7185 112.028,72.8813 112.458,73.2068 C112.861,73.5584 113.063,74.0011 113.063,74.5349 C113.063,75.4334 112.601,76.2732 111.676,77.0545 C110.739,77.8357 109.736,78.2263 108.669,78.2263 C108.044,78.2263 107.516,78.0636 107.087,77.7381 C106.683,77.3865 106.481,76.9438 106.481,76.4099 C106.481,75.5115 106.95,74.6717 107.887,73.8904 C108.799,73.1092 109.795,72.7185 110.876,72.7185"/>
<path class="Note" d="M101.151,70.2382 C101.776,70.2382 102.303,70.401 102.733,70.7265 C103.137,71.0781 103.339,71.5208 103.339,72.0546 C103.339,72.9531 102.876,73.7929 101.952,74.5742 C101.014,75.3554 100.012,75.746 98.9441,75.746 C98.3191,75.746 97.7917,75.5833 97.362,75.2577 C96.9584,74.9062 96.7566,74.4635 96.7566,73.9296 C96.7566,73.0312 97.2253,72.1913 98.1628,71.4101 C99.0743,70.6288 100.07,70.2382 101.151,70.2382"/>
<path class="Note" d="M85.5918,67.7579 C86.2168,67.7579 86.7441,67.9207 87.1738,68.2462 C87.5775,68.5977 87.7793,69.0405 87.7793,69.5743 C87.7793,70.4727 87.3171,71.3126 86.3926,72.0938 C85.4551,72.8751 84.4525,73.2657 83.3848,73.2657 C82.7598,73.2657 82.2324,73.103 81.8027,72.7774 C81.3991,72.4259 81.1973,71.9832 81.1973,71.4493 C81.1973,70.5509 81.666,69.711 82.6035,68.9298 C83.515,68.1485 84.5111,67.7579 85.5918,67.7579"/>
<path class="Note" d="M70.0325,65.2776 C70.6575,65.2776 71.1849,65.4403 71.6145,65.7659 C72.0182,66.1174 72.22,66.5601 72.22,67.094 C72.22,67.9924 71.7578,68.8323 70.8333,69.6135 C69.8958,70.3948 68.8932,70.7854 67.8255,70.7854 C67.2005,70.7854 66.6731,70.6226 66.2435,70.2971 C65.8398,69.9456 65.638,69.5028 65.638,68.969 C65.638,68.0706 66.1067,67.2307 67.0442,66.4495 C67.9557,65.6682 68.9518,65.2776 70.0325,65.2776"/>
<path class="Clef" d="M38.865,167.088 C38.865,167.088 38.9041,167.088 38.9822,167.088 C39.0343,167.075 39.0798,167.068 39.1189,167.068 C40.5772,167.068 41.7752,167.582 42.7127,168.611 C43.6502,169.627 44.1189,170.811 44.1189,172.166 C44.1189,173.845 43.4223,175.213 42.0291,176.267 C41.6645,176.554 41.1892,176.788 40.6033,176.97 C40.6684,177.817 40.7009,178.5 40.7009,179.021 C40.7009,179.125 40.6879,179.503 40.6619,180.154 C40.6098,181.365 40.1931,182.413 39.4119,183.298 C38.6567,184.171 37.7192,184.607 36.5994,184.607 C35.5447,184.607 34.6463,184.236 33.9041,183.494 C33.1619,182.739 32.7908,181.827 32.7908,180.759 C32.7908,180.2 33.0056,179.724 33.4353,179.334 C33.878,178.943 34.3923,178.748 34.9783,178.748 C35.4991,178.748 35.9353,178.95 36.2869,179.353 C36.6515,179.731 36.8338,180.2 36.8338,180.759 C36.8338,181.267 36.6515,181.703 36.2869,182.068 C35.9223,182.433 35.4861,182.615 34.9783,182.615 C34.77,182.615 34.5681,182.576 34.3728,182.498 C34.9457,183.344 35.7075,183.767 36.658,183.767 C37.5564,183.767 38.2921,183.403 38.865,182.673 C39.464,181.918 39.7895,181.039 39.8416,180.037 C39.8676,179.412 39.8806,179.054 39.8806,178.963 C39.8806,178.233 39.8546,177.634 39.8025,177.166 C39.1515,177.27 38.572,177.322 38.0642,177.322 C36.2543,177.322 34.7114,176.606 33.4353,175.173 C32.1853,173.728 31.5603,172.009 31.5603,170.017 C31.5603,169.601 31.5994,169.177 31.6775,168.748 C31.7556,168.396 31.8533,168.012 31.9705,167.595 C32.0356,167.361 32.2114,166.983 32.4978,166.463 C32.602,166.306 32.7192,166.111 32.8494,165.877 C32.9796,165.642 33.0707,165.486 33.1228,165.408 C33.253,165.147 33.5069,164.796 33.8845,164.353 C33.9887,164.236 34.0961,164.106 34.2068,163.963 C34.3175,163.819 34.4119,163.702 34.49,163.611 C34.5681,163.52 34.6267,163.448 34.6658,163.396 C34.7048,163.344 34.9978,162.999 35.5447,162.361 C35.6749,162.231 35.8019,162.091 35.9256,161.941 C36.0492,161.791 36.1502,161.674 36.2283,161.589 C36.3064,161.505 36.365,161.443 36.4041,161.404 C35.9353,159.854 35.6423,158.617 35.5252,157.693 C35.434,156.951 35.3884,155.935 35.3884,154.646 C35.3884,153.513 35.6489,152.452 36.1697,151.463 C36.6775,150.434 37.3871,149.594 38.2986,148.943 C38.3637,148.904 38.4288,148.884 38.4939,148.884 C38.5851,148.884 38.6502,148.904 38.6892,148.943 C39.3923,149.789 39.9978,150.89 40.5056,152.244 C41.0265,153.598 41.2869,154.828 41.2869,155.935 C41.2869,157.185 40.9874,158.357 40.3884,159.451 C39.7114,160.61 38.839,161.808 37.7713,163.045 C38.0447,163.904 38.4093,165.252 38.865,167.088 M40.5252,176.17 C41.2022,175.922 41.7296,175.499 42.1072,174.9 C42.5239,174.327 42.7322,173.683 42.7322,172.966 C42.7322,172.042 42.4197,171.222 41.7947,170.505 C41.1567,169.763 40.3429,169.347 39.3533,169.255 C39.9132,172.003 40.3038,174.308 40.5252,176.17 M32.9666,171.658 C32.9666,172.947 33.4874,174.08 34.5291,175.056 C35.5968,176.007 36.7947,176.482 38.1228,176.482 C38.6697,176.482 39.2035,176.443 39.7244,176.365 C39.516,174.386 39.1059,172.016 38.4939,169.255 C37.7517,169.334 37.1593,169.594 36.7166,170.037 C36.2869,170.492 36.072,171.007 36.072,171.58 C36.072,172.569 36.5994,173.37 37.6541,173.982 C37.7452,174.073 37.7908,174.171 37.7908,174.275 C37.7908,174.379 37.7452,174.477 37.6541,174.568 C37.5759,174.659 37.4783,174.705 37.3611,174.705 C37.3481,174.705 37.2895,174.692 37.1853,174.666 C36.4431,174.262 35.8702,173.741 35.4666,173.103 C35.089,172.426 34.9002,171.742 34.9002,171.052 C34.9002,170.154 35.1801,169.34 35.74,168.611 C36.3259,167.882 37.0877,167.413 38.0252,167.205 C37.6606,165.746 37.3611,164.607 37.1267,163.787 C36.9184,164.021 36.6677,164.304 36.3748,164.636 C36.0818,164.968 35.9093,165.167 35.8572,165.232 C35.3884,165.844 35.0304,166.319 34.783,166.658 C34.3403,167.27 34.0147,167.797 33.8064,168.24 C33.5851,168.735 33.3897,169.275 33.2205,169.861 C33.0512,170.421 32.9666,171.02 32.9666,171.658 M39.49,151.795 C38.5134,152.276 37.7452,152.966 37.1853,153.865 C36.6124,154.789 36.3259,155.785 36.3259,156.853 C36.3259,157.791 36.5603,159.054 37.0291,160.642 C37.9666,159.509 38.6697,158.461 39.1384,157.498 C39.6332,156.482 39.8806,155.421 39.8806,154.314 C39.8806,153.481 39.7504,152.641 39.49,151.795"/>
<path class="Clef" d="M38.865,72.8356 C38.865,72.8356 38.9041,72.8356 38.9822,72.8356 C39.0343,72.8225 39.0798,72.816 39.1189,72.816 C40.5772,72.816 41.7752,73.3304 42.7127,74.359 C43.6502,75.3746 44.1189,76.5595 44.1189,77.9137 C44.1189,79.5934 43.4223,80.9606 42.0291,82.0152 C41.6645,82.3017 41.1892,82.5361 40.6033,82.7184 C40.6684,83.5647 40.7009,84.2483 40.7009,84.7692 C40.7009,84.8733 40.6879,85.2509 40.6619,85.902 C40.6098,87.1129 40.1931,88.1611 39.4119,89.0465 C38.6567,89.9189 37.7192,90.3551 36.5994,90.3551 C35.5447,90.3551 34.6463,89.984 33.9041,89.2418 C33.1619,88.4866 32.7908,87.5751 32.7908,86.5074 C32.7908,85.9475 33.0056,85.4723 33.4353,85.0817 C33.878,84.691 34.3923,84.4957 34.9783,84.4957 C35.4991,84.4957 35.9353,84.6975 36.2869,85.1012 C36.6515,85.4788 36.8338,85.9475 36.8338,86.5074 C36.8338,87.0152 36.6515,87.4514 36.2869,87.816 C35.9223,88.1806 35.4861,88.3629 34.9783,88.3629 C34.77,88.3629 34.5681,88.3238 34.3728,88.2457 C34.9457,89.0921 35.7075,89.5152 36.658,89.5152 C37.5564,89.5152 38.2921,89.1507 38.865,88.4215 C39.464,87.6663 39.7895,86.7874 39.8416,85.7848 C39.8676,85.1598 39.8806,84.8017 39.8806,84.7106 C39.8806,83.9814 39.8546,83.3824 39.8025,82.9137 C39.1515,83.0179 38.572,83.0699 38.0642,83.0699 C36.2543,83.0699 34.7114,82.3538 33.4353,80.9215 C32.1853,79.4762 31.5603,77.7574 31.5603,75.7652 C31.5603,75.3486 31.5994,74.9254 31.6775,74.4957 C31.7556,74.1442 31.8533,73.76 31.9705,73.3434 C32.0356,73.109 32.2114,72.7314 32.4978,72.2106 C32.602,72.0543 32.7192,71.859 32.8494,71.6246 C32.9796,71.3902 33.0707,71.234 33.1228,71.1559 C33.253,70.8955 33.5069,70.5439 33.8845,70.1012 C33.9887,69.984 34.0961,69.8538 34.2068,69.7106 C34.3175,69.5673 34.4119,69.4501 34.49,69.359 C34.5681,69.2679 34.6267,69.1962 34.6658,69.1442 C34.7048,69.0921 34.9978,68.747 35.5447,68.109 C35.6749,67.9788 35.8019,67.8388 35.9256,67.6891 C36.0492,67.5393 36.1502,67.4222 36.2283,67.3375 C36.3064,67.2529 36.365,67.191 36.4041,67.152 C35.9353,65.6025 35.6423,64.3655 35.5252,63.441 C35.434,62.6988 35.3884,61.6832 35.3884,60.3942 C35.3884,59.2613 35.6489,58.2001 36.1697,57.2106 C36.6775,56.1819 37.3871,55.3421 38.2986,54.691 C38.3637,54.652 38.4288,54.6324 38.4939,54.6324 C38.5851,54.6324 38.6502,54.652 38.6892,54.691 C39.3923,55.5374 39.9978,56.6376 40.5056,57.9918 C41.0265,59.346 41.2869,60.5764 41.2869,61.6832 C41.2869,62.9332 40.9874,64.1051 40.3884,65.1988 C39.7114,66.3577 38.839,67.5556 37.7713,68.7926 C38.0447,69.652 38.4093,70.9996 38.865,72.8356 M40.5252,81.9176 C41.2022,81.6702 41.7296,81.247 42.1072,80.6481 C42.5239,80.0751 42.7322,79.4306 42.7322,78.7145 C42.7322,77.79 42.4197,76.9697 41.7947,76.2535 C41.1567,75.5113 40.3429,75.0947 39.3533,75.0035 C39.9132,77.7509 40.3038,80.0556 40.5252,81.9176 M32.9666,77.4059 C32.9666,78.6949 33.4874,79.8277 34.5291,80.8043 C35.5968,81.7548 36.7947,82.2301 38.1228,82.2301 C38.6697,82.2301 39.2035,82.191 39.7244,82.1129 C39.516,80.1337 39.1059,77.7639 38.4939,75.0035 C37.7517,75.0817 37.1593,75.3421 36.7166,75.7848 C36.2869,76.2405 36.072,76.7548 36.072,77.3277 C36.072,78.3173 36.5994,79.1181 37.6541,79.7301 C37.7452,79.8212 37.7908,79.9189 37.7908,80.0231 C37.7908,80.1272 37.7452,80.2249 37.6541,80.316 C37.5759,80.4072 37.4783,80.4527 37.3611,80.4527 C37.3481,80.4527 37.2895,80.4397 37.1853,80.4137 C36.4431,80.01 35.8702,79.4892 35.4666,78.8512 C35.089,78.1741 34.9002,77.4905 34.9002,76.8004 C34.9002,75.902 35.1801,75.0882 35.74,74.359 C36.3259,73.6298 37.0877,73.1611 38.0252,72.9527 C37.6606,71.4944 37.3611,70.3551 37.1267,69.5348 C36.9184,69.7692 36.6677,70.0524 36.3748,70.3844 C36.0818,70.7164 35.9093,70.915 35.8572,70.9801 C35.3884,71.5921 35.0304,72.0673 34.783,72.4059 C34.3403,73.0179 34.0147,73.5452 33.8064,73.9879 C33.5851,74.4827 33.3897,75.0231 33.2205,75.609 C33.0512,76.1689 32.9666,76.7679 32.9666,77.4059 M39.49,57.5426 C38.5134,58.0244 37.7452,58.7145 37.1853,59.6129 C36.6124,60.5374 36.3259,61.5335 36.3259,62.6012 C36.3259,63.5387 36.5603,64.8017 37.0291,66.3902 C37.9666,65.2574 38.6697,64.2093 39.1384,63.2457 C39.6332,62.2301 39.8806,61.1689 39.8806,60.0621 C39.8806,59.2288 39.7504,58.3889 39.49,57.5426"/>
<path class="TimeSig" d="M53.5121,63.2854 C53.9027,63.2854 54.2347,63.2398 54.5082,63.1487 C54.7816,63.0575 54.9574,63.012 55.0355,63.012 C55.1266,63.012 55.1983,63.038 55.2503,63.0901 C55.2894,63.1291 55.3154,63.1747 55.3285,63.2268 C55.3285,63.2528 55.3154,63.2919 55.2894,63.344 L49.6058,69.9456 L52.9457,69.9456 L52.9457,67.3284 C52.9457,67.1591 52.9912,67.0159 53.0824,66.8987 C53.2386,66.7685 53.3688,66.6903 53.473,66.6643 C53.6423,66.5862 53.8506,66.4039 54.098,66.1174 C54.3063,65.8831 54.5537,65.4729 54.8402,64.887 C54.8793,64.8088 54.9378,64.7698 55.016,64.7698 C55.1722,64.7698 55.2634,64.8609 55.2894,65.0432 L55.2894,69.9456 L56.7152,69.9456 C56.8975,69.9456 57.0016,70.0432 57.0277,70.2385 C57.0277,70.4338 56.9235,70.5315 56.7152,70.5315 L55.2894,70.5315 L55.2894,70.6877 C55.2894,71.2086 55.4196,71.6513 55.68,72.0159 C55.9795,72.3804 56.3311,72.5627 56.7347,72.5627 C56.891,72.5627 56.9691,72.6409 56.9691,72.7971 C56.9691,72.9534 56.891,73.0315 56.7347,73.0315 C56.4613,73.0315 56.0186,72.9924 55.4066,72.9143 C54.8467,72.8232 54.4105,72.7776 54.098,72.7776 C53.7725,72.7776 53.3363,72.8232 52.7894,72.9143 C52.2035,72.9924 51.7673,73.0315 51.4808,73.0315 C51.3246,73.0315 51.2464,72.9534 51.2464,72.7971 C51.2464,72.6409 51.3246,72.5627 51.4808,72.5627 C51.8845,72.5627 52.236,72.3804 52.5355,72.0159 C52.8089,71.6513 52.9457,71.2086 52.9457,70.6877 L52.9457,70.5315 L49.6058,70.5315 C49.3845,70.5315 49.2282,70.4794 49.1371,70.3752 C49.0329,70.2971 48.9808,70.1929 48.9808,70.0627 C48.9808,70.0237 49.0785,69.887 49.2738,69.6526 C49.4951,69.3922 49.7295,69.0732 49.9769,68.6956 C50.2634,68.2528 50.5368,67.7971 50.7972,67.3284 C51.0837,66.7945 51.3115,66.1825 51.4808,65.4924 C51.6761,64.7893 51.7738,64.0732 51.7738,63.344 C51.7738,63.1357 51.8649,63.0315 52.0472,63.0315 C52.0863,63.0315 52.1709,63.051 52.3011,63.0901 C52.3402,63.1031 52.4216,63.1226 52.5453,63.1487 C52.669,63.1747 52.7699,63.2008 52.848,63.2268 C53.0824,63.2659 53.3037,63.2854 53.5121,63.2854"/>
<path class="TimeSig" d="M53.5121,73.2067 C53.9027,73.2067 54.2347,73.1611 54.5082,73.0699 C54.7816,72.9788 54.9574,72.9332 55.0355,72.9332 C55.1266,72.9332 55.1983,72.9593 55.2503,73.0113 C55.2894,73.0504 55.3154,73.096 55.3285,73.1481 C55.3285,73.1741 55.3154,73.2132 55.2894,73.2652 L49.6058,79.8668 L52.9457,79.8668 L52.9457,77.2496 C52.9457,77.0804 52.9912,76.9371 53.0824,76.8199 C53.2386,76.6897 53.3688,76.6116 53.473,76.5856 C53.6423,76.5074 53.8506,76.3251 54.098,76.0387 C54.3063,75.8043 54.5537,75.3942 54.8402,74.8082 C54.8793,74.7301 54.9378,74.691 55.016,74.691 C55.1722,74.691 55.2634,74.7822 55.2894,74.9645 L55.2894,79.8668 L56.7152,79.8668 C56.8975,79.8668 57.0016,79.9645 57.0277,80.1598 C57.0277,80.3551 56.9235,80.4527 56.7152,80.4527 L55.2894,80.4527 L55.2894,80.609 C55.2894,81.1298 55.4196,81.5725 55.68,81.9371 C55.9795,82.3017 56.3311,82.484 56.7347,82.484 C56.891,82.484 56.9691,82.5621 56.9691,82.7184 C56.9691,82.8746 56.891,82.9527 56.7347,82.9527 C56.4613,82.9527 56.0186,82.9137 55.4066,82.8356 C54.8467,82.7444 54.4105,82.6988 54.098,82.6988 C53.7725,82.6988 53.3363,82.7444 52.7894,82.8356 C52.2035,82.9137 51.7673,82.9527 51.4808,82.9527 C51.3246,82.9527 51.2464,82.8746 51.2464,82.7184 C51.2464,82.5621 51.3246,82.484 51.4808,82.484 C51.8845,82.484 52.236,82.3017 52.5355,81.9371 C52.8089,81.5725 52.9457,81.1298 52.9457,80.609 L52.9457,80.4527 L49.6058,80.4527 C49.3845,80.4527 49.2282,80.4007 49.1371,80.2965 C49.0329,80.2184 48.9808,80.1142 48.9808,79.984 C48.9808,79.9449 49.0785,79.8082 49.2738,79.5738 C49.4951,79.3134 49.7295,78.9944 49.9769,78.6168 C50.2634,78.1741 50.5368,77.7184 50.7972,77.2496 C51.0837,76.7158 51.3115,76.1038 51.4808,75.4137 C51.6761,74.7106 51.7738,73.9944 51.7738,73.2652 C51.7738,73.0569 51.8649,72.9527 52.0472,72.9527 C52.0863,72.9527 52.1709,72.9723 52.3011,73.0113 C52.3402,73.0244 52.4216,73.0439 52.5453,73.0699 C52.669,73.096 52.7699,73.122 52.848,73.1481 C53.0824,73.1871 53.3037,73.2067 53.5121,73.2067"/>
<path class="Beam" fill-rule="evenodd" d="M377.74,157.362 L398.685,156.083 L398.685,158.563 L377.74,159.843 L377.74,157.362 "/>
<path class="Beam" fill-rule="evenodd" d="M546.16,81.6732 L555.288,87.011 L555.288,89.4913 L546.16,84.1535 L546.16,81.6732 "/>
<path class="Beam" fill-rule="evenodd" d="M102.643,56.7878 L113.012,58.1102 L113.012,60.5905 L102.643,59.2681 L102.643,56.7878 "/>
<path class="Hook" d="M540.178,160.463 L540.178,155.463 L540.803,155.463 C540.803,156.205 540.947,156.947 541.233,157.689 C541.546,158.496 541.891,159.2 542.268,159.799 C542.542,160.228 542.952,160.886 543.499,161.771 C543.915,162.448 544.267,163.158 544.553,163.9 C544.84,164.642 544.983,165.384 544.983,166.127 C544.983,167.481 544.703,168.861 544.143,170.267 C544.052,170.424 543.928,170.502 543.772,170.502 C543.642,170.502 543.525,170.45 543.421,170.345 C543.343,170.267 543.303,170.17 543.303,170.052 L543.303,169.955 C543.863,168.666 544.143,167.39 544.143,166.127 C544.143,165.476 543.948,164.772 543.557,164.017 C543.167,163.249 542.77,162.637 542.366,162.181 C541.91,161.647 541.389,161.075 540.803,160.463 L540.178,160.463 "/>
<path class="Hook" d="M509.625,160.463 L509.625,155.463 L510.25,155.463 C510.25,156.205 510.393,156.947 510.68,157.689 C510.992,158.496 511.337,159.2 511.715,159.799 C511.988,160.228 512.399,160.886 512.946,161.771 C513.362,162.448 513.714,163.158 514,163.9 C514.287,164.642 514.43,165.384 514.43,166.127 C514.43,167.481 514.15,168.861 513.59,170.267 C513.499,170.424 513.375,170.502 513.219,170.502 C513.089,170.502 512.972,170.45 512.867,170.345 C512.789,170.267 512.75,170.17 512.75,170.052 L512.75,169.955 C513.31,168.666 513.59,167.39 513.59,166.127 C513.59,165.476 513.395,164.772 513.004,164.017 C512.613,163.249 512.216,162.637 511.813,162.181 C511.357,161.647 510.836,161.075 510.25,160.463 L509.625,160.463 "/>
<path class="Hook" d="M425.088,160.463 L425.088,155.463 L425.713,155.463 C425.713,156.205 425.856,156.947 426.143,157.689 C426.455,158.496 426.8,159.2 427.178,159.799 C427.451,160.228 427.861,160.886 428.408,161.771 C428.825,162.448 429.176,163.158 429.463,163.9 C429.749,164.642 429.893,165.384 429.893,166.127 C429.893,167.481 429.613,168.861 429.053,170.267 C428.962,170.424 428.838,170.502 428.682,170.502 C428.551,170.502 428.434,170.45 428.33,170.345 C428.252,170.267 428.213,170.17 428.213,170.052 L428.213,169.955 C428.773,168.666 429.053,167.39 429.053,166.127 C429.053,165.476 428.857,164.772 428.467,164.017 C428.076,163.249 427.679,162.637 427.275,162.181 C426.82,161.647 426.299,161.075 425.713,160.463 L425.088,160.463 "/>
<path class="Hook" d="M285.351,160.463 L285.351,155.463 L285.976,155.463 C285.976,156.205 286.119,156.947 286.405,157.689 C286.718,158.496 287.063,159.2 287.441,159.799 C287.714,160.228 288.124,160.886 288.671,161.771 C289.088,162.448 289.439,163.158 289.726,163.9 C290.012,164.642 290.155,165.384 290.155,166.127 C290.155,167.481 289.875,168.861 289.316,170.267 C289.224,170.424 289.101,170.502 288.944,170.502 C288.814,170.502 288.697,170.45 288.593,170.345 C288.515,170.267 288.476,170.17 288.476,170.052 L288.476,169.955 C289.036,168.666 289.316,167.39 289.316,166.127 C289.316,165.476 289.12,164.772 288.73,164.017 C288.339,163.249 287.942,162.637 287.538,162.181 C287.082,161.647 286.562,161.075 285.976,160.463 L285.351,160.463 "/>
<path class="Hook" d="M143.982,164.803 L143.982,159.803 L144.607,159.803 C144.607,160.545 144.75,161.288 145.036,162.03 C145.349,162.837 145.694,163.54 146.071,164.139 C146.345,164.569 146.755,165.226 147.302,166.112 C147.719,166.789 148.07,167.498 148.357,168.241 C148.643,168.983 148.786,169.725 148.786,170.467 C148.786,171.821 148.506,173.202 147.946,174.608 C147.855,174.764 147.732,174.842 147.575,174.842 C147.445,174.842 147.328,174.79 147.224,174.686 C147.146,174.608 147.107,174.51 147.107,174.393 L147.107,174.295 C147.667,173.006 147.946,171.73 147.946,170.467 C147.946,169.816 147.751,169.113 147.361,168.358 C146.97,167.59 146.573,166.978 146.169,166.522 C145.713,165.988 145.193,165.415 144.607,164.803 L143.982,164.803 "/>
<path class="Hook" d="M57.2415,170.134 C57.541,170.134 57.86,170.622 58.1986,171.598 C58.5241,172.562 58.6868,173.48 58.6868,174.352 C58.6868,175.095 58.5045,175.83 58.14,176.559 C57.7624,177.341 57.3131,178.018 56.7923,178.591 L55.1907,180.388 C54.6959,180.96 54.2532,181.625 53.8626,182.38 C53.498,183.109 53.3157,183.851 53.3157,184.606 L52.6907,184.606 L52.6907,179.606 L53.3157,179.606 C53.6673,179.385 54.1881,179.033 54.8782,178.552 C55.1907,178.317 55.6595,177.927 56.2845,177.38 C56.7923,176.911 57.1764,176.429 57.4368,175.934 C57.7103,175.414 57.847,174.886 57.847,174.352 C57.847,173.115 57.4889,171.885 56.7728,170.661 C56.7728,170.661 56.7728,170.635 56.7728,170.583 C56.7728,170.466 56.8118,170.368 56.89,170.29 C56.9941,170.186 57.1113,170.134 57.2415,170.134"/>
<path class="NoteDot" d="M451.787,170.525 C451.565,170.304 451.455,170.037 451.455,169.724 C451.455,169.412 451.565,169.145 451.787,168.924 C452.008,168.702 452.275,168.592 452.588,168.592 C452.9,168.592 453.167,168.702 453.388,168.924 C453.61,169.145 453.72,169.412 453.72,169.724 C453.72,170.037 453.61,170.304 453.388,170.525 C453.167,170.747 452.9,170.857 452.588,170.857 C452.275,170.857 452.008,170.747 451.787,170.525"/>
<path class="NoteDot" d="M340.846,170.525 C340.625,170.304 340.514,170.037 340.514,169.724 C340.514,169.412 340.625,169.145 340.846,168.924 C341.067,168.702 341.334,168.592 341.647,168.592 C341.959,168.592 342.226,168.702 342.448,168.924 C342.669,169.145 342.78,169.412 342.78,169.724 C342.78,170.037 342.669,170.304 342.448,170.525 C342.226,170.747 341.959,170.857 341.647,170.857 C341.334,170.857 341.067,170.747 340.846,170.525"/>
<path class="NoteDot" d="M241.144,170.525 C240.923,170.304 240.812,170.037 240.812,169.724 C240.812,169.412 240.923,169.145 241.144,168.924 C241.365,168.702 241.632,168.592 241.945,168.592 C242.257,168.592 242.524,168.702 242.745,168.924 C242.967,169.145 243.078,169.412 243.078,169.724 C243.078,170.037 242.967,170.304 242.745,170.525 C242.524,170.747 242.257,170.857 241.945,170.857 C241.632,170.857 241.365,170.747 241.144,170.525"/>
<path class="NoteDot" d="M171.234,175.486 C171.013,175.264 170.902,174.998 170.902,174.685 C170.902,174.373 171.013,174.106 171.234,173.884 C171.455,173.663 171.722,173.552 172.035,173.552 C172.347,173.552 172.614,173.663 172.835,173.884 C173.057,174.106 173.168,174.373 173.168,174.685 C173.168,174.998 173.057,175.264 172.835,175.486 C172.614,175.707 172.347,175.818 172.035,175.818 C171.722,175.818 171.455,175.707 171.234,175.486"/>
<path class="NoteDot" d="M470.097,76.2732 C469.876,76.0519 469.765,75.7849 469.765,75.4724 C469.765,75.1599 469.876,74.893 470.097,74.6717 C470.319,74.4503 470.586,74.3396 470.898,74.3396 C471.211,74.3396 471.477,74.4503 471.699,74.6717 C471.92,74.893 472.031,75.1599 472.031,75.4724 C472.031,75.7849 471.92,76.0519 471.699,76.2732 C471.477,76.4946 471.211,76.6052 470.898,76.6052 C470.586,76.6052 470.319,76.4946 470.097,76.2732"/>
</svg>
